<?xml version="1.0" encoding="UTF-8"?>
<svg width="800" height="600" viewBox="0 0 800 600" xmlns="http://www.w3.org/2000/svg">
  <!-- Background -->
  <rect width="800" height="600" fill="#f8f9fa" />
  
  <!-- Modal Container -->
  <rect x="50" y="50" width="700" height="500" rx="8" fill="#ffffff" stroke="#e2e8f0" stroke-width="1" filter="drop-shadow(0 4px 6px rgba(0, 0, 0, 0.1))" />
  
  <!-- Modal Header -->
  <rect x="50" y="50" width="700" height="60" rx="8" fill="#f1f5f9" />
  <text x="80" y="85" font-family="Arial" font-size="18" font-weight="bold" fill="#1e293b">Mention Details</text>
  <circle cx="720" cy="80" r="15" fill="#e2e8f0" />
  <text x="720" y="85" font-family="Arial" font-size="18" font-weight="bold" fill="#64748b" text-anchor="middle">×</text>
  
  <!-- Source Info -->
  <rect x="80" y="130" width="120" height="40" rx="20" fill="#3b82f6" />
  <text x="140" y="155" font-family="Arial" font-size="14" fill="#ffffff" text-anchor="middle">Twitter</text>
  
  <!-- Sentiment Badge -->
  <rect x="210" y="130" width="100" height="40" rx="20" fill="#dcfce7" />
  <text x="260" y="155" font-family="Arial" font-size="14" fill="#10b981" text-anchor="middle">Positive</text>
  
  <!-- Date/Time -->
  <text x="330" y="155" font-family="Arial" font-size="14" fill="#64748b">October 15, 2023 • 14:32</text>
  
  <!-- Author Info -->
  <circle cx="100" cy="210" r="25" fill="#e2e8f0" />
  <text x="140" y="205" font-family="Arial" font-size="16" font-weight="bold" fill="#1e293b">Jane Smith</text>
  <text x="140" y="225" font-family="Arial" font-size="14" fill="#64748b">@janesmith • 5.2K followers</text>
  
  <!-- Mention Content -->
  <rect x="80" y="250" width="640" height="120" rx="8" fill="#ffffff" stroke="#e2e8f0" stroke-width="1" />
  <text x="100" y="280" font-family="Arial" font-size="15" fill="#1e293b" width="600">Just attended the quarterly earnings call for $ACME. Impressed with their new sustainability initiatives and growth projections. The CEO's vision for expanding into renewable energy markets seems promising. Definitely maintaining my position! #InvestorRelations #ESG</text>
  
  <!-- Engagement Metrics -->
  <rect x="80" y="390" width="640" height="60" rx="8" fill="#f8fafc" />
  
  <!-- Likes -->
  <circle cx="120" cy="420" r="15" fill="#f1f5f9" />
  <text x="120" y="425" font-family="Arial" font-size="14" fill="#ef4444" text-anchor="middle">♥</text>
  <text x="145" y="425" font-family="Arial" font-size="14" fill="#64748b">142 Likes</text>
  
  <!-- Retweets/Shares -->
  <circle cx="240" cy="420" r="15" fill="#f1f5f9" />
  <text x="240" y="425" font-family="Arial" font-size="14" fill="#10b981" text-anchor="middle">↻</text>
  <text x="265" y="425" font-family="Arial" font-size="14" fill="#64748b">38 Retweets</text>
  
  <!-- Comments -->
  <circle cx="360" cy="420" r="15" fill="#f1f5f9" />
  <text x="360" y="425" font-family="Arial" font-size="14" fill="#3b82f6" text-anchor="middle">💬</text>
  <text x="385" y="425" font-family="Arial" font-size="14" fill="#64748b">17 Comments</text>
  
  <!-- Action Buttons -->
  <rect x="80" y="470" width="150" height="40" rx="4" fill="#ffffff" stroke="#cbd5e1" stroke-width="1" />
  <text x="155" y="495" font-family="Arial" font-size="14" fill="#64748b" text-anchor="middle">Flag for Follow-up</text>
  
  <rect x="240" y="470" width="150" height="40" rx="4" fill="#ffffff" stroke="#cbd5e1" stroke-width="1" />
  <text x="315" y="495" font-family="Arial" font-size="14" fill="#64748b" text-anchor="middle">Categorize</text>
  
  <rect x="400" y="470" width="150" height="40" rx="4" fill="#3b82f6" />
  <text x="475" y="495" font-family="Arial" font-size="14" fill="#ffffff" text-anchor="middle">Respond</text>
  
  <rect x="560" y="470" width="160" height="40" rx="4" fill="#ffffff" stroke="#cbd5e1" stroke-width="1" />
  <text x="640" y="495" font-family="Arial" font-size="14" fill="#64748b" text-anchor="middle">View on Twitter</text>
</svg>