<?xml version="1.0" encoding="UTF-8"?>
<svg width="800" height="600" viewBox="0 0 800 600" xmlns="http://www.w3.org/2000/svg">
  <!-- Background -->
  <rect width="800" height="600" fill="#f8f9fa" />
  
  <!-- Header -->
  <rect x="0" y="0" width="800" height="60" fill="#ffffff" stroke="#e2e8f0" stroke-width="1" />
  <text x="30" y="35" font-family="Arial" font-size="20" font-weight="bold" fill="#1e293b">Chatter Analytics</text>
  
  <!-- Date Range Selector -->
  <rect x="580" y="10" width="200" height="40" rx="4" fill="#ffffff" stroke="#cbd5e1" stroke-width="1" />
  <text x="600" y="35" font-family="Arial" font-size="14" fill="#64748b">Last 30 Days ▼</text>
  
  <!-- Main Content Area -->
  <rect x="20" y="80" width="760" height="500" fill="#f8f9fa" />
  
  <!-- Top Stats Cards -->
  <rect x="20" y="80" width="240" height="120" rx="8" fill="#ffffff" stroke="#e2e8f0" stroke-width="1" />
  <text x="40" y="110" font-family="Arial" font-size="14" fill="#64748b">Total Mentions</text>
  <text x="40" y="150" font-family="Arial" font-size="28" font-weight="bold" fill="#1e293b">1,248</text>
  <text x="120" y="150" font-family="Arial" font-size="14" fill="#10b981">↑ 12.4%</text>
  
  <rect x="280" y="80" width="240" height="120" rx="8" fill="#ffffff" stroke="#e2e8f0" stroke-width="1" />
  <text x="300" y="110" font-family="Arial" font-size="14" fill="#64748b">Average Sentiment</text>
  <text x="300" y="150" font-family="Arial" font-size="28" font-weight="bold" fill="#1e293b">72/100</text>
  <text x="400" y="150" font-family="Arial" font-size="14" fill="#10b981">↑ 3.2%</text>
  
  <rect x="540" y="80" width="240" height="120" rx="8" fill="#ffffff" stroke="#e2e8f0" stroke-width="1" />
  <text x="560" y="110" font-family="Arial" font-size="14" fill="#64748b">Engagement Rate</text>
  <text x="560" y="150" font-family="Arial" font-size="28" font-weight="bold" fill="#1e293b">5.7%</text>
  <text x="630" y="150" font-family="Arial" font-size="14" fill="#ef4444">↓ 0.8%</text>
  
  <!-- Mentions by Source Chart -->
  <rect x="20" y="220" width="370" height="250" rx="8" fill="#ffffff" stroke="#e2e8f0" stroke-width="1" />
  <text x="40" y="250" font-family="Arial" font-size="16" font-weight="bold" fill="#1e293b">Mentions by Source</text>
  
  <!-- Bar Chart -->
  <!-- Twitter -->
  <rect x="70" y="280" width="40" height="160" fill="#3b82f6" />
  <text x="90" y="460" font-family="Arial" font-size="12" fill="#64748b" text-anchor="middle">Twitter</text>
  <text x="90" y="270" font-family="Arial" font-size="12" fill="#64748b" text-anchor="middle">512</text>
  
  <!-- Reddit -->
  <rect x="130" y="340" width="40" height="100" fill="#f97316" />
  <text x="150" y="460" font-family="Arial" font-size="12" fill="#64748b" text-anchor="middle">Reddit</text>
  <text x="150" y="330" font-family="Arial" font-size="12" fill="#64748b" text-anchor="middle">320</text>
  
  <!-- News -->
  <rect x="190" y="380" width="40" height="60" fill="#6366f1" />
  <text x="210" y="460" font-family="Arial" font-size="12" fill="#64748b" text-anchor="middle">News</text>
  <text x="210" y="370" font-family="Arial" font-size="12" fill="#64748b" text-anchor="middle">192</text>
  
  <!-- LinkedIn -->
  <rect x="250" y="360" width="40" height="80" fill="#0284c7" />
  <text x="270" y="460" font-family="Arial" font-size="12" fill="#64748b" text-anchor="middle">LinkedIn</text>
  <text x="270" y="350" font-family="Arial" font-size="12" fill="#64748b" text-anchor="middle">256</text>
  
  <!-- Facebook -->
  <rect x="310" y="400" width="40" height="40" fill="#4f46e5" />
  <text x="330" y="460" font-family="Arial" font-size="12" fill="#64748b" text-anchor="middle">Facebook</text>
  <text x="330" y="390" font-family="Arial" font-size="12" fill="#64748b" text-anchor="middle">128</text>
  
  <!-- Sentiment Trend Chart -->
  <rect x="410" y="220" width="370" height="250" rx="8" fill="#ffffff" stroke="#e2e8f0" stroke-width="1" />
  <text x="430" y="250" font-family="Arial" font-size="16" font-weight="bold" fill="#1e293b">Sentiment Trend</text>
  
  <!-- Line Chart -->
  <polyline points="450,380 480,360 510,370 540,350 570,330 600,340 630,320 660,310 690,300 720,290" fill="none" stroke="#10b981" stroke-width="3" />
  
  <!-- X-Axis Labels -->
  <text x="450" y="410" font-family="Arial" font-size="10" fill="#64748b" text-anchor="middle">Oct 1</text>
  <text x="510" y="410" font-family="Arial" font-size="10" fill="#64748b" text-anchor="middle">Oct 8</text>
  <text x="570" y="410" font-family="Arial" font-size="10" fill="#64748b" text-anchor="middle">Oct 15</text>
  <text x="630" y="410" font-family="Arial" font-size="10" fill="#64748b" text-anchor="middle">Oct 22</text>
  <text x="690" y="410" font-family="Arial" font-size="10" fill="#64748b" text-anchor="middle">Oct 29</text>
  
  <!-- Y-Axis Labels -->
  <text x="430" y="380" font-family="Arial" font-size="10" fill="#64748b" text-anchor="end">50</text>
  <text x="430" y="340" font-family="Arial" font-size="10" fill="#64748b" text-anchor="end">70</text>
  <text x="430" y="300" font-family="Arial" font-size="10" fill="#64748b" text-anchor="end">90</text>
  
  <!-- Top Keywords Section -->
  <rect x="20" y="490" width="760" height="90" rx="8" fill="#ffffff" stroke="#e2e8f0" stroke-width="1" />
  <text x="40" y="520" font-family="Arial" font-size="16" font-weight="bold" fill="#1e293b">Top Keywords</text>
  
  <!-- Keyword Pills -->
  <rect x="40" y="535" width="100" height="30" rx="15" fill="#e0f2fe" />
  <text x="90" y="555" font-family="Arial" font-size="12" fill="#0284c7" text-anchor="middle">#Earnings (87)</text>
  
  <rect x="150" y="535" width="120" height="30" rx="15" fill="#e0f2fe" />
  <text x="210" y="555" font-family="Arial" font-size="12" fill="#0284c7" text-anchor="middle">#Sustainability (64)</text>
  
  <rect x="280" y="535" width="90" height="30" rx="15" fill="#e0f2fe" />
  <text x="325" y="555" font-family="Arial" font-size="12" fill="#0284c7" text-anchor="middle">$ACME (58)</text>
  
  <rect x="380" y="535" width="110" height="30" rx="15" fill="#e0f2fe" />
  <text x="435" y="555" font-family="Arial" font-size="12" fill="#0284c7" text-anchor="middle">#Investors (52)</text>
  
  <rect x="500" y="535" width="100" height="30" rx="15" fill="#e0f2fe" />
  <text x="550" y="555" font-family="Arial" font-size="12" fill="#0284c7" text-anchor="middle">#Growth (49)</text>
  
  <rect x="610" y="535" width="80" height="30" rx="15" fill="#e0f2fe" />
  <text x="650" y="555" font-family="Arial" font-size="12" fill="#0284c7" text-anchor="middle">#ESG (43)</text>
</svg>