<?xml version="1.0" encoding="UTF-8"?>
<svg width="1200" height="1600" viewBox="0 0 1200 1600" xmlns="http://www.w3.org/2000/svg">
  <!-- Background -->
  <rect width="1200" height="1600" fill="#f8f9fa"/>
  
  <!-- Left Sidebar Navigation -->
  <rect x="0" y="0" width="220" height="1600" fill="#2c3e50"/>
  
  <!-- Company Logo -->
  <rect x="20" y="20" width="180" height="60" rx="5" fill="#34495e"/>
  <text x="110" y="55" font-family="Arial" font-size="18" fill="white" text-anchor="middle">DIOLOG</text>
  
  <!-- Sidebar Menu Items -->
  <rect x="20" y="120" width="180" height="40" rx="5" fill="#34495e"/>
  <text x="50" y="145" font-family="Arial" font-size="14" fill="white">Dashboard</text>
  
  <rect x="20" y="170" width="180" height="40" rx="5" fill="#34495e"/>
  <text x="50" y="195" font-family="Arial" font-size="14" fill="white">Calendar/Events</text>
  
  <rect x="20" y="220" width="180" height="40" rx="5" fill="#34495e"/>
  <text x="50" y="245" font-family="Arial" font-size="14" fill="white">Announcements</text>
  
  <rect x="20" y="270" width="180" height="40" rx="5" fill="#3498db"/>
  <text x="50" y="295" font-family="Arial" font-size="14" fill="white">Questions Board</text>
  <circle cx="190" y="285" r="10" fill="#e74c3c"/>
  <text x="190" y="290" font-family="Arial" font-size="12" fill="white" text-anchor="middle">5</text>
  
  <rect x="20" y="320" width="180" height="40" rx="5" fill="#34495e"/>
  <text x="50" y="345" font-family="Arial" font-size="14" fill="white">Our FAQs</text>
  
  <rect x="20" y="370" width="180" height="40" rx="5" fill="#34495e"/>
  <text x="50" y="395" font-family="Arial" font-size="14" fill="white">My Team</text>
  
  <rect x="20" y="420" width="180" height="40" rx="5" fill="#34495e"/>
  <text x="50" y="445" font-family="Arial" font-size="14" fill="white">Question Registry</text>
  
  <!-- Upgrade to Premium Button -->
  <rect x="20" y="1500" width="180" height="50" rx="5" fill="#f39c12"/>
  <text x="110" y="1530" font-family="Arial" font-size="14" fill="white" text-anchor="middle">UPGRADE TO PREMIUM</text>
  
  <!-- Top Header -->
  <rect x="220" y="0" width="980" height="70" fill="white" stroke="#e0e0e0" stroke-width="1"/>
  
  <!-- Company Profile Dropdown -->
  <rect x="240" y="15" width="200" height="40" rx="20" fill="#f8f9fa" stroke="#e0e0e0" stroke-width="1"/>
  <circle cx="260" y="35" r="15" fill="#3498db"/>
  <text x="310" y="40" font-family="Arial" font-size="14" fill="#333">Acme Corporation</text>
  <text x="420" y="40" font-family="Arial" font-size="14" fill="#333">▼</text>
  
  <!-- Notification Icon -->
  <circle cx="1100" y="35" r="20" fill="#f8f9fa" stroke="#e0e0e0" stroke-width="1"/>
  <text x="1100" y="40" font-family="Arial" font-size="14" fill="#333" text-anchor="middle">🔔</text>
  
  <!-- User Profile Dropdown -->
  <circle cx="1150" y="35" r="20" fill="#3498db"/>
  <text x="1150" y="40" font-family="Arial" font-size="14" fill="white" text-anchor="middle">JD</text>
  
  <!-- Page Header -->
  <rect x="220" y="70" width="980" height="60" fill="white"/>
  <text x="260" y="110" font-family="Arial" font-size="24" font-weight="bold" fill="#333">Questions Board</text>
  
  <!-- Search Bar -->
  <rect x="600" y="85" width="300" height="40" rx="20" fill="white" stroke="#e0e0e0" stroke-width="1"/>
  <text x="630" y="110" font-family="Arial" font-size="14" fill="#777">Search questions...</text>
  <circle cx="610" y="105" r="10" fill="none" stroke="#777" stroke-width="2"/>
  
  <!-- Filter Dropdown -->
  <rect x="920" y="85" width="120" height="40" rx="5" fill="#f8f9fa" stroke="#e0e0e0" stroke-width="1"/>
  <text x="950" y="110" font-family="Arial" font-size="14" fill="#333">Filter</text>
  <text x="1020" y="110" font-family="Arial" font-size="14" fill="#333">▼</text>
  
  <!-- Kanban Board Layout -->
  <rect x="240" y="150" width="940" height="1350" fill="white" stroke="#e0e0e0" stroke-width="1" rx="5"/>
  
  <!-- Outstanding Column -->
  <rect x="260" y="170" width="280" height="50" rx="5" fill="#e74c3c" opacity="0.9"/>
  <text x="290" y="202" font-family="Arial" font-size="16" font-weight="bold" fill="white">Outstanding (5)</text>
  
  <!-- Outstanding Question Cards (Grid Layout) -->
  <rect x="260" y="230" width="280" height="180" rx="5" fill="white" stroke="#e0e0e0" stroke-width="1"/>
  <text x="280" y="260" font-family="Arial" font-size="16" font-weight="bold" fill="#333">Q3 Results</text>
  <text x="280" y="285" font-family="Arial" font-size="14" fill="#555">Can you provide more details about the Q3 financial results? Specifically...</text>
  <text x="280" y="320" font-family="Arial" font-size="12" fill="#777">John Smith • 2 days ago</text>
  <rect x="280" y="335" width="80" height="25" rx="12.5" fill="#3498db" opacity="0.2"/>
  <text x="320" y="352" font-family="Arial" font-size="12" fill="#3498db" text-anchor="middle">Financial</text>
  <rect x="510" y="230" width="10" height="180" rx="5" fill="#e74c3c"/>
  
  <rect x="260" y="420" width="280" height="180" rx="5" fill="white" stroke="#e0e0e0" stroke-width="1"/>
  <text x="280" y="450" font-family="Arial" font-size="16" font-weight="bold" fill="#333">ESG Initiatives</text>
  <text x="280" y="475" font-family="Arial" font-size="14" fill="#555">I'm interested in learning more about your company's environmental...</text>
  <text x="280" y="510" font-family="Arial" font-size="12" fill="#777">Sarah Johnson • 1 day ago</text>
  <rect x="280" y="525" width="80" height="25" rx="12.5" fill="#9b59b6" opacity="0.2"/>
  <text x="320" y="542" font-family="Arial" font-size="12" fill="#9b59b6" text-anchor="middle">ESG</text>
  <rect x="510" y="420" width="10" height="180" rx="5" fill="#e74c3c"/>
  
  <rect x="260" y="610" width="280" height="180" rx="5" fill="white" stroke="#e0e0e0" stroke-width="1"/>
  <text x="280" y="640" font-family="Arial" font-size="16" font-weight="bold" fill="#333">Product Roadmap</text>
  <text x="280" y="665" font-family="Arial" font-size="14" fill="#555">What are the key milestones in your product roadmap for the next...</text>
  <text x="280" y="700" font-family="Arial" font-size="12" fill="#777">Michael Lee • 3 hours ago</text>
  <rect x="280" y="715" width="80" height="25" rx="12.5" fill="#e67e22" opacity="0.2"/>
  <text x="320" y="732" font-family="Arial" font-size="12" fill="#e67e22" text-anchor="middle">Product</text>
  <rect x="510" y="610" width="10" height="180" rx="5" fill="#e74c3c"/>
  
  <!-- More Outstanding Cards (Showing 3 of 5) -->
  
  <!-- Active Column -->
  <rect x="560" y="170" width="280" height="50" rx="5" fill="#f39c12" opacity="0.9"/>
  <text x="590" y="202" font-family="Arial" font-size="16" font-weight="bold" fill="white">Active (3)</text>
  
  <!-- Active Question Cards (List Layout) -->
  <rect x="560" y="230" width="280" height="100" rx="5" fill="white" stroke="#e0e0e0" stroke-width="1"/>
  <text x="580" y="260" font-family="Arial" font-size="16" font-weight="bold" fill="#333">Dividend Policy</text>
  <text x="580" y="285" font-family="Arial" font-size="14" fill="#555">Are there any plans to change the current dividend policy...</text>
  <text x="580" y="310" font-family="Arial" font-size="12" fill="#777">Robert Chen • 1 day ago</text>
  <rect x="700" y="305" width="80" height="25" rx="12.5" fill="#3498db" opacity="0.2"/>
  <text x="740" y="322" font-family="Arial" font-size="12" fill="#3498db" text-anchor="middle">Financial</text>
  <circle cx="800" y="280" r="15" fill="#3498db"/>
  <text x="800" y="285" font-family="Arial" font-size="10" fill="white" text-anchor="middle">JD</text>
  <rect x="830" y="230" width="10" height="100" rx="5" fill="#f39c12"/>
  
  <rect x="560" y="340" width="280" height="100" rx="5" fill="white" stroke="#e0e0e0" stroke-width="1"/>
  <text x="580" y="370" font-family="Arial" font-size="16" font-weight="bold" fill="#333">Board Changes</text>
  <text x="580" y="395" font-family="Arial" font-size="14" fill="#555">Can you elaborate on the recent changes to the board of directors...</text>
  <text x="580" y="420" font-family="Arial" font-size="12" fill="#777">Emma Wilson • 2 days ago</text>
  <rect x="700" y="415" width="80" height="25" rx="12.5" fill="#16a085" opacity="0.2"/>
  <text x="740" y="432" font-family="Arial" font-size="12" fill="#16a085" text-anchor="middle">Governance</text>
  <circle cx="800" y="390" r="15" fill="#9b59b6"/>
  <text x="800" y="395" font-family="Arial" font-size="10" fill="white" text-anchor="middle">AL</text>
  <rect x="830" y="340" width="10" height="100" rx="5" fill="#f39c12"/>
  
  <rect x="560" y="450" width="280" height="100" rx="5" fill="white" stroke="#e0e0e0" stroke-width="1"/>
  <text x="580" y="480" font-family="Arial" font-size="16" font-weight="bold" fill="#333">Expansion Plans</text>
  <text x="580" y="505" font-family="Arial" font-size="14" fill="#555">What are your plans for expansion into European markets...</text>
  <text x="580" y="530" font-family="Arial" font-size="12" fill="#777">David Park • 3 days ago</text>
  <rect x="700" y="525" width="80" height="25" rx="12.5" fill="#2980b9" opacity="0.2"/>
  <text x="740" y="542" font-family="Arial" font-size="12" fill="#2980b9" text-anchor="middle">Strategy</text>
  <circle cx="800" y="500" r="15" fill="#e74c3c"/>
  <text x="800" y="505" font-family="Arial" font-size="10" fill="white" text-anchor="middle">TK</text>
  <rect x="830" y="450" width="10" height="100" rx="5" fill="#f39c12"/>
  
  <!-- Closed Column -->
  <rect x="860" y="170" width="280" height="50" rx="5" fill="#2ecc71" opacity="0.9"/>
  <text x="890" y="202" font-family="Arial" font-size="16" font-weight="bold" fill="white">Closed (12)</text>
  
  <!-- Closed Question Cards (List Layout) -->
  <rect x="860" y="230" width="280" height="100" rx="5" fill="white" stroke="#e0e0e0" stroke-width="1"/>
  <text x="880" y="260" font-family="Arial" font-size="16" font-weight="bold" fill="#333">Annual Report</text>
  <text x="880" y="285" font-family="Arial" font-size="14" fill="#555">When will the annual report be published? I couldn't find...</text>
  <text x="880" y="310" font-family="Arial" font-size="12" fill="#777">Lisa Brown • 1 week ago</text>
  <rect x="1000" y="305" width="80" height="25" rx="12.5" fill="#3498db" opacity="0.2"/>
  <text x="1040" y="322" font-family="Arial" font-size="12" fill="#3498db" text-anchor="middle">Financial</text>
  <rect x="1130" y="230" width="10" height="100" rx="5" fill="#2ecc71"/>
  
  <rect x="860" y="340" width="280" height="100" rx="5" fill="white" stroke="#e0e0e0" stroke-width="1"/>
  <text x="880" y="370" font-family="Arial" font-size="16" font-weight="bold" fill="#333">Supply Chain</text>
  <text x="880" y="395" font-family="Arial" font-size="14" fill="#555">How has the company addressed recent supply chain disruptions...</text>
  <text x="880" y="420" font-family="Arial" font-size="12" fill="#777">James Wilson • 5 days ago</text>
  <rect x="1000" y="415" width="80" height="25" rx="12.5" fill="#95a5a6" opacity="0.2"/>
  <text x="1040" y="432" font-family="Arial" font-size="12" fill="#95a5a6" text-anchor="middle">Operations</text>
  <rect x="1130" y="340" width="10" height="100" rx="5" fill="#2ecc71"/>
  
  <rect x="860" y="450" width="280" height="100" rx="5" fill="white" stroke="#e0e0e0" stroke-width="1"/>
  <text x="880" y="480" font-family="Arial" font-size="16" font-weight="bold" fill="#333">Executive Comp</text>
  <text x="880" y="505" font-family="Arial" font-size="14" fill="#555">Could you provide details on the executive compensation...</text>
  <text x="880" y="530" font-family="Arial" font-size="12" fill="#777">Karen Zhang • 1 week ago</text>
  <rect x="1000" y="525" width="80" height="25" rx="12.5" fill="#16a085" opacity="0.2"/>
  <text x="1040" y="542" font-family="Arial" font-size="12" fill="#16a085" text-anchor="middle">Governance</text>
  <rect x="1130" y="450" width="10" height="100" rx="5" fill="#2ecc71"/>
  
  <!-- More Closed Cards (Showing 3 of 12) -->
  <text x="980" y="580" font-family="Arial" font-size="14" fill="#777" text-anchor="middle">+ 9 more</text>
  
  <!-- Bulk Actions Bar -->
  <rect x="240" y="1520" width="940" height="60" fill="#f8f9fa" stroke="#e0e0e0" stroke-width="1" rx="5"/>
  <text x="270" y="1555" font-family="Arial" font-size="16" font-weight="bold" fill="#333">Bulk Actions:</text>
  
  <rect x="400" y="1535" width="120" height="30" rx="5" fill="white" stroke="#e0e0e0" stroke-width="1"/>
  <text x="460" y="1555" font-family="Arial" font-size="14" fill="#333" text-anchor="middle">Archive</text>
  
  <rect x="540" y="1535" width="180" height="30" rx="5" fill="white" stroke="#e0e0e0" stroke-width="1"/>
  <text x="630" y="1555" font-family="Arial" font-size="14" fill="#333" text-anchor="middle">Assign Category</text>
  
  <rect x="740" y="1535" width="180" height="30" rx="5" fill="white" stroke="#e0e0e0" stroke-width="1"/>
  <text x="830" y="1555" font-family="Arial" font-size="14" fill="#333" text-anchor="middle">Assign Team Member</text>
  
  <rect x="940" y="1535" width="120" height="30" rx="5" fill="white" stroke="#e0e0e0" stroke-width="1"/>
  <text x="1000" y="1555" font-family="Arial" font-size="14" fill="#333" text-anchor="middle">Export</text>
</svg>