<?xml version="1.0" encoding="UTF-8" standalone="no"?>
<svg width="1280" height="800" viewBox="0 0 1280 800" fill="none" xmlns="http://www.w3.org/2000/svg">
  <!-- Background -->
  <rect width="1280" height="800" fill="#F9FAFB"/>
  
  <!-- Sidebar Navigation -->
  <rect x="0" y="0" width="240" height="800" fill="#FFFFFF" stroke="#E5E7EB" stroke-width="1"/>
  
  <!-- Sidebar Logo Area -->
  <rect x="20" y="20" width="200" height="40" rx="4" fill="#1E40AF"/>
  <text x="120" y="45" font-family="Inter, sans-serif" font-size="18" font-weight="bold" fill="white" text-anchor="middle">DIOLOG</text>
  
  <!-- Sidebar Menu Items -->
  <g>
    <!-- Dashboard -->
    <rect x="10" y="80" width="220" height="40" rx="4" fill="#EFF6FF"/>
    <circle cx="30" cy="100" r="8" fill="#3B82F6"/>
    <text x="50" y="105" font-family="Inter, sans-serif" font-size="14" fill="#1F2937">Dashboard</text>
    
    <!-- Calendar/Events -->
    <rect x="10" y="130" width="220" height="40" rx="4" fill="transparent"/>
    <circle cx="30" cy="150" r="8" fill="#6B7280"/>
    <text x="50" y="155" font-family="Inter, sans-serif" font-size="14" fill="#1F2937">Calendar/Events</text>
    
    <!-- Announcements -->
    <rect x="10" y="180" width="220" height="40" rx="4" fill="transparent"/>
    <circle cx="30" cy="200" r="8" fill="#6B7280"/>
    <text x="50" y="205" font-family="Inter, sans-serif" font-size="14" fill="#1F2937">Announcements</text>
    <circle cx="210" cy="200" r="10" fill="#EF4444"/>
    <text x="210" y="204" font-family="Inter, sans-serif" font-size="10" font-weight="bold" fill="white" text-anchor="middle">3</text>
    
    <!-- Questions Board -->
    <rect x="10" y="230" width="220" height="40" rx="4" fill="transparent"/>
    <circle cx="30" cy="250" r="8" fill="#6B7280"/>
    <text x="50" y="255" font-family="Inter, sans-serif" font-size="14" fill="#1F2937">Questions Board</text>
    <circle cx="210" cy="250" r="10" fill="#EF4444"/>
    <text x="210" y="254" font-family="Inter, sans-serif" font-size="10" font-weight="bold" fill="white" text-anchor="middle">5</text>
    
    <!-- Our FAQs -->
    <rect x="10" y="280" width="220" height="40" rx="4" fill="transparent"/>
    <circle cx="30" cy="300" r="8" fill="#6B7280"/>
    <text x="50" y="305" font-family="Inter, sans-serif" font-size="14" fill="#1F2937">Our FAQs</text>
    
    <!-- My Team -->
    <rect x="10" y="330" width="220" height="40" rx="4" fill="transparent"/>
    <circle cx="30" cy="350" r="8" fill="#6B7280"/>
    <text x="50" y="355" font-family="Inter, sans-serif" font-size="14" fill="#1F2937">My Team</text>
    
    <!-- Question Registry -->
    <rect x="10" y="380" width="220" height="40" rx="4" fill="transparent"/>
    <circle cx="30" cy="400" r="8" fill="#6B7280"/>
    <text x="50" y="405" font-family="Inter, sans-serif" font-size="14" fill="#1F2937">Question Registry</text>
    
    <!-- Company Settings -->
    <rect x="10" y="430" width="220" height="40" rx="4" fill="transparent"/>
    <circle cx="30" cy="450" r="8" fill="#6B7280"/>
    <text x="50" y="455" font-family="Inter, sans-serif" font-size="14" fill="#1F2937">Company Settings</text>
    
    <!-- Profile/Account Settings -->
    <rect x="10" y="480" width="220" height="40" rx="4" fill="transparent"/>
    <circle cx="30" cy="500" r="8" fill="#6B7280"/>
    <text x="50" y="505" font-family="Inter, sans-serif" font-size="14" fill="#1F2937">Profile Settings</text>
    
    <!-- Give Feedback -->
    <rect x="10" y="530" width="220" height="40" rx="4" fill="transparent"/>
    <circle cx="30" cy="550" r="8" fill="#6B7280"/>
    <text x="50" y="555" font-family="Inter, sans-serif" font-size="14" fill="#1F2937">Give Feedback</text>
    
    <!-- Contact Us -->
    <rect x="10" y="580" width="220" height="40" rx="4" fill="transparent"/>
    <circle cx="30" cy="600" r="8" fill="#6B7280"/>
    <text x="50" y="605" font-family="Inter, sans-serif" font-size="14" fill="#1F2937">Contact Us</text>
    
    <!-- Help Center -->
    <rect x="10" y="630" width="220" height="40" rx="4" fill="transparent"/>
    <circle cx="30" cy="650" r="8" fill="#6B7280"/>
    <text x="50" y="655" font-family="Inter, sans-serif" font-size="14" fill="#1F2937">Help Center</text>
  </g>
  
  <!-- Upgrade to Premium CTA -->
  <rect x="20" y="700" width="200" height="60" rx="8" fill="#FEF3C7"/>
  <text x="120" y="730" font-family="Inter, sans-serif" font-size="14" font-weight="bold" fill="#D97706" text-anchor="middle">Upgrade to Premium</text>
  <text x="120" y="750" font-family="Inter, sans-serif" font-size="12" fill="#D97706" text-anchor="middle">Unlock all features</text>
  
  <!-- Top Header Navigation -->
  <rect x="240" y="0" width="1040" height="64" fill="#FFFFFF" stroke="#E5E7EB" stroke-width="1"/>
  
  <!-- Company Profile Dropdown -->
  <rect x="260" y="12" width="200" height="40" rx="20" fill="#F3F4F6"/>
  <circle cx="280" cy="32" r="15" fill="#1E40AF"/>
  <text x="285" y="37" font-family="Inter, sans-serif" font-size="12" font-weight="bold" fill="white" text-anchor="middle">A</text>
  <text x="350" y="37" font-family="Inter, sans-serif" font-size="14" fill="#1F2937">Acme Corp</text>
  <path d="M440 32 L430 22 L450 22 Z" fill="#6B7280"/>
  
  <!-- Action Buttons -->
  <rect x="600" y="12" width="140" height="40" rx="20" fill="#1E40AF"/>
  <text x="670" y="37" font-family="Inter, sans-serif" font-size="14" font-weight="medium" fill="white" text-anchor="middle">Create Event</text>
  
  <rect x="750" y="12" width="180" height="40" rx="20" fill="#3B82F6"/>
  <text x="840" y="37" font-family="Inter, sans-serif" font-size="14" font-weight="medium" fill="white" text-anchor="middle">Compose Announcement</text>
  
  <!-- Notifications Icon -->
  <circle cx="970" cy="32" r="20" fill="#F3F4F6"/>
  <path d="M970 22 L975 32 L965 32 Z" fill="#6B7280"/>
  <rect x="970" y="25" width="2" height="10" fill="#6B7280"/>
  <circle cx="970" cy="20" r="6" stroke="#EF4444" stroke-width="2" fill="none"/>
  
  <!-- Upcoming Events Indicator -->
  <circle cx="1020" cy="32" r="20" fill="#F3F4F6"/>
  <rect x="1013" y="25" width="14" height="14" rx="2" stroke="#6B7280" stroke-width="2" fill="none"/>
  <rect x="1017" y="22" width="2" height="3" fill="#6B7280"/>
  <rect x="1021" y="22" width="2" height="3" fill="#6B7280"/>
  <circle cx="1020" cy="20" r="6" stroke="#F59E0B" stroke-width="2" fill="none"/>
  
  <!-- User Profile Dropdown -->
  <circle cx="1070" cy="32" r="20" fill="#F3F4F6"/>
  <circle cx="1070" cy="32" r="15" fill="#6B7280"/>
  <text x="1070" y="37" font-family="Inter, sans-serif" font-size="12" font-weight="bold" fill="white" text-anchor="middle">JD</text>
  
  <!-- Main Content Area (Placeholder) -->
  <rect x="240" y="64" width="1040" height="736" fill="#F9FAFB"/>
  <text x="760" y="400" font-family="Inter, sans-serif" font-size="24" font-weight="bold" fill="#6B7280" text-anchor="middle">Dashboard Content Area</text>
  
  <!-- Company Profile Dropdown Menu (Shown) -->
  <rect x="260" y="60" width="220" height="120" rx="8" fill="#FFFFFF" stroke="#E5E7EB" stroke-width="1" filter="drop-shadow(0 4px 6px rgba(0, 0, 0, 0.1))"/>
  <line x1="270" y1="90" x2="470" y2="90" stroke="#E5E7EB" stroke-width="1"/>
  <text x="280" y="80" font-family="Inter, sans-serif" font-size="14" font-weight="medium" fill="#1F2937">Switch Company</text>
  <text x="280" y="115" font-family="Inter, sans-serif" font-size="14" fill="#1F2937">Company Settings</text>
  <text x="280" y="150" font-family="Inter, sans-serif" font-size="14" fill="#1F2937">Logout</text>
  
  <!-- User Profile Dropdown Menu (Shown) -->
  <rect x="950" y="60" width="220" height="80" rx="8" fill="#FFFFFF" stroke="#E5E7EB" stroke-width="1" filter="drop-shadow(0 4px 6px rgba(0, 0, 0, 0.1))"/>
  <text x="970" y="85" font-family="Inter, sans-serif" font-size="14" fill="#1F2937">Profile Settings</text>
  <line x1="960" y1="95" x2="1160" y2="95" stroke="#E5E7EB" stroke-width="1"/>
  <text x="970" y="120" font-family="Inter, sans-serif" font-size="14" fill="#1F2937">Logout</text>
</svg>