<?xml version="1.0" encoding="UTF-8"?>
<svg width="800" height="1200" viewBox="0 0 800 1200" xmlns="http://www.w3.org/2000/svg">
  <!-- Background -->
  <rect width="800" height="1200" fill="#F9FAFB" />
  
  <!-- Status Bar -->
  <rect x="0" y="0" width="800" height="40" fill="#1E40AF" />
  <text x="40" y="25" font-family="Inter, sans-serif" font-size="12" fill="#FFFFFF">9:41 AM</text>
  <text x="760" y="25" font-family="Inter, sans-serif" font-size="12" fill="#FFFFFF" text-anchor="end">100%</text>
  
  <!-- Header -->
  <rect x="0" y="40" width="800" height="60" fill="#FFFFFF" stroke="#E5E7EB" stroke-width="1" />
  <text x="40" y="80" font-family="Inter, sans-serif" font-size="24" font-weight="bold" fill="#1F2937">Notifications</text>
  
  <!-- Filter Bar -->
  <rect x="0" y="100" width="800" height="50" fill="#F3F4F6" />
  <text x="20" y="130" font-family="Inter, sans-serif" font-size="14" fill="#1F2937">All</text>
  <text x="80" y="130" font-family="Inter, sans-serif" font-size="14" fill="#6B7280">Announcements</text>
  <text x="220" y="130" font-family="Inter, sans-serif" font-size="14" fill="#6B7280">Events</text>
  <text x="300" y="130" font-family="Inter, sans-serif" font-size="14" fill="#6B7280">Responses</text>
  <text x="400" y="130" font-family="Inter, sans-serif" font-size="14" fill="#6B7280">Polls</text>
  
  <!-- Mark All Read Button -->
  <rect x="650" y="110" width="130" height="30" rx="15" fill="#FFFFFF" stroke="#E5E7EB" stroke-width="1" />
  <text x="715" y="130" font-family="Inter, sans-serif" font-size="12" fill="#6B7280" text-anchor="middle">Mark All Read</text>
  
  <!-- Today Section -->
  <text x="20" y="180" font-family="Inter, sans-serif" font-size="16" font-weight="bold" fill="#1F2937">Today</text>
  
  <!-- Notification 1 - Announcement (Unread) -->
  <rect x="20" y="200" width="760" height="100" rx="8" fill="#FFFFFF" stroke="#E5E7EB" stroke-width="1" />
  <rect x="20" y="200" width="4" height="100" fill="#3B82F6" />
  <circle cx="70" cy="250" r="30" fill="#3B82F6" />
  <text x="70" y="255" font-family="Inter, sans-serif" font-size="16" font-weight="bold" fill="#FFFFFF" text-anchor="middle">AC</text>
  <text x="120" y="230" font-family="Inter, sans-serif" font-size="16" font-weight="bold" fill="#1F2937">ACME Corporation</text>
  <text x="120" y="255" font-family="Inter, sans-serif" font-size="14" fill="#1F2937">New announcement: Quarterly Results Released</text>
  <text x="120" y="280" font-family="Inter, sans-serif" font-size="12" fill="#6B7280">2 hours ago</text>
  
  <!-- Notification Type Badge -->
  <rect x="650" y="220" width="110" height="25" rx="12.5" fill="#EFF6FF" />
  <text x="705" y="237" font-family="Inter, sans-serif" font-size="12" fill="#3B82F6" text-anchor="middle">Announcement</text>
  
  <!-- Notification 2 - Response (Unread) -->
  <rect x="20" y="320" width="760" height="100" rx="8" fill="#FFFFFF" stroke="#E5E7EB" stroke-width="1" />
  <rect x="20" y="320" width="4" height="100" fill="#3B82F6" />
  <circle cx="70" cy="370" r="30" fill="#F59E0B" />
  <text x="70" y="375" font-family="Inter, sans-serif" font-size="16" font-weight="bold" fill="#FFFFFF" text-anchor="middle">GH</text>
  <text x="120" y="350" font-family="Inter, sans-serif" font-size="16" font-weight="bold" fill="#1F2937">Global Health Ltd</text>
  <text x="120" y="375" font-family="Inter, sans-serif" font-size="14" fill="#1F2937">Responded to your question about their new product line</text>
  <text x="120" y="400" font-family="Inter, sans-serif" font-size="12" fill="#6B7280">3 hours ago</text>
  
  <!-- Notification Type Badge -->
  <rect x="650" y="340" width="110" height="25" rx="12.5" fill="#F0FDF4" />
  <text x="705" y="357" font-family="Inter, sans-serif" font-size="12" fill="#10B981" text-anchor="middle">Response</text>
  
  <!-- Yesterday Section -->
  <text x="20" y="450" font-family="Inter, sans-serif" font-size="16" font-weight="bold" fill="#1F2937">Yesterday</text>
  
  <!-- Notification 3 - Event Reminder (Read) -->
  <rect x="20" y="470" width="760" height="100" rx="8" fill="#FFFFFF" stroke="#E5E7EB" stroke-width="1" />
  <circle cx="70" cy="520" r="30" fill="#10B981" />
  <text x="70" y="525" font-family="Inter, sans-serif" font-size="16" font-weight="bold" fill="#FFFFFF" text-anchor="middle">TE</text>
  <text x="120" y="500" font-family="Inter, sans-serif" font-size="16" font-weight="bold" fill="#1F2937">Tech Enterprises Inc</text>
  <text x="120" y="525" font-family="Inter, sans-serif" font-size="14" fill="#6B7280">Event reminder: Product Launch on June 15th</text>
  <text x="120" y="550" font-family="Inter, sans-serif" font-size="12" fill="#6B7280">Yesterday, 2:30 PM</text>
  
  <!-- Notification Type Badge -->
  <rect x="650" y="490" width="110" height="25" rx="12.5" fill="#FEF3C7" />
  <text x="705" y="507" font-family="Inter, sans-serif" font-size="12" fill="#F59E0B" text-anchor="middle">Event</text>
  
  <!-- Notification 4 - Poll (Read) -->
  <rect x="20" y="590" width="760" height="100" rx="8" fill="#FFFFFF" stroke="#E5E7EB" stroke-width="1" />
  <circle cx="70" cy="640" r="30" fill="#3B82F6" />
  <text x="70" y="645" font-family="Inter, sans-serif" font-size="16" font-weight="bold" fill="#FFFFFF" text-anchor="middle">AC</text>
  <text x="120" y="620" font-family="Inter, sans-serif" font-size="16" font-weight="bold" fill="#1F2937">ACME Corporation</text>
  <text x="120" y="645" font-family="Inter, sans-serif" font-size="14" fill="#6B7280">New poll: Which topic would you like us to focus on?</text>
  <text x="120" y="670" font-family="Inter, sans-serif" font-size="12" fill="#6B7280">Yesterday, 10:15 AM</text>
  
  <!-- Notification Type Badge -->
  <rect x="650" y="610" width="110" height="25" rx="12.5" fill="#DCFCE7" />
  <text x="705" y="627" font-family="Inter, sans-serif" font-size="12" fill="#10B981" text-anchor="middle">Poll</text>
  
  <!-- This Week Section -->
  <text x="20" y="720" font-family="Inter, sans-serif" font-size="16" font-weight="bold" fill="#1F2937">This Week</text>
  
  <!-- Notification 5 - Announcement (Read) -->
  <rect x="20" y="740" width="760" height="100" rx="8" fill="#FFFFFF" stroke="#E5E7EB" stroke-width="1" />
  <circle cx="70" cy="790" r="30" fill="#F59E0B" />
  <text x="70" y="795" font-family="Inter, sans-serif" font-size="16" font-weight="bold" fill="#FFFFFF" text-anchor="middle">GH</text>
  <text x="120" y="770" font-family="Inter, sans-serif" font-size="16" font-weight="bold" fill="#1F2937">Global Health Ltd</text>
  <text x="120" y="795" font-family="Inter, sans-serif" font-size="14" fill="#6B7280">New announcement: Annual Shareholder Meeting</text>
  <text x="120" y="820" font-family="Inter, sans-serif" font-size="12" fill="#6B7280">Monday, 9:00 AM</text>
  
  <!-- Notification Type Badge -->
  <rect x="650" y="760" width="110" height="25" rx="12.5" fill="#EFF6FF" />
  <text x="705" y="777" font-family="Inter, sans-serif" font-size="12" fill="#3B82F6" text-anchor="middle">Announcement</text>
  
  <!-- Notification 6 - Response (Read) -->
  <rect x="20" y="860" width="760" height="100" rx="8" fill="#FFFFFF" stroke="#E5E7EB" stroke-width="1" />
  <circle cx="70" cy="910" r="30" fill="#10B981" />
  <text x="70" y="915" font-family="Inter, sans-serif" font-size="16" font-weight="bold" fill="#FFFFFF" text-anchor="middle">TE</text>
  <text x="120" y="890" font-family="Inter, sans-serif" font-size="16" font-weight="bold" fill="#1F2937">Tech Enterprises Inc</text>
  <text x="120" y="915" font-family="Inter, sans-serif" font-size="14" fill="#6B7280">Responded to your question about their sustainability initiatives</text>
  <text x="120" y="940" font-family="Inter, sans-serif" font-size="12" fill="#6B7280">Sunday, 3:45 PM</text>
  
  <!-- Notification Type Badge -->
  <rect x="650" y="880" width="110" height="25" rx="12.5" fill="#F0FDF4" />
  <text x="705" y="897" font-family="Inter, sans-serif" font-size="12" fill="#10B981" text-anchor="middle">Response</text>
  
  <!-- Settings Button -->
  <rect x="20" y="980" width="760" height="60" rx="8" fill="#F3F4F6" />
  <text x="400" y="1015" font-family="Inter, sans-serif" font-size="16" fill="#6B7280" text-anchor="middle">Notification Settings</text>
  
  <!-- Navigation Bar -->
  <rect x="0" y="1120" width="800" height="80" fill="#FFFFFF" stroke="#E5E7EB" stroke-width="1" />
  
  <!-- Home Tab -->
  <circle cx="120" cy="1150" r="30" fill="#FFFFFF" />
  <rect x="105" y="1140" width="30" height="30" fill="#6B7280" rx="4" />
  <text x="120" y="1190" font-family="Inter, sans-serif" font-size="12" fill="#6B7280" text-anchor="middle">Home</text>
  
  <!-- Companies Tab -->
  <circle cx="280" cy="1150" r="30" fill="#FFFFFF" />
  <rect x="265" y="1140" width="30" height="30" fill="#6B7280" rx="4" />
  <text x="280" y="1190" font-family="Inter, sans-serif" font-size="12" fill="#6B7280" text-anchor="middle">Companies</text>
  
  <!-- Notifications Tab (Active) -->
  <circle cx="440" cy="1150" r="30" fill="#EFF6FF" />
  <circle cx="440" cy="1150" r="15" stroke="#3B82F6" stroke-width="2" fill="none" />
  <text x="440" y="1190" font-family="Inter, sans-serif" font-size="12" font-weight="bold" fill="#3B82F6" text-anchor="middle">Notifications</text>
  
  <!-- Profile Tab -->
  <circle cx="600" cy="1150" r="30" fill="#FFFFFF" />
  <circle cx="600" cy="1150" r="15" stroke="#6B7280" stroke-width="2" fill="none" />
  <circle cx="600" cy="1145" r="5" stroke="#6B7280" stroke-width="2" fill="none" />
  <path d="M585,1160 Q600,1170 615,1160" stroke="#6B7280" stroke-width="2" fill="none" />
  <text x="600" y="1190" font-family="Inter, sans-serif" font-size="12" fill="#6B7280" text-anchor="middle">Profile</text>
</svg>