<?xml version="1.0" encoding="UTF-8"?>
<svg width="1200" height="1600" viewBox="0 0 1200 1600" xmlns="http://www.w3.org/2000/svg">
  <!-- Background -->
  <rect width="1200" height="1600" fill="#f8f9fa"/>
  
  <!-- Left Sidebar Navigation -->
  <rect x="0" y="0" width="220" height="1600" fill="#2c3e50"/>
  
  <!-- Company Logo -->
  <rect x="20" y="20" width="180" height="60" rx="5" fill="#34495e"/>
  <text x="110" y="55" font-family="Arial" font-size="18" fill="white" text-anchor="middle">DIOLOG</text>
  
  <!-- Sidebar Menu Items -->
  <rect x="20" y="120" width="180" height="40" rx="5" fill="#34495e"/>
  <text x="50" y="145" font-family="Arial" font-size="14" fill="white">Dashboard</text>
  
  <rect x="20" y="170" width="180" height="40" rx="5" fill="#34495e"/>
  <text x="50" y="195" font-family="Arial" font-size="14" fill="white">Calendar/Events</text>
  
  <rect x="20" y="220" width="180" height="40" rx="5" fill="#34495e"/>
  <text x="50" y="245" font-family="Arial" font-size="14" fill="white">Announcements</text>
  
  <rect x="20" y="270" width="180" height="40" rx="5" fill="#3498db"/>
  <text x="50" y="295" font-family="Arial" font-size="14" fill="white">Questions Board</text>
  <circle cx="190" y="285" r="10" fill="#e74c3c"/>
  <text x="190" y="290" font-family="Arial" font-size="12" fill="white" text-anchor="middle">5</text>
  
  <rect x="20" y="320" width="180" height="40" rx="5" fill="#34495e"/>
  <text x="50" y="345" font-family="Arial" font-size="14" fill="white">Our FAQs</text>
  
  <rect x="20" y="370" width="180" height="40" rx="5" fill="#34495e"/>
  <text x="50" y="395" font-family="Arial" font-size="14" fill="white">My Team</text>
  
  <rect x="20" y="420" width="180" height="40" rx="5" fill="#34495e"/>
  <text x="50" y="445" font-family="Arial" font-size="14" fill="white">Question Registry</text>
  
  <!-- Upgrade to Premium Button -->
  <rect x="20" y="1500" width="180" height="50" rx="5" fill="#f39c12"/>
  <text x="110" y="1530" font-family="Arial" font-size="14" fill="white" text-anchor="middle">UPGRADE TO PREMIUM</text>
  
  <!-- Top Header -->
  <rect x="220" y="0" width="980" height="70" fill="white" stroke="#e0e0e0" stroke-width="1"/>
  
  <!-- Company Profile Dropdown -->
  <rect x="240" y="15" width="200" height="40" rx="20" fill="#f8f9fa" stroke="#e0e0e0" stroke-width="1"/>
  <circle cx="260" y="35" r="15" fill="#3498db"/>
  <text x="310" y="40" font-family="Arial" font-size="14" fill="#333">Acme Corporation</text>
  <text x="420" y="40" font-family="Arial" font-size="14" fill="#333">▼</text>
  
  <!-- Notification Icon -->
  <circle cx="1100" y="35" r="20" fill="#f8f9fa" stroke="#e0e0e0" stroke-width="1"/>
  <text x="1100" y="40" font-family="Arial" font-size="14" fill="#333" text-anchor="middle">🔔</text>
  
  <!-- User Profile Dropdown -->
  <circle cx="1150" y="35" r="20" fill="#3498db"/>
  <text x="1150" y="40" font-family="Arial" font-size="14" fill="white" text-anchor="middle">JD</text>
  
  <!-- Page Header -->
  <rect x="220" y="70" width="980" height="60" fill="white"/>
  <text x="260" y="110" font-family="Arial" font-size="24" font-weight="bold" fill="#333">Question Details</text>
  
  <!-- Back to Board Button -->
  <rect x="1000" y="85" width="160" height="40" rx="5" fill="#f8f9fa" stroke="#e0e0e0" stroke-width="1"/>
  <text x="1030" y="110" font-family="Arial" font-size="14" fill="#333">← Back to Board</text>
  
  <!-- Main Content Area -->
  <rect x="240" y="150" width="940" height="1430" fill="white" stroke="#e0e0e0" stroke-width="1" rx="5"/>
  
  <!-- Question Information Section -->
  <rect x="270" y="180" width="880" height="200" fill="#f8f9fa" stroke="#e0e0e0" stroke-width="1" rx="5"/>
  
  <!-- Question Title -->
  <text x="290" y="210" font-family="Arial" font-size="20" font-weight="bold" fill="#333">Q3 Results</text>
  
  <!-- Status Toggle Buttons -->
  <rect x="290" y="230" width="120" height="30" rx="15" fill="#e74c3c"/>
  <text x="350" y="250" font-family="Arial" font-size="12" fill="white" text-anchor="middle">Outstanding</text>
  
  <rect x="420" y="230" width="120" height="30" rx="15" fill="#f8f9fa" stroke="#e0e0e0" stroke-width="1"/>
  <text x="480" y="250" font-family="Arial" font-size="12" fill="#333" text-anchor="middle">Active</text>
  
  <rect x="550" y="230" width="120" height="30" rx="15" fill="#f8f9fa" stroke="#e0e0e0" stroke-width="1"/>
  <text x="610" y="250" font-family="Arial" font-size="12" fill="#333" text-anchor="middle">Closed</text>
  
  <!-- Question Text -->
  <rect x="290" y="270" width="840" height="70" fill="white" stroke="#e0e0e0" stroke-width="1" rx="5"/>
  <text x="300" y="290" font-family="Arial" font-size="14" fill="#333">Can you provide more details about the Q3 financial results? Specifically, I'm interested</text>
  <text x="300" y="310" font-family="Arial" font-size="14" fill="#333">in understanding the revenue growth in the Asia-Pacific region and the impact of recent</text>
  <text x="300" y="330" font-family="Arial" font-size="14" fill="#333">acquisitions on the overall performance.</text>
  
  <!-- Category Tag -->
  <rect x="290" y="350" width="80" height="25" rx="12.5" fill="#3498db" opacity="0.2"/>
  <text x="330" y="367" font-family="Arial" font-size="12" fill="#3498db" text-anchor="middle">Financial</text>
  
  <!-- Question Metadata -->
  <text x="390" y="367" font-family="Arial" font-size="12" fill="#777">Asked by John Smith • 2 days ago</text>
  
  <!-- Investor Details Section -->
  <rect x="270" y="400" width="880" height="150" fill="#f8f9fa" stroke="#e0e0e0" stroke-width="1" rx="5"/>
  <text x="290" y="430" font-family="Arial" font-size="16" font-weight="bold" fill="#333">Investor Details</text>
  
  <!-- Investor Profile -->
  <circle cx="320" y="470" r="30" fill="#3498db"/>
  <text x="320" y="475" font-family="Arial" font-size="16" fill="white" text-anchor="middle">JS</text>
  
  <!-- Investor Information -->
  <text x="370" y="460" font-family="Arial" font-size="16" font-weight="bold" fill="#333">John Smith</text>
  <text x="370" y="480" font-family="Arial" font-size="14" fill="#777">john.smith@example.com</text>
  
  <!-- Investor Type Badge -->
  <rect x="370" y="490" width="100" height="25" rx="12.5" fill="#2ecc71" opacity="0.2"/>
  <text x="420" y="507" font-family="Arial" font-size="12" fill="#2ecc71" text-anchor="middle">Shareholder</text>
  
  <!-- Question Count -->
  <text x="600" y="460" font-family="Arial" font-size="14" fill="#333">Questions: 3</text>
  
  <!-- Join Date -->
  <text x="600" y="480" font-family="Arial" font-size="14" fill="#333">Joined: January 15, 2023</text>
  
  <!-- Assignment & Categorization Section -->
  <rect x="270" y="570" width="880" height="100" fill="#f8f9fa" stroke="#e0e0e0" stroke-width="1" rx="5"/>
  <text x="290" y="600" font-family="Arial" font-size="16" font-weight="bold" fill="#333">Assignment & Categorization</text>
  
  <!-- Team Member Assignment Dropdown -->
  <rect x="290" y="620" width="200" height="35" rx="5" fill="white" stroke="#e0e0e0" stroke-width="1"/>
  <text x="310" y="642" font-family="Arial" font-size="14" fill="#333">Assign to team member</text>
  <text x="470" y="642" font-family="Arial" font-size="14" fill="#333">▼</text>
  
  <!-- Category Tags -->
  <rect x="510" y="620" width="80" height="35" rx="17.5" fill="#3498db" opacity="0.2"/>
  <text x="550" y="642" font-family="Arial" font-size="12" fill="#3498db" text-anchor="middle">Financial</text>
  
  <rect x="600" y="620" width="80" height="35" rx="17.5" fill="#f8f9fa" stroke="#e0e0e0" stroke-width="1"/>
  <text x="640" y="642" font-family="Arial" font-size="12" fill="#777" text-anchor="middle">+ Add</text>
  
  <!-- Question History/Activity Log -->
  <rect x="270" y="690" width="880" height="200" fill="#f8f9fa" stroke="#e0e0e0" stroke-width="1" rx="5"/>
  <text x="290" y="720" font-family="Arial" font-size="16" font-weight="bold" fill="#333">Question History</text>
  
  <!-- Activity Log Entries -->
  <line x1="290" y1="740" x2="1130" y2="740" stroke="#e0e0e0" stroke-width="1"/>
  
  <text x="290" y="765" font-family="Arial" font-size="14" fill="#333">Question received</text>
  <text x="1050" y="765" font-family="Arial" font-size="14" fill="#777" text-anchor="end">2 days ago</text>
  
  <line x1="290" y1="780" x2="1130" y2="780" stroke="#e0e0e0" stroke-width="1"/>
  
  <text x="290" y="805" font-family="Arial" font-size="14" fill="#333">Status changed to Outstanding</text>
  <text x="1050" y="805" font-family="Arial" font-size="14" fill="#777" text-anchor="end">2 days ago</text>
  
  <line x1="290" y1="820" x2="1130" y2="820" stroke="#e0e0e0" stroke-width="1"/>
  
  <text x="290" y="845" font-family="Arial" font-size="14" fill="#333">Category set to Financial</text>
  <text x="1050" y="845" font-family="Arial" font-size="14" fill="#777" text-anchor="end">2 days ago</text>
  
  <line x1="290" y1="860" x2="1130" y2="860" stroke="#e0e0e0" stroke-width="1"/>
  
  <!-- Response Area -->
  <rect x="270" y="910" width="880" height="350" fill="#f8f9fa" stroke="#e0e0e0" stroke-width="1" rx="5"/>
  <text x="290" y="940" font-family="Arial" font-size="16" font-weight="bold" fill="#333">Response</text>
  
  <!-- Response Template Dropdown -->
  <rect x="290" y="960" width="250" height="35" rx="5" fill="white" stroke="#e0e0e0" stroke-width="1"/>
  <text x="310" y="982" font-family="Arial" font-size="14" fill="#333">Select response template</text>
  <text x="520" y="982" font-family="Arial" font-size="14" fill="#333">▼</text>
  
  <!-- Rich Text Editor -->
  <rect x="290" y="1010" width="840" height="200" fill="white" stroke="#e0e0e0" stroke-width="1" rx="5"/>
  
  <!-- Text Formatting Toolbar -->
  <rect x="290" y="1010" width="840" height="40" fill="#f8f9fa" stroke="#e0e0e0" stroke-width="1" rx="5 5 0 0"/>
  <text x="310" y="1035" font-family="Arial" font-size="14" fill="#333">B</text>
  <text x="330" y="1035" font-family="Arial" font-size="14" fill="#333" font-style="italic">I</text>
  <text x="350" y="1035" font-family="Arial" font-size="14" fill="#333" text-decoration="underline">U</text>
  <text x="370" y="1035" font-family="Arial" font-size="14" fill="#333">A</text>
  <text x="390" y="1035" font-family="Arial" font-size="14" fill="#333">•</text>
  <text x="410" y="1035" font-family="Arial" font-size="14" fill="#333">1.</text>
  <text x="430" y="1035" font-family="Arial" font-size="14" fill="#333">Link</text>
  
  <!-- Editor Content Area -->
  <text x="310" y="1070" font-family="Arial" font-size="14" fill="#777">Type your response here...</text>
  
  <!-- Action Buttons -->
  <rect x="290" y="1230" width="180" height="40" rx="5" fill="#3498db"/>
  <text x="380" y="1255" font-family="Arial" font-size="14" fill="white" text-anchor="middle">Send Response</text>
  
  <rect x="490" y="1230" width="150" height="40" rx="5" fill="#f8f9fa" stroke="#e0e0e0" stroke-width="1"/>
  <text x="565" y="1255" font-family="Arial" font-size="14" fill="#333" text-anchor="middle">Close Question</text>
  
  <rect x="660" y="1230" width="150" height="40" rx="5" fill="#f8f9fa" stroke="#e0e0e0" stroke-width="1"/>
  <text x="735" y="1255" font-family="Arial" font-size="14" fill="#333" text-anchor="middle">Add to Registry</text>
</svg>