<?xml version="1.0" encoding="UTF-8"?>
<svg width="1280" height="800" viewBox="0 0 1280 800" fill="none" xmlns="http://www.w3.org/2000/svg">
  <!-- Background -->
  <rect width="1280" height="800" fill="#F9FAFB"/>
  
  <!-- Sidebar Navigation -->
  <rect x="0" y="0" width="240" height="800" fill="#FFFFFF" stroke="#E5E7EB" stroke-width="1"/>
  
  <!-- Sidebar Logo -->
  <rect x="24" y="24" width="192" height="40" rx="4" fill="#1E40AF" opacity="0.9"/>
  <text x="70" y="50" font-family="Inter, sans-serif" font-size="20" font-weight="bold" fill="white">DIOLOG</text>
  
  <!-- Sidebar Menu Items -->
  <text x="56" y="112" font-family="Inter, sans-serif" font-size="14" fill="#1F2937">Dashboard</text>
  <circle cx="32" cy="108" r="8" fill="#6B7280" opacity="0.8"/>
  
  <text x="56" y="160" font-family="Inter, sans-serif" font-size="14" fill="#1F2937">Calendar/Events</text>
  <circle cx="32" cy="156" r="8" fill="#6B7280" opacity="0.8"/>
  
  <rect x="16" y="192" width="208" height="40" rx="4" fill="#3B82F6" opacity="0.1"/>
  <text x="56" y="216" font-family="Inter, sans-serif" font-size="14" fill="#1E40AF">Announcements</text>
  <circle cx="32" cy="212" r="8" fill="#1E40AF" opacity="0.8"/>
  
  <text x="56" y="264" font-family="Inter, sans-serif" font-size="14" fill="#1F2937">Questions Board</text>
  <circle cx="32" cy="260" r="8" fill="#6B7280" opacity="0.8"/>
  <circle cx="180" cy="260" r="10" fill="#EF4444"/>
  <text x="177" y="264" font-family="Inter, sans-serif" font-size="12" font-weight="bold" fill="white">5</text>
  
  <text x="56" y="312" font-family="Inter, sans-serif" font-size="14" fill="#1F2937">Our FAQs</text>
  <circle cx="32" cy="308" r="8" fill="#6B7280" opacity="0.8"/>
  
  <text x="56" y="360" font-family="Inter, sans-serif" font-size="14" fill="#1F2937">My Team</text>
  <circle cx="32" cy="356" r="8" fill="#6B7280" opacity="0.8"/>
  
  <text x="56" y="408" font-family="Inter, sans-serif" font-size="14" fill="#1F2937">Question Registry</text>
  <circle cx="32" cy="404" r="8" fill="#6B7280" opacity="0.8"/>
  
  <text x="56" y="456" font-family="Inter, sans-serif" font-size="14" fill="#1F2937">Analytics</text>
  <circle cx="32" cy="452" r="8" fill="#6B7280" opacity="0.8"/>
  
  <text x="56" y="504" font-family="Inter, sans-serif" font-size="14" fill="#1F2937">Settings</text>
  <circle cx="32" cy="500" r="8" fill="#6B7280" opacity="0.8"/>
  
  <text x="56" y="552" font-family="Inter, sans-serif" font-size="14" fill="#1F2937">Give Feedback</text>
  <circle cx="32" cy="548" r="8" fill="#6B7280" opacity="0.8"/>
  
  <text x="56" y="600" font-family="Inter, sans-serif" font-size="14" fill="#1F2937">Contact Us</text>
  <circle cx="32" cy="596" r="8" fill="#6B7280" opacity="0.8"/>
  
  <!-- Upgrade to Premium CTA -->
  <rect x="24" y="648" width="192" height="48" rx="8" fill="#F59E0B" opacity="0.9"/>
  <text x="64" y="678" font-family="Inter, sans-serif" font-size="14" font-weight="bold" fill="white">Upgrade to Premium</text>
  
  <!-- Top Header -->
  <rect x="240" y="0" width="1040" height="64" fill="#FFFFFF" stroke="#E5E7EB" stroke-width="1"/>
  
  <!-- Company Profile Dropdown -->
  <rect x="264" y="16" width="200" height="32" rx="16" fill="#F9FAFB" stroke="#E5E7EB" stroke-width="1"/>
  <circle cx="280" cy="32" r="12" fill="#3B82F6"/>
  <text x="300" y="36" font-family="Inter, sans-serif" font-size="14" fill="#1F2937">Acme Corporation</text>
  <path d="M448 32 L456 40 L464 32" stroke="#6B7280" stroke-width="2" fill="none"/>
  
  <!-- Quick Action Button -->
  <rect x="840" y="16" width="200" height="32" rx="16" fill="#1E40AF"/>
  <text x="860" y="36" font-family="Inter, sans-serif" font-size="14" font-weight="bold" fill="white">Compose Announcement</text>
  
  <!-- User Profile & Notifications -->
  <circle cx="1060" cy="32" r="16" fill="#F9FAFB" stroke="#E5E7EB" stroke-width="1"/>
  <path d="M1056 32 L1060 36 L1064 32" stroke="#6B7280" stroke-width="2" fill="none"/>
  
  <circle cx="1100" cy="32" r="16" fill="#F9FAFB" stroke="#E5E7EB" stroke-width="1"/>
  <path d="M1100 26 L1100 32 M1096 36 L1104 36" stroke="#6B7280" stroke-width="2"/>
  
  <circle cx="1140" cy="32" r="16" fill="#F9FAFB" stroke="#E5E7EB" stroke-width="1"/>
  <circle cx="1140" cy="32" r="8" fill="#6B7280" opacity="0.2"/>
  <text x="1138" y="36" font-family="Inter, sans-serif" font-size="12" font-weight="bold" fill="#1F2937">J</text>
  
  <!-- Main Content Area -->
  <rect x="264" y="88" width="992" height="48" rx="8" fill="#FFFFFF" stroke="#E5E7EB" stroke-width="1"/>
  <text x="288" y="118" font-family="Inter, sans-serif" font-size="18" font-weight="bold" fill="#1F2937">Announcements</text>
  
  <!-- Search and Filter -->
  <rect x="800" y="96" width="240" height="32" rx="16" fill="#FFFFFF" stroke="#E5E7EB" stroke-width="1"/>
  <text x="824" y="118" font-family="Inter, sans-serif" font-size="14" fill="#6B7280">Search announcements...</text>
  <circle cx="1020" cy="112" r="8" fill="#6B7280" opacity="0.2"/>
  <path d="M1026 118 L1032 124" stroke="#6B7280" stroke-width="2"/>
  
  <rect x="1060" y="96" width="100" height="32" rx="16" fill="#FFFFFF" stroke="#E5E7EB" stroke-width="1"/>
  <text x="1080" y="118" font-family="Inter, sans-serif" font-size="14" fill="#6B7280">Filter</text>
  <path d="M1140 106 L1148 114 L1140 122" stroke="#6B7280" stroke-width="2" fill="none"/>
  
  <!-- Tabs -->
  <rect x="264" y="152" width="120" height="40" rx="8 8 0 0" fill="#3B82F6" opacity="0.1"/>
  <text x="304" y="176" font-family="Inter, sans-serif" font-size="14" font-weight="bold" fill="#1E40AF">All</text>
  
  <rect x="384" y="152" width="120" height="40" rx="0" fill="#FFFFFF"/>
  <text x="424" y="176" font-family="Inter, sans-serif" font-size="14" fill="#6B7280">Published</text>
  
  <rect x="504" y="152" width="120" height="40" rx="0" fill="#FFFFFF"/>
  <text x="544" y="176" font-family="Inter, sans-serif" font-size="14" fill="#6B7280">Scheduled</text>
  
  <rect x="624" y="152" width="120" height="40" rx="0 8 0 0" fill="#FFFFFF"/>
  <text x="664" y="176" font-family="Inter, sans-serif" font-size="14" fill="#6B7280">Drafts</text>
  
  <line x1="264" y1="192" x2="1256" y2="192" stroke="#E5E7EB" stroke-width="1"/>
  
  <!-- Announcements List -->
  <rect x="264" y="192" width="992" height="608" fill="#FFFFFF"/>
  
  <!-- Announcement 1 (Pinned) -->
  <rect x="264" y="192" width="992" height="120" fill="#F9FAFB" stroke="#E5E7EB" stroke-width="1"/>
  <rect x="264" y="192" width="8" height="120" fill="#F59E0B"/>
  
  <text x="288" y="222" font-family="Inter, sans-serif" font-size="16" font-weight="bold" fill="#1F2937">Q3 Financial Results</text>
  <rect x="460" y="206" width="80" height="24" rx="12" fill="#F59E0B" opacity="0.1"/>
  <text x="480" y="222" font-family="Inter, sans-serif" font-size="12" fill="#F59E0B">Pinned</text>
  
  <text x="288" y="250" font-family="Inter, sans-serif" font-size="14" fill="#6B7280">We are pleased to announce our Q3 financial results, which exceeded market expectations with a 15% increase in revenue...</text>
  
  <text x="288" y="280" font-family="Inter, sans-serif" font-size="12" fill="#6B7280">Published: Oct 31, 2023 • Views: 245 • Visibility: Investors</text>
  
  <rect x="1100" y="232" width="32" height="32" rx="16" fill="#FFFFFF" stroke="#E5E7EB" stroke-width="1"/>
  <text x="1110" y="252" font-family="Inter, sans-serif" font-size="16" fill="#6B7280">⋮</text>
  
  <rect x="1150" y="232" width="80" height="32" rx="16" fill="#FFFFFF" stroke="#E5E7EB" stroke-width="1"/>
  <text x="1170" y="252" font-family="Inter, sans-serif" font-size="14" fill="#6B7280">Edit</text>
  
  <!-- Announcement 2 (ASX) -->
  <rect x="264" y="312" width="992" height="120" fill="#FFFFFF" stroke="#E5E7EB" stroke-width="1"/>
  <rect x="264" y="312" width="8" height="120" fill="#3B82F6"/>
  
  <text x="288" y="342" font-family="Inter, sans-serif" font-size="16" font-weight="bold" fill="#1F2937">New Product Launch Announcement</text>
  <rect x="520" y="326" width="80" height="24" rx="12" fill="#3B82F6" opacity="0.1"/>
  <text x="540" y="342" font-family="Inter, sans-serif" font-size="12" fill="#3B82F6">ASX</text>
  
  <text x="288" y="370" font-family="Inter, sans-serif" font-size="14" fill="#6B7280">Acme Corporation is excited to announce the launch of our new flagship product, which will be available to customers starting...</text>
  
  <text x="288" y="400" font-family="Inter, sans-serif" font-size="12" fill="#6B7280">Published: Oct 28, 2023 • Views: 189 • Visibility: Investors</text>
  
  <rect x="1100" y="352" width="32" height="32" rx="16" fill="#FFFFFF" stroke="#E5E7EB" stroke-width="1"/>
  <text x="1110" y="372" font-family="Inter, sans-serif" font-size="16" fill="#6B7280">⋮</text>
  
  <rect x="1150" y="352" width="80" height="32" rx="16" fill="#FFFFFF" stroke="#E5E7EB" stroke-width="1"/>
  <text x="1170" y="372" font-family="Inter, sans-serif" font-size="14" fill="#6B7280">Edit</text>
  
  <!-- Announcement 3 -->
  <rect x="264" y="432" width="992" height="120" fill="#FFFFFF" stroke="#E5E7EB" stroke-width="1"/>
  <rect x="264" y="432" width="8" height="120" fill="#3B82F6"/>
  
  <text x="288" y="462" font-family="Inter, sans-serif" font-size="16" font-weight="bold" fill="#1F2937">Annual General Meeting Notice</text>
  
  <text x="288" y="490" font-family="Inter, sans-serif" font-size="14" fill="#6B7280">Notice is hereby given that the Annual General Meeting of Acme Corporation will be held on November 30, 2023 at 11:00 AM...</text>
  
  <text x="288" y="520" font-family="Inter, sans-serif" font-size="12" fill="#6B7280">Published: Oct 25, 2023 • Views: 312 • Visibility: Investors</text>
  
  <rect x="1100" y="472" width="32" height="32" rx="16" fill="#FFFFFF" stroke="#E5E7EB" stroke-width="1"/>
  <text x="1110" y="492" font-family="Inter, sans-serif" font-size="16" fill="#6B7280">⋮</text>
  
  <rect x="1150" y="472" width="80" height="32" rx="16" fill="#FFFFFF" stroke="#E5E7EB" stroke-width="1"/>
  <text x="1170" y="492" font-family="Inter, sans-serif" font-size="14" fill="#6B7280">Edit</text>
  
  <!-- Announcement 4 (Scheduled) -->
  <rect x="264" y="552" width="992" height="120" fill="#FFFFFF" stroke="#E5E7EB" stroke-width="1"/>
  <rect x="264" y="552" width="8" height="120" fill="#6B7280"/>
  
  <text x="288" y="582" font-family="Inter, sans-serif" font-size="16" font-weight="bold" fill="#1F2937">Executive Leadership Changes</text>
  <rect x="500" y="566" width="100" height="24" rx="12" fill="#6B7280" opacity="0.1"/>
  <text x="520" y="582" font-family="Inter, sans-serif" font-size="12" fill="#6B7280">Scheduled</text>
  
  <text x="288" y="610" font-family="Inter, sans-serif" font-size="14" fill="#6B7280">Acme Corporation announces changes to its executive leadership team, effective January 1, 2024. The Board of Directors has...</text>
  
  <text x="288" y="640" font-family="Inter, sans-serif" font-size="12" fill="#6B7280">Scheduled: Nov 15, 2023 • Visibility: Investors</text>
  
  <rect x="1100" y="592" width="32" height="32" rx="16" fill="#FFFFFF" stroke="#E5E7EB" stroke-width="1"/>
  <text x="1110" y="612" font-family="Inter, sans-serif" font-size="16" fill="#6B7280">⋮</text>
  
  <rect x="1150" y="592" width="80" height="32" rx="16" fill="#FFFFFF" stroke="#E5E7EB" stroke-width="1"/>
  <text x="1170" y="612" font-family="Inter, sans-serif" font-size="14" fill="#6B7280">Edit</text>
  
  <!-- Announcement 5 (Draft) -->
  <rect x="264" y="672" width="992" height="120" fill="#FFFFFF" stroke="#E5E7EB" stroke-width="1"/>
  <rect x="264" y="672" width="8" height="120" fill="#6B7280" opacity="0.5"/>
  
  <text x="288" y="702" font-family="Inter, sans-serif" font-size="16" font-weight="bold" fill="#1F2937">Sustainability Initiatives Update</text>
  <rect x="520" y="686" width="80" height="24" rx="12" fill="#6B7280" opacity="0.1"/>
  <text x="540" y="702" font-family="Inter, sans-serif" font-size="12" fill="#6B7280">Draft</text>
  
  <text x="288" y="730" font-family="Inter, sans-serif" font-size="14" fill="#6B7280">Acme Corporation is committed to sustainability and environmental responsibility. We are pleased to share our progress on...</text>
  
  <text x="288" y="760" font-family="Inter, sans-serif" font-size="12" fill="#6B7280">Last edited: Oct 20, 2023 • Visibility: Investors</text>
  
  <rect x="1100" y="712" width="32" height="32" rx="16" fill="#FFFFFF" stroke="#E5E7EB" stroke-width="1"/>
  <text x="1110" y="732" font-family="Inter, sans-serif" font-size="16" fill="#6B7280">⋮</text>
  
  <rect x="1150" y="712" width="80" height="32" rx="16" fill="#FFFFFF" stroke="#E5E7EB" stroke-width="1"/>
  <text x="1170" y="732" font-family="Inter, sans-serif" font-size="14" fill="#6B7280">Edit</text>
</svg>