<?xml version="1.0" encoding="UTF-8"?>
<svg width="1200" height="900" viewBox="0 0 1200 900" xmlns="http://www.w3.org/2000/svg">
  <!-- Background -->
  <rect width="1200" height="900" fill="#F9FAFB"/>
  
  <!-- Sidebar Navigation -->
  <rect x="0" y="0" width="240" height="900" fill="#1E40AF"/>
  
  <!-- Sidebar Logo -->
  <rect x="20" y="20" width="200" height="60" rx="8" fill="#3B82F6"/>
  <text x="120" y="55" font-family="Inter, sans-serif" font-size="24" font-weight="bold" fill="white" text-anchor="middle">DIOLOG</text>
  
  <!-- Sidebar Menu Items -->
  <rect x="20" y="120" width="200" height="40" rx="4" fill="#3B82F6" opacity="0.2"/>
  <text x="60" y="145" font-family="Inter, sans-serif" font-size="14" fill="white">Dashboard</text>
  
  <rect x="20" y="170" width="200" height="40" rx="4" fill="#3B82F6" opacity="0.2"/>
  <text x="60" y="195" font-family="Inter, sans-serif" font-size="14" fill="white">Calendar/Events</text>
  
  <rect x="20" y="220" width="200" height="40" rx="4" fill="#3B82F6" opacity="0.2"/>
  <text x="60" y="245" font-family="Inter, sans-serif" font-size="14" fill="white">Announcements</text>
  
  <rect x="20" y="270" width="200" height="40" rx="4" fill="#3B82F6" opacity="0.2"/>
  <text x="60" y="295" font-family="Inter, sans-serif" font-size="14" fill="white">Questions Board</text>
  <circle cx="190" cy="290" r="12" fill="#EF4444"/>
  <text x="190" y="295" font-family="Inter, sans-serif" font-size="12" font-weight="bold" fill="white" text-anchor="middle">5</text>
  
  <rect x="20" y="320" width="200" height="40" rx="4" fill="#3B82F6" opacity="0.2"/>
  <text x="60" y="345" font-family="Inter, sans-serif" font-size="14" fill="white">Our FAQs</text>
  
  <rect x="20" y="370" width="200" height="40" rx="4" fill="#3B82F6"/>
  <text x="60" y="395" font-family="Inter, sans-serif" font-size="14" font-weight="bold" fill="white">My Team</text>
  
  <rect x="20" y="420" width="200" height="40" rx="4" fill="#3B82F6" opacity="0.2"/>
  <text x="60" y="445" font-family="Inter, sans-serif" font-size="14" fill="white">Question Registry</text>
  
  <rect x="20" y="470" width="200" height="40" rx="4" fill="#3B82F6" opacity="0.2"/>
  <text x="60" y="495" font-family="Inter, sans-serif" font-size="14" fill="white">Company Settings</text>
  
  <rect x="20" y="520" width="200" height="40" rx="4" fill="#3B82F6" opacity="0.2"/>
  <text x="60" y="545" font-family="Inter, sans-serif" font-size="14" fill="white">Profile Settings</text>
  
  <!-- Upgrade to Premium CTA -->
  <rect x="20" y="800" width="200" height="50" rx="8" fill="#F59E0B"/>
  <text x="120" y="830" font-family="Inter, sans-serif" font-size="14" font-weight="bold" fill="white" text-anchor="middle">UPGRADE TO PREMIUM</text>
  
  <!-- Top Header -->
  <rect x="240" y="0" width="960" height="64" fill="white" stroke="#E5E7EB" stroke-width="1"/>
  
  <!-- Company Profile Dropdown -->
  <circle cx="300" cy="32" r="20" fill="#3B82F6"/>
  <text x="300" y="37" font-family="Inter, sans-serif" font-size="14" font-weight="bold" fill="white" text-anchor="middle">AC</text>
  <text x="340" y="37" font-family="Inter, sans-serif" font-size="14" font-weight="medium" fill="#1F2937">Acme Corp</text>
  <path d="M360,32 l5,5 l5,-5" stroke="#6B7280" stroke-width="2" fill="none"/>
  
  <!-- Invite Team Member Button -->
  <rect x="800" y="16" width="160" height="32" rx="4" fill="#1E40AF"/>
  <text x="880" y="37" font-family="Inter, sans-serif" font-size="14" font-weight="medium" fill="white" text-anchor="middle">Invite Team Member</text>
  
  <!-- Notification Icon -->
  <circle cx="1000" cy="32" r="16" fill="white" stroke="#E5E7EB" stroke-width="1"/>
  <path d="M1000,26 v2 m0,2 v6" stroke="#6B7280" stroke-width="2" stroke-linecap="round"/>
  <path d="M992,38 h16" stroke="#6B7280" stroke-width="2" stroke-linecap="round"/>
  
  <!-- User Profile Dropdown -->
  <circle cx="1040" cy="32" r="16" fill="#3B82F6"/>
  <text x="1040" y="37" font-family="Inter, sans-serif" font-size="12" font-weight="bold" fill="white" text-anchor="middle">JD</text>
  <path d="M1060,32 l5,5 l5,-5" stroke="#6B7280" stroke-width="2" fill="none"/>
  
  <!-- Main Content Area -->
  <rect x="240" y="64" width="960" height="836" fill="white"/>
  
  <!-- Page Header -->
  <text x="280" y="120" font-family="Inter, sans-serif" font-size="24" font-weight="bold" fill="#1F2937">My Team</text>
  
  <!-- Search Bar -->
  <rect x="800" y="100" width="360" height="40" rx="4" fill="white" stroke="#E5E7EB" stroke-width="1"/>
  <text x="840" y="125" font-family="Inter, sans-serif" font-size="14" fill="#6B7280">Search team members...</text>
  <circle cx="820" cy="120" r="10" fill="white" stroke="#6B7280" stroke-width="1"/>
  <path d="M826,126 l6,6" stroke="#6B7280" stroke-width="1"/>
  
  <!-- Team Members List -->
  <!-- Team Member 1 (Admin) -->
  <rect x="280" y="160" width="880" height="100" rx="8" fill="white" stroke="#E5E7EB" stroke-width="1"/>
  <circle cx="330" cy="210" r="30" fill="#3B82F6"/>
  <text x="330" y="215" font-family="Inter, sans-serif" font-size="16" font-weight="bold" fill="white" text-anchor="middle">JD</text>
  <text x="400" y="190" font-family="Inter, sans-serif" font-size="16" font-weight="bold" fill="#1F2937">John Doe</text>
  <text x="400" y="215" font-family="Inter, sans-serif" font-size="14" fill="#6B7280">john.doe@acmecorp.com</text>
  <text x="400" y="240" font-family="Inter, sans-serif" font-size="14" fill="#6B7280">Investor Relations Manager</text>
  <rect x="600" y="190" width="80" height="24" rx="12" fill="#1E40AF" opacity="0.1"/>
  <text x="640" y="207" font-family="Inter, sans-serif" font-size="12" font-weight="medium" fill="#1E40AF" text-anchor="middle">Admin</text>
  <circle cx="700" cy="202" r="4" fill="#10B981"/>
  <text x="715" y="207" font-family="Inter, sans-serif" font-size="12" fill="#6B7280">Active</text>
  <rect x="1040" y="190" width="40" height="24" rx="4" fill="#F9FAFB" stroke="#E5E7EB" stroke-width="1"/>
  <text x="1060" y="207" font-family="Inter, sans-serif" font-size="12" fill="#6B7280" text-anchor="middle">Edit</text>
  <rect x="1090" y="190" width="40" height="24" rx="4" fill="#F9FAFB" stroke="#E5E7EB" stroke-width="1"/>
  <text x="1110" y="207" font-family="Inter, sans-serif" font-size="12" fill="#6B7280" text-anchor="middle">×</text>
  
  <!-- Team Member 2 (Moderator) -->
  <rect x="280" y="280" width="880" height="100" rx="8" fill="white" stroke="#E5E7EB" stroke-width="1"/>
  <circle cx="330" cy="330" r="30" fill="#10B981"/>
  <text x="330" y="335" font-family="Inter, sans-serif" font-size="16" font-weight="bold" fill="white" text-anchor="middle">JS</text>
  <text x="400" y="310" font-family="Inter, sans-serif" font-size="16" font-weight="bold" fill="#1F2937">Jane Smith</text>
  <text x="400" y="335" font-family="Inter, sans-serif" font-size="14" fill="#6B7280">jane.smith@acmecorp.com</text>
  <text x="400" y="360" font-family="Inter, sans-serif" font-size="14" fill="#6B7280">Communications Specialist</text>
  <rect x="600" y="310" width="100" height="24" rx="12" fill="#10B981" opacity="0.1"/>
  <text x="650" y="327" font-family="Inter, sans-serif" font-size="12" font-weight="medium" fill="#10B981" text-anchor="middle">Moderator</text>
  <circle cx="700" cy="322" r="4" fill="#10B981"/>
  <text x="715" y="327" font-family="Inter, sans-serif" font-size="12" fill="#6B7280">Active</text>
  <rect x="1040" y="310" width="40" height="24" rx="4" fill="#F9FAFB" stroke="#E5E7EB" stroke-width="1"/>
  <text x="1060" y="327" font-family="Inter, sans-serif" font-size="12" fill="#6B7280" text-anchor="middle">Edit</text>
  <rect x="1090" y="310" width="40" height="24" rx="4" fill="#F9FAFB" stroke="#E5E7EB" stroke-width="1"/>
  <text x="1110" y="327" font-family="Inter, sans-serif" font-size="12" fill="#6B7280" text-anchor="middle">×</text>
  
  <!-- Team Member 3 (Editor) -->
  <rect x="280" y="400" width="880" height="100" rx="8" fill="white" stroke="#E5E7EB" stroke-width="1"/>
  <circle cx="330" cy="450" r="30" fill="#8B5CF6"/>
  <text x="330" y="455" font-family="Inter, sans-serif" font-size="16" font-weight="bold" fill="white" text-anchor="middle">RJ</text>
  <text x="400" y="430" font-family="Inter, sans-serif" font-size="16" font-weight="bold" fill="#1F2937">Robert Johnson</text>
  <text x="400" y="455" font-family="Inter, sans-serif" font-size="14" fill="#6B7280">robert.johnson@acmecorp.com</text>
  <text x="400" y="480" font-family="Inter, sans-serif" font-size="14" fill="#6B7280">Content Manager</text>
  <rect x="600" y="430" width="80" height="24" rx="12" fill="#8B5CF6" opacity="0.1"/>
  <text x="640" y="447" font-family="Inter, sans-serif" font-size="12" font-weight="medium" fill="#8B5CF6" text-anchor="middle">Editor</text>
  <circle cx="700" cy="442" r="4" fill="#10B981"/>
  <text x="715" y="447" font-family="Inter, sans-serif" font-size="12" fill="#6B7280">Active</text>
  <rect x="1040" y="430" width="40" height="24" rx="4" fill="#F9FAFB" stroke="#E5E7EB" stroke-width="1"/>
  <text x="1060" y="447" font-family="Inter, sans-serif" font-size="12" fill="#6B7280" text-anchor="middle">Edit</text>
  <rect x="1090" y="430" width="40" height="24" rx="4" fill="#F9FAFB" stroke="#E5E7EB" stroke-width="1"/>
  <text x="1110" y="447" font-family="Inter, sans-serif" font-size="12" fill="#6B7280" text-anchor="middle">×</text>
  
  <!-- Team Member 4 (Viewer, Invited) -->
  <rect x="280" y="520" width="880" height="100" rx="8" fill="white" stroke="#E5E7EB" stroke-width="1"/>
  <circle cx="330" cy="570" r="30" fill="#6B7280"/>
  <text x="330" y="575" font-family="Inter, sans-serif" font-size="16" font-weight="bold" fill="white" text-anchor="middle">AL</text>
  <text x="400" y="550" font-family="Inter, sans-serif" font-size="16" font-weight="bold" fill="#1F2937">Amy Lee</text>
  <text x="400" y="575" font-family="Inter, sans-serif" font-size="14" fill="#6B7280">amy.lee@acmecorp.com</text>
  <text x="400" y="600" font-family="Inter, sans-serif" font-size="14" fill="#6B7280">Financial Analyst</text>
  <rect x="600" y="550" width="80" height="24" rx="12" fill="#6B7280" opacity="0.1"/>
  <text x="640" y="567" font-family="Inter, sans-serif" font-size="12" font-weight="medium" fill="#6B7280" text-anchor="middle">Viewer</text>
  <circle cx="700" cy="562" r="4" fill="#F59E0B"/>
  <text x="715" y="567" font-family="Inter, sans-serif" font-size="12" fill="#6B7280">Invited</text>
  <rect x="1040" y="550" width="40" height="24" rx="4" fill="#F9FAFB" stroke="#E5E7EB" stroke-width="1"/>
  <text x="1060" y="567" font-family="Inter, sans-serif" font-size="12" fill="#6B7280" text-anchor="middle">Edit</text>
  <rect x="1090" y="550" width="40" height="24" rx="4" fill="#F9FAFB" stroke="#E5E7EB" stroke-width="1"/>
  <text x="1110" y="567" font-family="Inter, sans-serif" font-size="12" fill="#6B7280" text-anchor="middle">×</text>
  
  <!-- Role Information Section -->
  <text x="280" y="660" font-family="Inter, sans-serif" font-size="18" font-weight="bold" fill="#1F2937">Role Information</text>
  <text x="280" y="690" font-family="Inter, sans-serif" font-size="14" fill="#6B7280">Each team member is assigned a role that determines their access and permissions within the Diolog platform.</text>
  
  <!-- Role Comparison Table -->
  <rect x="280" y="710" width="880" height="40" rx="4" fill="#F9FAFB"/>
  <text x="320" y="735" font-family="Inter, sans-serif" font-size="14" font-weight="bold" fill="#1F2937">Role</text>
  <text x="500" y="735" font-family="Inter, sans-serif" font-size="14" font-weight="bold" fill="#1F2937">Description</text>
  <text x="900" y="735" font-family="Inter, sans-serif" font-size="14" font-weight="bold" fill="#1F2937">Access Level</text>
  
  <!-- Admin Row -->
  <rect x="280" y="750" width="880" height="40" rx="0" fill="white" stroke="#E5E7EB" stroke-width="1"/>
  <rect x="290" y="760" width="80" height="20" rx="10" fill="#1E40AF" opacity="0.1"/>
  <text x="330" y="775" font-family="Inter, sans-serif" font-size="12" font-weight="medium" fill="#1E40AF" text-anchor="middle">Admin</text>
  <text x="500" y="775" font-family="Inter, sans-serif" font-size="14" fill="#1F2937">Full access to all features and settings</text>
  <text x="900" y="775" font-family="Inter, sans-serif" font-size="14" fill="#1F2937">All features</text>
  
  <!-- Moderator Row -->
  <rect x="280" y="790" width="880" height="40" rx="0" fill="white" stroke="#E5E7EB" stroke-width="1"/>
  <rect x="290" y="800" width="100" height="20" rx="10" fill="#10B981" opacity="0.1"/>
  <text x="340" y="815" font-family="Inter, sans-serif" font-size="12" font-weight="medium" fill="#10B981" text-anchor="middle">Moderator</text>
  <text x="500" y="815" font-family="Inter, sans-serif" font-size="14" fill="#1F2937">Manage content but restricted user management</text>
  <text x="900" y="815" font-family="Inter, sans-serif" font-size="14" fill="#1F2937">Most features</text>
  
  <!-- Editor Row -->
  <rect x="280" y="830" width="880" height="40" rx="0" fill="white" stroke="#E5E7EB" stroke-width="1"/>
  <rect x="290" y="840" width="80" height="20" rx="10" fill="#8B5CF6" opacity="0.1"/>
  <text x="330" y="855" font-family="Inter, sans-serif" font-size="12" font-weight="medium" fill="#8B5CF6" text-anchor="middle">Editor</text>
  <text x="500" y="855" font-family="Inter, sans-serif" font-size="14" fill="#1F2937">Create and edit content with limited management</text>
  <text x="900" y="855" font-family="Inter, sans-serif" font-size="14" fill="#1F2937">Limited features</text>
  
  <!-- Viewer Row -->
  <rect x="280" y="870" width="880" height="40" rx="0" fill="white" stroke="#E5E7EB" stroke-width="1"/>
  <rect x="290" y="880" width="80" height="20" rx="10" fill="#6B7280" opacity="0.1"/>
  <text x="330" y="895" font-family="Inter, sans-serif" font-size="12" font-weight="medium" fill="#6B7280" text-anchor="middle">Viewer</text>
  <text x="500" y="895" font-family="Inter, sans-serif" font-size="14" fill="#1F2937">Read-only access to view data and content</text>
  <text x="900" y="895" font-family="Inter, sans-serif" font-size="14" fill="#1F2937">View only</text>
  
  <!-- Invite Team Member Modal -->
  <rect x="300" y="150" width="600" height="400" rx="8" fill="white" stroke="#E5E7EB" stroke-width="2" filter="drop-shadow(0 4px 6px rgba(0, 0, 0, 0.1))"/>
  <text x="340" y="190" font-family="Inter, sans-serif" font-size="20" font-weight="bold" fill="#1F2937">Invite Team Member</text>
  <line x1="340" y1="210" x2="860" y2="210" stroke="#E5E7EB" stroke-width="1"/>
  
  <!-- Work Email Field -->
  <text x="340" y="250" font-family="Inter, sans-serif" font-size="14" font-weight="medium" fill="#1F2937">Work Email *</text>
  <rect x="340" y="260" width="520" height="40" rx="4" fill="white" stroke="#E5E7EB" stroke-width="1"/>
  <text x="360" y="285" font-family="Inter, sans-serif" font-size="14" fill="#6B7280">Enter work email address</text>
  
  <!-- First Name Field -->
  <text x="340" y="330" font-family="Inter, sans-serif" font-size="14" font-weight="medium" fill="#1F2937">First Name *</text>
  <rect x="340" y="340" width="250" height="40" rx="4" fill="white" stroke="#E5E7EB" stroke-width="1"/>
  <text x="360" y="365" font-family="Inter, sans-serif" font-size="14" fill="#6B7280">Enter first name</text>
  
  <!-- Last Name Field -->
  <text x="610" y="330" font-family="Inter, sans-serif" font-size="14" font-weight="medium" fill="#1F2937">Last Name *</text>
  <rect x="610" y="340" width="250" height="40" rx="4" fill="white" stroke="#E5E7EB" stroke-width="1"/>
  <text x="630" y="365" font-family="Inter, sans-serif" font-size="14" fill="#6B7280">Enter last name</text>
  
  <!-- Job Title Field -->
  <text x="340" y="410" font-family="Inter, sans-serif" font-size="14" font-weight="medium" fill="#1F2937">Job Title</text>
  <rect x="340" y="420" width="520" height="40" rx="4" fill="white" stroke="#E5E7EB" stroke-width="1"/>
  <text x="360" y="445" font-family="Inter, sans-serif" font-size="14" fill="#6B7280">Enter job title (optional)</text>
  
  <!-- Role/Permissions Dropdown -->
  <text x="340" y="490" font-family="Inter, sans-serif" font-size="14" font-weight="medium" fill="#1F2937">Role/Permissions *</text>
  <rect x="340" y="500" width="520" height="40" rx="4" fill="white" stroke="#E5E7EB" stroke-width="1"/>
  <text x="360" y="525" font-family="Inter, sans-serif" font-size="14" fill="#6B7280">Select role</text>
  <path d="M840,520 l-10,-10 l-10,10" stroke="#6B7280" stroke-width="2" fill="none"/>
  
  <!-- Modal Buttons -->
  <rect x="340" y="560" width="200" height="40" rx="4" fill="#1E40AF"/>
  <text x="440" y="585" font-family="Inter, sans-serif" font-size="14" font-weight="medium" fill="white" text-anchor="middle">Send Invitation</text>
  
  <rect x="560" y="560" width="100" height="40" rx="4" fill="white" stroke="#E5E7EB" stroke-width="1"/>
  <text x="610" y="585" font-family="Inter, sans-serif" font-size="14" fill="#6B7280" text-anchor="middle">Cancel</text>
  
  <!-- Close Button -->
  <circle cx="870" cy="170" r="15" fill="#F9FAFB" stroke="#E5E7EB" stroke-width="1"/>
  <text x="870" y="175" font-family="Inter, sans-serif" font-size="16" font-weight="bold" fill="#6B7280" text-anchor="middle">×</text>
</svg>