<?xml version="1.0" encoding="UTF-8"?>
<svg width="1280" height="800" viewBox="0 0 1280 800" fill="none" xmlns="http://www.w3.org/2000/svg">
  <!-- Background -->
  <rect width="1280" height="800" fill="#F9FAFB"/>
  
  <!-- Header -->
  <rect width="1280" height="64" fill="#FFFFFF" filter="drop-shadow(0 1px 2px rgba(0, 0, 0, 0.05))"/>
  <rect x="24" y="16" width="32" height="32" rx="4" fill="#1E40AF"/>
  <text x="64" y="36" font-family="Inter, sans-serif" font-size="18" font-weight="600" fill="#1F2937">Diolog</text>
  
  <!-- User Profile -->
  <circle cx="1232" cy="32" r="20" fill="#E5E7EB"/>
  <path d="M1232 26 A6 6 0 1 1 1232 38 A6 6 0 0 1 1232 26" fill="#6B7280"/>
  <path d="M1222 42 C1222 36 1226 32 1232 32 C1238 32 1242 36 1242 42" fill="#6B7280"/>
  
  <!-- Sidebar -->
  <rect width="240" height="736" y="64" fill="#FFFFFF" filter="drop-shadow(0 4px 6px rgba(0, 0, 0, 0.05))"/>
  
  <!-- Sidebar Menu Items -->
  <rect x="16" y="96" width="208" height="40" rx="4" fill="#F3F4F6"/>
  <text x="56" y="120" font-family="Inter, sans-serif" font-size="14" fill="#1F2937">Dashboard</text>
  <circle cx="36" cy="116" r="8" fill="#3B82F6"/>
  
  <text x="56" y="168" font-family="Inter, sans-serif" font-size="14" fill="#6B7280">Calendar/Events</text>
  <circle cx="36" cy="164" r="8" fill="#6B7280"/>
  
  <text x="56" y="216" font-family="Inter, sans-serif" font-size="14" fill="#6B7280">Announcements</text>
  <circle cx="36" cy="212" r="8" fill="#6B7280"/>
  
  <text x="56" y="264" font-family="Inter, sans-serif" font-size="14" fill="#6B7280">Questions Board</text>
  <circle cx="36" cy="260" r="8" fill="#6B7280"/>
  
  <text x="56" y="312" font-family="Inter, sans-serif" font-size="14" fill="#6B7280">Our FAQs</text>
  <circle cx="36" cy="308" r="8" fill="#6B7280"/>
  
  <text x="56" y="360" font-family="Inter, sans-serif" font-size="14" fill="#6B7280">My Team</text>
  <circle cx="36" cy="356" r="8" fill="#6B7280"/>
  
  <text x="56" y="408" font-family="Inter, sans-serif" font-size="14" fill="#6B7280">Question Registry</text>
  <circle cx="36" cy="404" r="8" fill="#6B7280"/>
  
  <text x="56" y="456" font-family="Inter, sans-serif" font-size="14" fill="#6B7280">Company Settings</text>
  <circle cx="36" cy="452" r="8" fill="#6B7280"/>
  
  <text x="56" y="504" font-family="Inter, sans-serif" font-size="14" fill="#6B7280">Profile Settings</text>
  <circle cx="36" cy="500" r="8" fill="#6B7280"/>
  
  <text x="56" y="552" font-family="Inter, sans-serif" font-size="14" fill="#6B7280">Give Feedback</text>
  <circle cx="36" cy="548" r="8" fill="#6B7280"/>
  
  <rect x="16" y="576" width="208" height="40" rx="4" fill="#1E40AF"/>
  <text x="56" y="600" font-family="Inter, sans-serif" font-size="14" fill="#FFFFFF">Contact Us</text>
  <circle cx="36" cy="596" r="8" fill="#FFFFFF"/>
  
  <!-- Main Content -->
  <rect x="264" y="88" width="992" height="688" rx="8" fill="#FFFFFF" filter="drop-shadow(0 1px 2px rgba(0, 0, 0, 0.05))"/>
  
  <!-- Page Title -->
  <text x="296" y="136" font-family="Inter, sans-serif" font-size="24" font-weight="bold" fill="#1F2937">Contact Us</text>
  
  <!-- Contact Information Section -->
  <rect x="296" y="160" width="400" height="240" rx="8" fill="#F9FAFB" stroke="#E5E7EB" stroke-width="1"/>
  
  <!-- Diolog Logo in Contact Info -->
  <rect x="320" y="184" width="48" height="48" rx="4" fill="#1E40AF"/>
  <text x="376" y="212" font-family="Inter, sans-serif" font-size="18" font-weight="600" fill="#1F2937">Diolog</text>
  
  <!-- Contact Details -->
  <text x="320" y="256" font-family="Inter, sans-serif" font-size="14" font-weight="600" fill="#1F2937">Phone:</text>
  <text x="376" y="256" font-family="Inter, sans-serif" font-size="14" fill="#6B7280">+61 2 1234 5678</text>
  
  <text x="320" y="288" font-family="Inter, sans-serif" font-size="14" font-weight="600" fill="#1F2937">Email:</text>
  <text x="376" y="288" font-family="Inter, sans-serif" font-size="14" fill="#6B7280">support@diolog.com.au</text>
  
  <text x="320" y="320" font-family="Inter, sans-serif" font-size="14" font-weight="600" fill="#1F2937">Address:</text>
  <text x="376" y="320" font-family="Inter, sans-serif" font-size="14" fill="#6B7280">123 Market Street</text>
  <text x="376" y="344" font-family="Inter, sans-serif" font-size="14" fill="#6B7280">Sydney, NSW 2000</text>
  <text x="376" y="368" font-family="Inter, sans-serif" font-size="14" fill="#6B7280">Australia</text>
  
  <!-- Google Map -->
  <rect x="720" y="160" width="512" height="240" rx="8" fill="#E5E7EB" stroke="#E5E7EB" stroke-width="1"/>
  <text x="936" y="280" font-family="Inter, sans-serif" font-size="14" fill="#6B7280" text-anchor="middle">Google Map</text>
  
  <!-- Contact Form -->
  <rect x="296" y="424" width="936" height="320" rx="8" fill="#F9FAFB" stroke="#E5E7EB" stroke-width="1"/>
  
  <!-- Form Title -->
  <text x="320" y="464" font-family="Inter, sans-serif" font-size="18" font-weight="600" fill="#1F2937">Send us a message</text>
  
  <!-- Name Field -->
  <text x="320" y="504" font-family="Inter, sans-serif" font-size="14" font-weight="500" fill="#1F2937">Name *</text>
  <rect x="320" y="516" width="400" height="40" rx="4" fill="#FFFFFF" stroke="#E5E7EB" stroke-width="1"/>
  
  <!-- Subject Field -->
  <text x="320" y="584" font-family="Inter, sans-serif" font-size="14" font-weight="500" fill="#1F2937">Subject *</text>
  <rect x="320" y="596" width="400" height="40" rx="4" fill="#FFFFFF" stroke="#E5E7EB" stroke-width="1"/>
  
  <!-- Message Field -->
  <text x="320" y="664" font-family="Inter, sans-serif" font-size="14" font-weight="500" fill="#1F2937">Message *</text>
  <rect x="320" y="676" width="888" height="120" rx="4" fill="#FFFFFF" stroke="#E5E7EB" stroke-width="1"/>
  
  <!-- Send Button -->
  <rect x="320" y="816" width="120" height="40" rx="4" fill="#1E40AF"/>
  <text x="380" y="840" font-family="Inter, sans-serif" font-size="14" font-weight="500" fill="#FFFFFF" text-anchor="middle">Send Message</text>
  
  <!-- Help Link -->
  <text x="1080" y="832" font-family="Inter, sans-serif" font-size="14" fill="#3B82F6">Need help? Click here</text>
  
  <!-- Website Link -->
  <text x="1080" y="864" font-family="Inter, sans-serif" font-size="14" fill="#3B82F6">Visit our website</text>
</svg>