<svg width="1280" height="1024" viewBox="0 0 1280 1024" fill="none" xmlns="http://www.w3.org/2000/svg">
  <!-- Background -->
  <rect width="1280" height="1024" fill="#F9FAFB"/>
  
  <!-- Header -->
  <rect x="0" y="0" width="1280" height="64" fill="#FFFFFF" stroke="#E5E7EB" stroke-width="1"/>
  <rect x="0" y="0" width="240" height="64" fill="#FFFFFF" stroke="#E5E7EB" stroke-width="1"/>
  <text x="24" y="40" font-family="Inter, sans-serif" font-size="20" font-weight="bold" fill="#1E40AF">Diolog</text>
  
  <!-- Header Controls -->
  <circle cx="1200" cy="32" r="20" fill="#F3F4F6"/>
  <circle cx="1140" cy="32" r="20" fill="#F3F4F6"/>
  <circle cx="1080" cy="32" r="20" fill="#F3F4F6"/>
  <rect x="900" y="20" width="120" height="24" rx="12" fill="#1E40AF"/>
  <text x="920" y="36" font-family="Inter, sans-serif" font-size="12" font-weight="medium" fill="#FFFFFF">Create Event</text>
  <rect x="760" y="20" width="120" height="24" rx="12" fill="#1E40AF"/>
  <text x="770" y="36" font-family="Inter, sans-serif" font-size="12" font-weight="medium" fill="#FFFFFF">New Announcement</text>
  
  <!-- Sidebar -->
  <rect x="0" y="64" width="240" height="960" fill="#FFFFFF" stroke="#E5E7EB" stroke-width="1"/>
  
  <!-- Sidebar Menu Items -->
  <rect x="12" y="100" width="216" height="40" rx="4" fill="#F3F4F6"/>
  <text x="48" y="124" font-family="Inter, sans-serif" font-size="14" fill="#1F2937">Dashboard</text>
  
  <text x="48" y="174" font-family="Inter, sans-serif" font-size="14" fill="#1F2937">Calendar/Events</text>
  <text x="48" y="224" font-family="Inter, sans-serif" font-size="14" fill="#1F2937">Announcements</text>
  <text x="48" y="274" font-family="Inter, sans-serif" font-size="14" fill="#1F2937">Questions Board</text>
  <text x="48" y="324" font-family="Inter, sans-serif" font-size="14" fill="#1F2937">Our FAQs</text>
  <text x="48" y="374" font-family="Inter, sans-serif" font-size="14" fill="#1F2937">My Team</text>
  <text x="48" y="424" font-family="Inter, sans-serif" font-size="14" fill="#1F2937">Question Registry</text>
  
  <rect x="12" y="450" width="216" height="40" rx="4" fill="#EBF5FF"/>
  <text x="48" y="474" font-family="Inter, sans-serif" font-size="14" font-weight="bold" fill="#1E40AF">Company Settings</text>
  
  <text x="48" y="524" font-family="Inter, sans-serif" font-size="14" fill="#1F2937">Profile Settings</text>
  <text x="48" y="574" font-family="Inter, sans-serif" font-size="14" fill="#1F2937">Give Feedback</text>
  <text x="48" y="624" font-family="Inter, sans-serif" font-size="14" fill="#1F2937">Contact Us</text>
  
  <!-- Main Content Area -->
  <rect x="240" y="64" width="1040" height="960" fill="#F9FAFB"/>
  
  <!-- Page Title -->
  <text x="280" y="120" font-family="Inter, sans-serif" font-size="24" font-weight="bold" fill="#1F2937">Company Settings</text>
  <text x="280" y="150" font-family="Inter, sans-serif" font-size="14" fill="#6B7280">Manage your company profile, logo, and settings</text>
  
  <!-- Company Details Card -->
  <rect x="280" y="180" width="960" height="220" rx="8" fill="#FFFFFF" stroke="#E5E7EB" stroke-width="1"/>
  <text x="300" y="210" font-family="Inter, sans-serif" font-size="18" font-weight="semibold" fill="#1F2937">Company Details</text>
  
  <!-- Company Details Form -->
  <text x="300" y="250" font-family="Inter, sans-serif" font-size="14" font-weight="medium" fill="#6B7280">Legal Business Name</text>
  <rect x="300" y="260" width="400" height="40" rx="4" fill="#FFFFFF" stroke="#E5E7EB" stroke-width="1"/>
  <text x="310" y="285" font-family="Inter, sans-serif" font-size="14" fill="#1F2937">Acme Corporation</text>
  
  <text x="720" y="250" font-family="Inter, sans-serif" font-size="14" font-weight="medium" fill="#6B7280">Display Name</text>
  <rect x="720" y="260" width="400" height="40" rx="4" fill="#FFFFFF" stroke="#E5E7EB" stroke-width="1"/>
  <text x="730" y="285" font-family="Inter, sans-serif" font-size="14" fill="#1F2937">Acme Corp</text>
  
  <text x="300" y="320" font-family="Inter, sans-serif" font-size="14" font-weight="medium" fill="#6B7280">ASX Code</text>
  <rect x="300" y="330" width="190" height="40" rx="4" fill="#FFFFFF" stroke="#E5E7EB" stroke-width="1"/>
  <text x="310" y="355" font-family="Inter, sans-serif" font-size="14" fill="#1F2937">ACM</text>
  
  <text x="510" y="320" font-family="Inter, sans-serif" font-size="14" font-weight="medium" fill="#6B7280">Company Website</text>
  <rect x="510" y="330" width="400" height="40" rx="4" fill="#FFFFFF" stroke="#E5E7EB" stroke-width="1"/>
  <text x="520" y="355" font-family="Inter, sans-serif" font-size="14" fill="#1F2937">https://acmecorp.com</text>
  
  <text x="930" y="320" font-family="Inter, sans-serif" font-size="14" font-weight="medium" fill="#6B7280">Industry</text>
  <rect x="930" y="330" width="190" height="40" rx="4" fill="#FFFFFF" stroke="#E5E7EB" stroke-width="1"/>
  <text x="940" y="355" font-family="Inter, sans-serif" font-size="14" fill="#1F2937">Technology</text>
  
  <!-- Company Logo Card -->
  <rect x="280" y="420" width="470" height="220" rx="8" fill="#FFFFFF" stroke="#E5E7EB" stroke-width="1"/>
  <text x="300" y="450" font-family="Inter, sans-serif" font-size="18" font-weight="semibold" fill="#1F2937">Company Logo</text>
  
  <!-- Logo Display and Upload -->
  <rect x="300" y="470" width="120" height="120" rx="4" fill="#F9FAFB" stroke="#E5E7EB" stroke-width="1"/>
  <text x="330" y="530" font-family="Inter, sans-serif" font-size="12" fill="#6B7280">Logo Preview</text>
  
  <rect x="440" y="470" width="280" height="80" rx="4" fill="#F9FAFB" stroke="#E5E7EB" stroke-width="1" stroke-dasharray="4 4"/>
  <text x="490" y="510" font-family="Inter, sans-serif" font-size="14" fill="#6B7280">Drag and drop or click to upload</text>
  <text x="500" y="530" font-family="Inter, sans-serif" font-size="12" fill="#6B7280">PNG, JPG, SVG (max 5MB)</text>
  
  <rect x="440" y="560" width="120" height="30" rx="4" fill="#1E40AF"/>
  <text x="460" y="580" font-family="Inter, sans-serif" font-size="12" font-weight="medium" fill="#FFFFFF">Upload Logo</text>
  
  <rect x="570" y="560" width="120" height="30" rx="4" fill="#FFFFFF" stroke="#E5E7EB" stroke-width="1"/>
  <text x="590" y="580" font-family="Inter, sans-serif" font-size="12" font-weight="medium" fill="#EF4444">Remove Logo</text>
  
  <!-- Question Categories Card -->
  <rect x="770" y="420" width="470" height="220" rx="8" fill="#FFFFFF" stroke="#E5E7EB" stroke-width="1"/>
  <text x="790" y="450" font-family="Inter, sans-serif" font-size="18" font-weight="semibold" fill="#1F2937">Question Categories</text>
  
  <!-- Categories List -->
  <rect x="790" y="470" width="430" height="40" rx="4" fill="#F9FAFB" stroke="#E5E7EB" stroke-width="1"/>
  <circle cx="810" cy="490" r="8" fill="#3B82F6"/>
  <text x="830" y="495" font-family="Inter, sans-serif" font-size="14" fill="#1F2937">Financial</text>
  <text x="1170" y="495" font-family="Inter, sans-serif" font-size="14" fill="#6B7280">...</text>
  
  <rect x="790" y="520" width="430" height="40" rx="4" fill="#F9FAFB" stroke="#E5E7EB" stroke-width="1"/>
  <circle cx="810" cy="540" r="8" fill="#10B981"/>
  <text x="830" y="545" font-family="Inter, sans-serif" font-size="14" fill="#1F2937">ESG</text>
  <text x="1170" y="545" font-family="Inter, sans-serif" font-size="14" fill="#6B7280">...</text>
  
  <rect x="790" y="570" width="430" height="40" rx="4" fill="#F9FAFB" stroke="#E5E7EB" stroke-width="1"/>
  <circle cx="810" cy="590" r="8" fill="#F59E0B"/>
  <text x="830" y="595" font-family="Inter, sans-serif" font-size="14" fill="#1F2937">Strategy</text>
  <text x="1170" y="595" font-family="Inter, sans-serif" font-size="14" fill="#6B7280">...</text>
  
  <rect x="790" y="620" width="180" height="30" rx="4" fill="#1E40AF"/>
  <text x="820" y="640" font-family="Inter, sans-serif" font-size="12" font-weight="medium" fill="#FFFFFF">Add New Category</text>
  
  <!-- Pricing Plan Card -->
  <rect x="280" y="660" width="960" height="180" rx="8" fill="#FFFFFF" stroke="#E5E7EB" stroke-width="1"/>
  <text x="300" y="690" font-family="Inter, sans-serif" font-size="18" font-weight="semibold" fill="#1F2937">Pricing Plan</text>
  
  <!-- Plan Details -->
  <rect x="300" y="710" width="200" height="100" rx="4" fill="#EBF5FF" stroke="#3B82F6" stroke-width="2"/>
  <text x="350" y="740" font-family="Inter, sans-serif" font-size="16" font-weight="bold" fill="#1E40AF">Premium</text>
  <text x="330" y="765" font-family="Inter, sans-serif" font-size="14" fill="#1F2937">Current Plan</text>
  <text x="320" y="790" font-family="Inter, sans-serif" font-size="12" fill="#6B7280">Renews: 01/01/2024</text>
  
  <rect x="520" y="710" width="400" height="100" rx="4" fill="#F9FAFB" stroke="#E5E7EB" stroke-width="1"/>
  <text x="540" y="730" font-family="Inter, sans-serif" font-size="14" font-weight="medium" fill="#1F2937">Plan Features:</text>
  <text x="540" y="755" font-family="Inter, sans-serif" font-size="12" fill="#6B7280">• Unlimited questions and responses</text>
  <text x="540" y="775" font-family="Inter, sans-serif" font-size="12" fill="#6B7280">• Advanced analytics and reporting</text>
  <text x="540" y="795" font-family="Inter, sans-serif" font-size="12" fill="#6B7280">• Team collaboration (up to 10 members)</text>
  
  <rect x="940" y="710" width="120" height="40" rx="4" fill="#FFFFFF" stroke="#E5E7EB" stroke-width="1"/>
  <text x="950" y="735" font-family="Inter, sans-serif" font-size="12" font-weight="medium" fill="#1F2937">Billing History</text>
  
  <rect x="940" y="760" width="120" height="40" rx="4" fill="#F59E0B"/>
  <text x="960" y="785" font-family="Inter, sans-serif" font-size="12" font-weight="medium" fill="#FFFFFF">Upgrade Plan</text>
  
  <!-- Save Changes Button -->
  <rect x="280" y="860" width="150" height="40" rx="4" fill="#1E40AF"/>
  <text x="310" y="885" font-family="Inter, sans-serif" font-size="14" font-weight="medium" fill="#FFFFFF">Save Changes</text>
  
  <rect x="440" y="860" width="100" height="40" rx="4" fill="#FFFFFF" stroke="#E5E7EB" stroke-width="1"/>
  <text x="465" y="885" font-family="Inter, sans-serif" font-size="14" fill="#6B7280">Cancel</text>
  
  <!-- Success Message -->
  <rect x="280" y="920" width="400" height="40" rx="4" fill="#ECFDF5" stroke="#10B981" stroke-width="1"/>
  <text x="300" y="945" font-family="Inter, sans-serif" font-size="14" fill="#10B981">Changes saved successfully!</text>
</svg>