<?xml version="1.0" encoding="UTF-8"?>
<svg width="1280" height="900" viewBox="0 0 1280 900" xmlns="http://www.w3.org/2000/svg">
  <!-- Background -->
  <rect width="1280" height="900" fill="#F9FAFB"/>
  
  <!-- Sidebar Navigation (Simplified) -->
  <rect x="0" y="0" width="240" height="900" fill="#FFFFFF" stroke="#E5E7EB" stroke-width="1"/>
  <rect x="0" y="0" width="240" height="64" fill="#1E40AF"/>
  <text x="20" y="40" font-family="Inter, sans-serif" font-size="18" font-weight="bold" fill="#FFFFFF">Diolog</text>
  
  <!-- Sidebar Menu Items (Simplified) -->
  <rect x="20" y="100" width="200" height="40" rx="4" fill="#F9FAFB"/>
  <text x="50" y="125" font-family="Inter, sans-serif" font-size="14" fill="#6B7280">Dashboard</text>
  
  <rect x="20" y="150" width="200" height="40" rx="4" fill="#F9FAFB"/>
  <text x="50" y="175" font-family="Inter, sans-serif" font-size="14" fill="#6B7280">Calendar/Events</text>
  
  <rect x="20" y="200" width="200" height="40" rx="4" fill="#F9FAFB"/>
  <text x="50" y="225" font-family="Inter, sans-serif" font-size="14" fill="#6B7280">Announcements</text>
  
  <rect x="20" y="250" width="200" height="40" rx="4" fill="#F9FAFB"/>
  <text x="50" y="275" font-family="Inter, sans-serif" font-size="14" fill="#6B7280">Questions Board</text>
  
  <rect x="20" y="300" width="200" height="40" rx="4" fill="#3B82F6" opacity="0.1"/>
  <text x="50" y="325" font-family="Inter, sans-serif" font-size="14" font-weight="medium" fill="#1E40AF">Analytics Dashboard</text>
  
  <!-- Header -->
  <rect x="240" y="0" width="1040" height="64" fill="#FFFFFF" stroke="#E5E7EB" stroke-width="1"/>
  
  <!-- Company Profile in Header -->
  <circle cx="280" cy="32" r="20" fill="#E5E7EB"/>
  <text x="310" y="37" font-family="Inter, sans-serif" font-size="14" font-weight="medium" fill="#1F2937">Acme Corporation</text>
  
  <!-- User Profile in Header -->
  <circle cx="1240" cy="32" r="20" fill="#E5E7EB"/>
  
  <!-- Main Content Area -->
  <rect x="260" y="84" width="1000" height="60" fill="transparent"/>
  <text x="260" y="110" font-family="Inter, sans-serif" font-size="24" font-weight="bold" fill="#1F2937">Analytics Dashboard</text>
  <text x="260" y="135" font-family="Inter, sans-serif" font-size="16" fill="#6B7280">Investor Engagement Insights</text>
  
  <!-- Date Range Selector -->
  <rect x="900" y="90" width="180" height="40" rx="4" fill="#FFFFFF" stroke="#E5E7EB" stroke-width="1"/>
  <text x="920" y="115" font-family="Inter, sans-serif" font-size="14" fill="#6B7280">Last 30 Days</text>
  <text x="1060" y="115" font-family="Inter, sans-serif" font-size="14" fill="#6B7280">▼</text>
  
  <!-- Export Button -->
  <rect x="1100" y="90" width="140" height="40" rx="4" fill="#1E40AF"/>
  <text x="1130" y="115" font-family="Inter, sans-serif" font-size="14" font-weight="medium" fill="#FFFFFF">Export Data</text>
  
  <!-- Key Metrics Cards -->
  <rect x="260" y="160" width="230" height="120" rx="8" fill="#FFFFFF" stroke="#E5E7EB" stroke-width="1"/>
  <text x="280" y="190" font-family="Inter, sans-serif" font-size="14" fill="#6B7280">Total Investor Engagement</text>
  <text x="280" y="230" font-family="Inter, sans-serif" font-size="28" font-weight="bold" fill="#1F2937">1,248</text>
  <text x="350" y="230" font-family="Inter, sans-serif" font-size="14" fill="#10B981">↑ 12%</text>
  
  <rect x="510" y="160" width="230" height="120" rx="8" fill="#FFFFFF" stroke="#E5E7EB" stroke-width="1"/>
  <text x="530" y="190" font-family="Inter, sans-serif" font-size="14" fill="#6B7280">Question Response Rate</text>
  <text x="530" y="230" font-family="Inter, sans-serif" font-size="28" font-weight="bold" fill="#1F2937">94%</text>
  <text x="580" y="230" font-family="Inter, sans-serif" font-size="14" fill="#10B981">↑ 5%</text>
  
  <rect x="760" y="160" width="230" height="120" rx="8" fill="#FFFFFF" stroke="#E5E7EB" stroke-width="1"/>
  <text x="780" y="190" font-family="Inter, sans-serif" font-size="14" fill="#6B7280">Average Response Time</text>
  <text x="780" y="230" font-family="Inter, sans-serif" font-size="28" font-weight="bold" fill="#1F2937">4.2 hrs</text>
  <text x="860" y="230" font-family="Inter, sans-serif" font-size="14" fill="#10B981">↓ 15%</text>
  
  <rect x="1010" y="160" width="230" height="120" rx="8" fill="#FFFFFF" stroke="#E5E7EB" stroke-width="1"/>
  <text x="1030" y="190" font-family="Inter, sans-serif" font-size="14" fill="#6B7280">Announcement Viewership</text>
  <text x="1030" y="230" font-family="Inter, sans-serif" font-size="28" font-weight="bold" fill="#1F2937">386</text>
  <text x="1080" y="230" font-family="Inter, sans-serif" font-size="14" fill="#EF4444">↓ 3%</text>
  
  <!-- Engagement Trends Chart -->
  <rect x="260" y="300" width="730" height="300" rx="8" fill="#FFFFFF" stroke="#E5E7EB" stroke-width="1"/>
  <text x="280" y="330" font-family="Inter, sans-serif" font-size="18" font-weight="semibold" fill="#1F2937">Engagement Trends</text>
  
  <!-- Chart Toggle Buttons -->
  <rect x="600" y="310" width="120" height="30" rx="15" fill="#3B82F6"/>
  <text x="620" y="330" font-family="Inter, sans-serif" font-size="12" font-weight="medium" fill="#FFFFFF">Questions</text>
  
  <rect x="730" y="310" width="120" height="30" rx="15" fill="#F9FAFB" stroke="#E5E7EB" stroke-width="1"/>
  <text x="750" y="330" font-family="Inter, sans-serif" font-size="12" fill="#6B7280">Announcements</text>
  
  <rect x="860" y="310" width="120" height="30" rx="15" fill="#F9FAFB" stroke="#E5E7EB" stroke-width="1"/>
  <text x="890" y="330" font-family="Inter, sans-serif" font-size="12" fill="#6B7280">Polls</text>
  
  <!-- Simplified Line Chart -->
  <polyline points="280,520 340,480 400,500 460,450 520,470 580,420 640,430 700,400 760,410 820,380 880,390 940,370" fill="none" stroke="#3B82F6" stroke-width="3"/>
  
  <!-- X-Axis Labels -->
  <text x="280" y="550" font-family="Inter, sans-serif" font-size="12" fill="#6B7280">Apr 1</text>
  <text x="460" y="550" font-family="Inter, sans-serif" font-size="12" fill="#6B7280">Apr 10</text>
  <text x="640" y="550" font-family="Inter, sans-serif" font-size="12" fill="#6B7280">Apr 20</text>
  <text x="820" y="550" font-family="Inter, sans-serif" font-size="12" fill="#6B7280">Apr 30</text>
  
  <!-- Y-Axis Labels -->
  <text x="260" y="520" font-family="Inter, sans-serif" font-size="12" fill="#6B7280">0</text>
  <text x="260" y="470" font-family="Inter, sans-serif" font-size="12" fill="#6B7280">25</text>
  <text x="260" y="420" font-family="Inter, sans-serif" font-size="12" fill="#6B7280">50</text>
  <text x="260" y="370" font-family="Inter, sans-serif" font-size="12" fill="#6B7280">75</text>
  
  <!-- Sentiment Analysis Section -->
  <rect x="1010" y="300" width="230" height="300" rx="8" fill="#FFFFFF" stroke="#E5E7EB" stroke-width="1"/>
  <text x="1030" y="330" font-family="Inter, sans-serif" font-size="18" font-weight="semibold" fill="#1F2937">Sentiment Analysis</text>
  
  <!-- Sentiment Gauge (Simplified) -->
  <path d="M1125,400 A60,60 0 1,1 1125,399.9" fill="none" stroke="#E5E7EB" stroke-width="10"/>
  <path d="M1125,400 A60,60 0 0,1 1175,450" fill="none" stroke="#10B981" stroke-width="10"/>
  <text x="1110" y="410" font-family="Inter, sans-serif" font-size="14" font-weight="bold" fill="#1F2937">72%</text>
  <text x="1090" y="430" font-family="Inter, sans-serif" font-size="14" fill="#6B7280">Positive</text>
  
  <!-- Sentiment by Category (Simplified Bar Chart) -->
  <rect x="1030" y="460" width="180" height="20" rx="2" fill="#10B981"/>
  <text x="1030" y="450" font-family="Inter, sans-serif" font-size="12" fill="#6B7280">Financial</text>
  
  <rect x="1030" y="490" width="140" height="20" rx="2" fill="#10B981"/>
  <text x="1030" y="480" font-family="Inter, sans-serif" font-size="12" fill="#6B7280">Strategy</text>
  
  <rect x="1030" y="520" width="100" height="20" rx="2" fill="#F59E0B"/>
  <text x="1030" y="510" font-family="Inter, sans-serif" font-size="12" fill="#6B7280">Operations</text>
  
  <rect x="1030" y="550" width="60" height="20" rx="2" fill="#EF4444"/>
  <text x="1030" y="540" font-family="Inter, sans-serif" font-size="12" fill="#6B7280">ESG</text>
  
  <!-- Investor Demographics -->
  <rect x="260" y="620" width="480" height="260" rx="8" fill="#FFFFFF" stroke="#E5E7EB" stroke-width="1"/>
  <text x="280" y="650" font-family="Inter, sans-serif" font-size="18" font-weight="semibold" fill="#1F2937">Investor Demographics</text>
  
  <!-- Simplified Pie Chart -->
  <circle cx="380" cy="750" r="80" fill="#F9FAFB" stroke="#E5E7EB" stroke-width="1"/>
  <path d="M380,750 L380,670 A80,80 0 0,1 450,800 Z" fill="#3B82F6"/>
  <path d="M380,750 L450,800 A80,80 0 0,1 310,800 Z" fill="#F59E0B"/>
  <path d="M380,750 L310,800 A80,80 0 0,1 380,670 Z" fill="#10B981"/>
  
  <!-- Pie Chart Legend -->
  <rect x="500" y="700" width="12" height="12" fill="#3B82F6"/>
  <text x="520" y="710" font-family="Inter, sans-serif" font-size="14" fill="#1F2937">Retail (68%)</text>
  
  <rect x="500" y="730" width="12" height="12" fill="#F59E0B"/>
  <text x="520" y="740" font-family="Inter, sans-serif" font-size="14" fill="#1F2937">Institutional (22%)</text>
  
  <rect x="500" y="760" width="12" height="12" fill="#10B981"/>
  <text x="520" y="770" font-family="Inter, sans-serif" font-size="14" fill="#1F2937">Other (10%)</text>
  
  <!-- Top Content Section -->
  <rect x="760" y="620" width="480" height="260" rx="8" fill="#FFFFFF" stroke="#E5E7EB" stroke-width="1"/>
  <text x="780" y="650" font-family="Inter, sans-serif" font-size="18" font-weight="semibold" fill="#1F2937">Top Content</text>
  
  <!-- Tabs for Top Content -->
  <rect x="780" y="670" width="140" height="30" rx="4" fill="#3B82F6"/>
  <text x="810" y="690" font-family="Inter, sans-serif" font-size="14" font-weight="medium" fill="#FFFFFF">Announcements</text>
  
  <rect x="930" y="670" width="140" height="30" rx="4" fill="#F9FAFB" stroke="#E5E7EB" stroke-width="1"/>
  <text x="970" y="690" font-family="Inter, sans-serif" font-size="14" fill="#6B7280">Questions</text>
  
  <rect x="1080" y="670" width="140" height="30" rx="4" fill="#F9FAFB" stroke="#E5E7EB" stroke-width="1"/>
  <text x="1120" y="690" font-family="Inter, sans-serif" font-size="14" fill="#6B7280">FAQs</text>
  
  <!-- Top Announcements List -->
  <rect x="780" y="720" width="440" height="1" fill="#E5E7EB"/>
  <text x="780" y="740" font-family="Inter, sans-serif" font-size="14" font-weight="medium" fill="#1F2937">Q3 Financial Results</text>
  <text x="1180" y="740" font-family="Inter, sans-serif" font-size="14" fill="#6B7280">842 views</text>
  
  <rect x="780" y="760" width="440" height="1" fill="#E5E7EB"/>
  <text x="780" y="780" font-family="Inter, sans-serif" font-size="14" font-weight="medium" fill="#1F2937">New Product Launch</text>
  <text x="1180" y="780" font-family="Inter, sans-serif" font-size="14" fill="#6B7280">756 views</text>
  
  <rect x="780" y="800" width="440" height="1" fill="#E5E7EB"/>
  <text x="780" y="820" font-family="Inter, sans-serif" font-size="14" font-weight="medium" fill="#1F2937">Executive Team Changes</text>
  <text x="1180" y="820" font-family="Inter, sans-serif" font-size="14" fill="#6B7280">621 views</text>
  
  <rect x="780" y="840" width="440" height="1" fill="#E5E7EB"/>
  <text x="780" y="860" font-family="Inter, sans-serif" font-size="14" font-weight="medium" fill="#1F2937">Sustainability Report</text>
  <text x="1180" y="860" font-family="Inter, sans-serif" font-size="14" fill="#6B7280">489 views</text>
</svg>