<?xml version="1.0" encoding="UTF-8"?>
<svg width="1280" height="800" viewBox="0 0 1280 800" fill="none" xmlns="http://www.w3.org/2000/svg">
  <!-- Background -->
  <rect width="1280" height="800" fill="#F9FAFB"/>
  
  <!-- Sidebar Navigation -->
  <rect x="0" y="0" width="240" height="800" fill="#FFFFFF" stroke="#E5E7EB" stroke-width="1"/>
  
  <!-- Sidebar Content -->
  <rect x="20" y="20" width="40" height="40" rx="8" fill="#1E40AF"/>
  <text x="70" y="45" font-family="Inter, sans-serif" font-size="18" font-weight="600" fill="#1F2937">Diolog</text>
  
  <!-- Sidebar Menu Items -->
  <rect x="20" y="100" width="200" height="40" rx="6" fill="#F3F4F6"/>
  <text x="60" y="125" font-family="Inter, sans-serif" font-size="14" fill="#1F2937">Dashboard</text>
  <circle cx="40" cy="120" r="10" fill="#3B82F6"/>
  
  <text x="60" y="175" font-family="Inter, sans-serif" font-size="14" fill="#6B7280">Calendar/Events</text>
  <circle cx="40" cy="170" r="10" fill="#3B82F6"/>
  
  <text x="60" y="225" font-family="Inter, sans-serif" font-size="14" fill="#6B7280">Announcements</text>
  <circle cx="40" cy="220" r="10" fill="#3B82F6"/>
  
  <text x="60" y="275" font-family="Inter, sans-serif" font-size="14" fill="#6B7280">Questions Board</text>
  <circle cx="40" cy="270" r="10" fill="#3B82F6"/>
  <circle cx="45" cy="265" r="8" fill="#EF4444"/>
  <text x="43" y="269" font-family="Inter, sans-serif" font-size="10" font-weight="600" fill="#FFFFFF">5</text>
  
  <rect x="20" y="300" width="200" height="40" rx="6" fill="#1E40AF"/>
  <text x="60" y="325" font-family="Inter, sans-serif" font-size="14" font-weight="600" fill="#FFFFFF">Our FAQs</text>
  <circle cx="40" cy="320" r="10" fill="#FFFFFF"/>
  
  <text x="60" y="375" font-family="Inter, sans-serif" font-size="14" fill="#6B7280">My Team</text>
  <circle cx="40" cy="370" r="10" fill="#3B82F6"/>
  
  <text x="60" y="425" font-family="Inter, sans-serif" font-size="14" fill="#6B7280">Question Registry</text>
  <circle cx="40" cy="420" r="10" fill="#3B82F6"/>
  
  <text x="60" y="475" font-family="Inter, sans-serif" font-size="14" fill="#6B7280">Settings</text>
  <circle cx="40" cy="470" r="10" fill="#3B82F6"/>
  
  <!-- Upgrade Button -->
  <rect x="20" y="700" width="200" height="40" rx="6" fill="#F59E0B"/>
  <text x="70" y="725" font-family="Inter, sans-serif" font-size="14" font-weight="600" fill="#FFFFFF">Upgrade to Premium</text>
  
  <!-- Top Header -->
  <rect x="240" y="0" width="1040" height="64" fill="#FFFFFF" stroke="#E5E7EB" stroke-width="1"/>
  
  <!-- Company Profile -->
  <rect x="260" y="16" width="32" height="32" rx="16" fill="#3B82F6"/>
  <text x="300" y="37" font-family="Inter, sans-serif" font-size="14" font-weight="500" fill="#1F2937">Acme Corp (ACM)</text>
  <path d="M330 37 L335 32 L330 27" stroke="#6B7280" stroke-width="1.5" fill="none"/>
  
  <!-- Add New FAQ Button -->
  <rect x="900" y="16" width="140" height="32" rx="6" fill="#1E40AF"/>
  <text x="930" y="37" font-family="Inter, sans-serif" font-size="14" font-weight="500" fill="#FFFFFF">Add New FAQ</text>
  <circle cx="920" cy="32" r="8" fill="#FFFFFF"/>
  <text x="917" y="36" font-family="Inter, sans-serif" font-size="12" font-weight="bold" fill="#1E40AF">+</text>
  
  <!-- Notification Icon -->
  <circle cx="1080" cy="32" r="16" fill="#F3F4F6"/>
  <path d="M1080 24 L1080 36 M1074 28 L1086 28" stroke="#6B7280" stroke-width="1.5"/>
  
  <!-- User Profile -->
  <circle cx="1120" cy="32" r="16" fill="#3B82F6"/>
  <text x="1115" y="37" font-family="Inter, sans-serif" font-size="14" font-weight="600" fill="#FFFFFF">JS</text>
  
  <!-- Main Content Area -->
  <rect x="240" y="64" width="1040" height="736" fill="#F9FAFB"/>
  
  <!-- Page Header -->
  <text x="280" y="120" font-family="Inter, sans-serif" font-size="24" font-weight="bold" fill="#1F2937">Our FAQs</text>
  
  <!-- Search Bar -->
  <rect x="280" y="140" width="400" height="40" rx="6" fill="#FFFFFF" stroke="#E5E7EB" stroke-width="1"/>
  <text x="320" y="165" font-family="Inter, sans-serif" font-size="14" fill="#6B7280">Search FAQs...</text>
  <circle cx="300" cy="160" r="8" fill="#F3F4F6"/>
  <path d="M303 163 L308 168" stroke="#6B7280" stroke-width="1.5"/>
  
  <!-- Filter Dropdown -->
  <rect x="700" y="140" width="120" height="40" rx="6" fill="#FFFFFF" stroke="#E5E7EB" stroke-width="1"/>
  <text x="720" y="165" font-family="Inter, sans-serif" font-size="14" fill="#1F2937">Filter</text>
  <path d="M790 160 L800 160" stroke="#6B7280" stroke-width="1.5"/>
  <path d="M795 155 L795 165" stroke="#6B7280" stroke-width="1.5"/>
  
  <!-- Category Tabs -->
  <rect x="280" y="200" width="1000" height="50" rx="6" fill="#FFFFFF" stroke="#E5E7EB" stroke-width="1"/>
  
  <rect x="290" y="210" width="80" height="30" rx="15" fill="#1E40AF"/>
  <text x="320" y="230" font-family="Inter, sans-serif" font-size="14" font-weight="500" fill="#FFFFFF">All</text>
  
  <text x="390" y="230" font-family="Inter, sans-serif" font-size="14" fill="#6B7280">Financial Information</text>
  
  <text x="550" y="230" font-family="Inter, sans-serif" font-size="14" fill="#6B7280">Company Strategy</text>
  
  <text x="700" y="230" font-family="Inter, sans-serif" font-size="14" fill="#6B7280">Shareholder Information</text>
  
  <text x="880" y="230" font-family="Inter, sans-serif" font-size="14" fill="#6B7280">Operations</text>
  
  <text x="980" y="230" font-family="Inter, sans-serif" font-size="14" fill="#6B7280">ESG</text>
  
  <rect x="1030" y="210" width="120" height="30" rx="15" fill="#F3F4F6"/>
  <text x="1060" y="230" font-family="Inter, sans-serif" font-size="14" fill="#1F2937">+ Add Category</text>
  
  <!-- Visibility Filter -->
  <rect x="280" y="270" width="240" height="40" rx="20" fill="#F3F4F6"/>
  
  <rect x="280" y="270" width="80" height="40" rx="20" fill="#1E40AF"/>
  <text x="310" y="295" font-family="Inter, sans-serif" font-size="14" font-weight="500" fill="#FFFFFF">All</text>
  
  <text x="380" y="295" font-family="Inter, sans-serif" font-size="14" fill="#6B7280">Public</text>
  
  <text x="450" y="295" font-family="Inter, sans-serif" font-size="14" fill="#6B7280">Internal</text>
  
  <!-- FAQ Cards -->
  <!-- Card 1 (Collapsed) -->
  <rect x="280" y="330" width="1000" height="80" rx="8" fill="#FFFFFF" stroke="#E5E7EB" stroke-width="1"/>
  <text x="300" y="360" font-family="Inter, sans-serif" font-size="16" font-weight="500" fill="#1F2937">What is the company's dividend policy?</text>
  <text x="300" y="385" font-family="Inter, sans-serif" font-size="14" fill="#6B7280">Our dividend policy aims to balance shareholder returns with reinvestment for growth...</text>
  
  <rect x="900" y="345" width="80" height="24" rx="12" fill="#EBF5FF"/>
  <text x="915" y="362" font-family="Inter, sans-serif" font-size="12" fill="#1E40AF">Financial</text>
  
  <rect x="990" y="345" width="70" height="24" rx="12" fill="#E6F7EC"/>
  <text x="1005" y="362" font-family="Inter, sans-serif" font-size="12" fill="#047857">Public</text>
  
  <circle cx="1080" cy="360" r="12" fill="#F3F4F6"/>
  <text x="1076" y="364" font-family="Inter, sans-serif" font-size="12" fill="#6B7280">E</text>
  
  <circle cx="1110" cy="360" r="12" fill="#F3F4F6"/>
  <text x="1106" y="364" font-family="Inter, sans-serif" font-size="12" fill="#6B7280">D</text>
  
  <circle cx="1140" cy="360" r="12" fill="#F3F4F6"/>
  <path d="M1135 360 L1145 360 M1140 355 L1140 365" stroke="#6B7280" stroke-width="1.5"/>
  
  <!-- Card 2 (Expanded) -->
  <rect x="280" y="430" width="1000" height="200" rx="8" fill="#FFFFFF" stroke="#1E40AF" stroke-width="2"/>
  <text x="300" y="460" font-family="Inter, sans-serif" font-size="16" font-weight="600" fill="#1F2937">How does the company approach ESG initiatives?</text>
  
  <rect x="300" y="480" width="960" height="120" rx="4" fill="#F9FAFB"/>
  <text x="320" y="510" font-family="Inter, sans-serif" font-size="14" fill="#1F2937">Our ESG strategy is built on three pillars:</text>
  <text x="320" y="535" font-family="Inter, sans-serif" font-size="14" fill="#1F2937">1. Environmental: Reducing carbon footprint by 30% by 2025 and achieving carbon neutrality by 2030.</text>
  <text x="320" y="560" font-family="Inter, sans-serif" font-size="14" fill="#1F2937">2. Social: Promoting diversity and inclusion across our workforce and supply chain.</text>
  <text x="320" y="585" font-family="Inter, sans-serif" font-size="14" fill="#1F2937">3. Governance: Maintaining transparent reporting and ethical business practices.</text>
  
  <rect x="900" y="445" width="50" height="24" rx="12" fill="#EBF5FF"/>
  <text x="915" y="462" font-family="Inter, sans-serif" font-size="12" fill="#1E40AF">ESG</text>
  
  <rect x="960" y="445" width="70" height="24" rx="12" fill="#E6F7EC"/>
  <text x="975" y="462" font-family="Inter, sans-serif" font-size="12" fill="#047857">Public</text>
  
  <circle cx="1050" cy="460" r="12" fill="#F3F4F6"/>
  <text x="1046" y="464" font-family="Inter, sans-serif" font-size="12" fill="#6B7280">E</text>
  
  <circle cx="1080" cy="460" r="12" fill="#F3F4F6"/>
  <text x="1076" y="464" font-family="Inter, sans-serif" font-size="12" fill="#6B7280">D</text>
  
  <circle cx="1110" cy="460" r="12" fill="#F3F4F6"/>
  <path d="M1105 460 L1115 460" stroke="#6B7280" stroke-width="1.5"/>
  
  <!-- Card 3 (Collapsed) -->
  <rect x="280" y="650" width="1000" height="80" rx="8" fill="#FFFFFF" stroke="#E5E7EB" stroke-width="1"/>
  <text x="300" y="680" font-family="Inter, sans-serif" font-size="16" font-weight="500" fill="#1F2937">What are the key growth markets for the company?</text>
  <text x="300" y="705" font-family="Inter, sans-serif" font-size="14" fill="#6B7280">We are focusing on expansion in Asia-Pacific and Latin American markets...</text>
  
  <rect x="900" y="665" width="120" height="24" rx="12" fill="#EBF5FF"/>
  <text x="915" y="682" font-family="Inter, sans-serif" font-size="12" fill="#1E40AF">Company Strategy</text>
  
  <rect x="1030" y="665" width="70" height="24" rx="12" fill="#FEF3C7"/>
  <text x="1045" y="682" font-family="Inter, sans-serif" font-size="12" fill="#92400E">Internal</text>
  
  <circle cx="1120" cy="680" r="12" fill="#F3F4F6"/>
  <text x="1116" y="684" font-family="Inter, sans-serif" font-size="12" fill="#6B7280">E</text>
  
  <circle cx="1150" cy="680" r="12" fill="#F3F4F6"/>
  <text x="1146" y="684" font-family="Inter, sans-serif" font-size="12" fill="#6B7280">D</text>
  
  <circle cx="1180" cy="680" r="12" fill="#F3F4F6"/>
  <path d="M1175 680 L1185 680 M1180 675 L1180 685" stroke="#6B7280" stroke-width="1.5"/>
  
  <!-- Add New FAQ Modal -->
  <rect x="340" y="150" width="600" height="500" rx="8" fill="#FFFFFF" stroke="#E5E7EB" stroke-width="1" filter="drop-shadow(0 4px 6px rgba(0, 0, 0, 0.1))"/>
  
  <text x="380" y="190" font-family="Inter, sans-serif" font-size="18" font-weight="600" fill="#1F2937">Add New FAQ</text>
  
  <text x="380" y="230" font-family="Inter, sans-serif" font-size="14" font-weight="500" fill="#1F2937">Question</text>
  <rect x="380" y="240" width="520" height="60" rx="6" fill="#FFFFFF" stroke="#E5E7EB" stroke-width="1"/>
  <text x="400" y="275" font-family="Inter, sans-serif" font-size="14" fill="#6B7280">Enter question here...</text>
  
  <text x="380" y="330" font-family="Inter, sans-serif" font-size="14" font-weight="500" fill="#1F2937">Answer</text>
  <rect x="380" y="340" width="520" height="120" rx="6" fill="#FFFFFF" stroke="#E5E7EB" stroke-width="1"/>
  <text x="400" y="365" font-family="Inter, sans-serif" font-size="14" fill="#6B7280">Enter answer here...</text>
  
  <text x="380" y="490" font-family="Inter, sans-serif" font-size="14" font-weight="500" fill="#1F2937">Category</text>
  <rect x="380" y="500" width="240" height="40" rx="6" fill="#FFFFFF" stroke="#E5E7EB" stroke-width="1"/>
  <text x="400" y="525" font-family="Inter, sans-serif" font-size="14" fill="#6B7280">Select category</text>
  <path d="M600 520 L610 510 L620 520" stroke="#6B7280" stroke-width="1.5" fill="none"/>
  
  <text x="380" y="570" font-family="Inter, sans-serif" font-size="14" font-weight="500" fill="#1F2937">Visibility</text>
  
  <circle cx="400" cy="600" r="10" fill="#FFFFFF" stroke="#1E40AF" stroke-width="2"/>
  <circle cx="400" cy="600" r="5" fill="#1E40AF"/>
  <text x="420" y="605" font-family="Inter, sans-serif" font-size="14" fill="#1F2937">Public</text>
  
  <circle cx="500" cy="600" r="10" fill="#FFFFFF" stroke="#E5E7EB" stroke-width="2"/>
  <text x="520" y="605" font-family="Inter, sans-serif" font-size="14" fill="#1F2937">Internal</text>
  
  <rect x="700" y="580" width="100" height="40" rx="6" fill="#1E40AF"/>
  <text x="730" y="605" font-family="Inter, sans-serif" font-size="14" font-weight="500" fill="#FFFFFF">Save</text>
  
  <rect x="590" y="580" width="100" height="40" rx="6" fill="#FFFFFF" stroke="#E5E7EB" stroke-width="1"/>
  <text x="615" y="605" font-family="Inter, sans-serif" font-size="14" fill="#6B7280">Cancel</text>
</svg>