<?xml version="1.0" encoding="UTF-8"?>
<svg width="800" height="1200" viewBox="0 0 800 1200" xmlns="http://www.w3.org/2000/svg">
  <!-- Background -->
  <rect width="800" height="1200" fill="#F9FAFB" />
  
  <!-- Status Bar -->
  <rect x="0" y="0" width="800" height="40" fill="#1E40AF" />
  <text x="40" y="25" font-family="Inter, sans-serif" font-size="12" fill="#FFFFFF">9:41 AM</text>
  <text x="760" y="25" font-family="Inter, sans-serif" font-size="12" fill="#FFFFFF" text-anchor="end">100%</text>
  
  <!-- Search Bar -->
  <rect x="20" y="60" width="760" height="50" rx="8" fill="#FFFFFF" stroke="#E5E7EB" stroke-width="1" />
  <circle cx="50" cy="85" r="12" stroke="#6B7280" stroke-width="2" fill="none" />
  <line x1="58" y1="93" x2="70" y2="105" stroke="#6B7280" stroke-width="2" />
  <text x="80" y="90" font-family="Inter, sans-serif" font-size="14" fill="#9CA3AF">Search companies or conversations...</text>
  
  <!-- Conversation List Section -->
  <text x="20" y="140" font-family="Inter, sans-serif" font-size="18" font-weight="bold" fill="#1F2937">Recent Conversations</text>
  
  <!-- Conversation Item 1 -->
  <rect x="20" y="160" width="760" height="80" rx="8" fill="#FFFFFF" stroke="#E5E7EB" stroke-width="1" />
  <circle cx="60" cy="200" r="25" fill="#3B82F6" />
  <text x="60" y="205" font-family="Inter, sans-serif" font-size="14" font-weight="bold" fill="#FFFFFF" text-anchor="middle">AC</text>
  <text x="100" y="190" font-family="Inter, sans-serif" font-size="16" font-weight="bold" fill="#1F2937">ACME Corporation</text>
  <text x="100" y="215" font-family="Inter, sans-serif" font-size="14" fill="#6B7280">New quarterly results announced. Check out our...</text>
  <text x="740" y="190" font-family="Inter, sans-serif" font-size="12" fill="#6B7280" text-anchor="end">2m ago</text>
  <circle cx="740" cy="210" r="10" fill="#3B82F6" />
  <text x="740" y="214" font-family="Inter, sans-serif" font-size="12" fill="#FFFFFF" text-anchor="middle">3</text>
  
  <!-- Conversation Item 2 -->
  <rect x="20" y="250" width="760" height="80" rx="8" fill="#FFFFFF" stroke="#E5E7EB" stroke-width="1" />
  <circle cx="60" cy="290" r="25" fill="#F59E0B" />
  <text x="60" y="295" font-family="Inter, sans-serif" font-size="14" font-weight="bold" fill="#FFFFFF" text-anchor="middle">GH</text>
  <text x="100" y="280" font-family="Inter, sans-serif" font-size="16" font-weight="bold" fill="#1F2937">Global Health Ltd</text>
  <text x="100" y="305" font-family="Inter, sans-serif" font-size="14" fill="#6B7280">Thanks for your question about our new product...</text>
  <text x="740" y="280" font-family="Inter, sans-serif" font-size="12" fill="#6B7280" text-anchor="end">1h ago</text>
  
  <!-- Conversation Item 3 -->
  <rect x="20" y="340" width="760" height="80" rx="8" fill="#FFFFFF" stroke="#E5E7EB" stroke-width="1" />
  <circle cx="60" cy="380" r="25" fill="#10B981" />
  <text x="60" y="385" font-family="Inter, sans-serif" font-size="14" font-weight="bold" fill="#FFFFFF" text-anchor="middle">TE</text>
  <text x="100" y="370" font-family="Inter, sans-serif" font-size="16" font-weight="bold" fill="#1F2937">Tech Enterprises Inc</text>
  <text x="100" y="395" font-family="Inter, sans-serif" font-size="14" fill="#6B7280">Join us for our upcoming product launch event...</text>
  <text x="740" y="370" font-family="Inter, sans-serif" font-size="12" fill="#6B7280" text-anchor="end">1d ago</text>
  
  <!-- Trending Section -->
  <text x="20" y="450" font-family="Inter, sans-serif" font-size="18" font-weight="bold" fill="#1F2937">Trending Announcements</text>
  
  <!-- Trending Item 1 -->
  <rect x="20" y="470" width="760" height="120" rx="8" fill="#FFFFFF" stroke="#E5E7EB" stroke-width="1" />
  <circle cx="60" cy="510" r="25" fill="#3B82F6" />
  <text x="60" y="515" font-family="Inter, sans-serif" font-size="14" font-weight="bold" fill="#FFFFFF" text-anchor="middle">AC</text>
  <text x="100" y="500" font-family="Inter, sans-serif" font-size="16" font-weight="bold" fill="#1F2937">ACME Corporation</text>
  <text x="100" y="525" font-family="Inter, sans-serif" font-size="14" fill="#1F2937">Quarterly Results: Revenue up 15%, exceeding market expectations. New sustainability initiatives announced.</text>
  <text x="740" y="500" font-family="Inter, sans-serif" font-size="12" fill="#6B7280" text-anchor="end">2h ago</text>
  
  <!-- Trending Item 2 -->
  <rect x="20" y="600" width="760" height="120" rx="8" fill="#FFFFFF" stroke="#E5E7EB" stroke-width="1" />
  <circle cx="60" cy="640" r="25" fill="#10B981" />
  <text x="60" y="645" font-family="Inter, sans-serif" font-size="14" font-weight="bold" fill="#FFFFFF" text-anchor="middle">TE</text>
  <text x="100" y="630" font-family="Inter, sans-serif" font-size="16" font-weight="bold" fill="#1F2937">Tech Enterprises Inc</text>
  <text x="100" y="655" font-family="Inter, sans-serif" font-size="14" fill="#1F2937">Product Launch: Join us for the unveiling of our revolutionary new tech product on June 15th.</text>
  <text x="740" y="630" font-family="Inter, sans-serif" font-size="12" fill="#6B7280" text-anchor="end">1d ago</text>
  
  <!-- Polls Section -->
  <text x="20" y="750" font-family="Inter, sans-serif" font-size="18" font-weight="bold" fill="#1F2937">Active Polls</text>
  
  <!-- Poll Item -->
  <rect x="20" y="770" width="760" height="180" rx="8" fill="#FFFFFF" stroke="#E5E7EB" stroke-width="1" />
  <circle cx="60" cy="810" r="25" fill="#F59E0B" />
  <text x="60" y="815" font-family="Inter, sans-serif" font-size="14" font-weight="bold" fill="#FFFFFF" text-anchor="middle">GH</text>
  <text x="100" y="800" font-family="Inter, sans-serif" font-size="16" font-weight="bold" fill="#1F2937">Global Health Ltd</text>
  <text x="100" y="825" font-family="Inter, sans-serif" font-size="14" fill="#1F2937">Which health topic would you like us to focus on in our next investor briefing?</text>
  
  <!-- Poll Options -->
  <rect x="100" y="845" width="680" height="40" rx="8" fill="#F3F4F6" />
  <rect x="100" y="845" width="340" height="40" rx="8" fill="#3B82F6" />
  <text x="120" y="870" font-family="Inter, sans-serif" font-size="14" fill="#FFFFFF">Preventative Healthcare (50%)</text>
  
  <rect x="100" y="895" width="680" height="40" rx="8" fill="#F3F4F6" />
  <rect x="100" y="895" width="204" height="40" rx="8" fill="#3B82F6" />
  <text x="120" y="920" font-family="Inter, sans-serif" font-size="14" fill="#FFFFFF">Medical Technology (30%)</text>
  
  <text x="740" y="800" font-family="Inter, sans-serif" font-size="12" fill="#6B7280" text-anchor="end">Ends in 2d</text>
  
  <!-- Navigation Bar -->
  <rect x="0" y="1120" width="800" height="80" fill="#FFFFFF" stroke="#E5E7EB" stroke-width="1" />
  
  <!-- Home Tab (Active) -->
  <circle cx="120" cy="1150" r="30" fill="#EFF6FF" />
  <rect x="105" y="1140" width="30" height="30" fill="#3B82F6" rx="4" />
  <text x="120" y="1190" font-family="Inter, sans-serif" font-size="12" font-weight="bold" fill="#3B82F6" text-anchor="middle">Home</text>
  
  <!-- Companies Tab -->
  <circle cx="280" cy="1150" r="30" fill="#FFFFFF" />
  <rect x="265" y="1140" width="30" height="30" fill="#6B7280" rx="4" />
  <text x="280" y="1190" font-family="Inter, sans-serif" font-size="12" fill="#6B7280" text-anchor="middle">Companies</text>
  
  <!-- Notifications Tab -->
  <circle cx="440" cy="1150" r="30" fill="#FFFFFF" />
  <circle cx="440" cy="1150" r="15" stroke="#6B7280" stroke-width="2" fill="none" />
  <text x="440" y="1190" font-family="Inter, sans-serif" font-size="12" fill="#6B7280" text-anchor="middle">Notifications</text>
  
  <!-- Profile Tab -->
  <circle cx="600" cy="1150" r="30" fill="#FFFFFF" />
  <circle cx="600" cy="1150" r="15" stroke="#6B7280" stroke-width="2" fill="none" />
  <circle cx="600" cy="1145" r="5" stroke="#6B7280" stroke-width="2" fill="none" />
  <path d="M585,1160 Q600,1170 615,1160" stroke="#6B7280" stroke-width="2" fill="none" />
  <text x="600" y="1190" font-family="Inter, sans-serif" font-size="12" fill="#6B7280" text-anchor="middle">Profile</text>
</svg>