<?xml version="1.0" encoding="UTF-8" standalone="no"?>
<svg width="1200" height="2400" viewBox="0 0 1200 2400" xmlns="http://www.w3.org/2000/svg">
  <!-- Background -->
  <rect width="1200" height="2400" fill="#F9FAFB"/>
  
  <!-- Title -->
  <text x="600" y="60" font-family="Inter, sans-serif" font-size="32" font-weight="bold" text-anchor="middle" fill="#1F2937">Diolog Onboarding Screens</text>
  
  <!-- Screen 1: Welcome Screen -->
  <rect x="100" y="120" width="320" height="640" rx="20" ry="20" fill="white" stroke="#E5E7EB" stroke-width="2"/>
  <rect x="100" y="120" width="320" height="40" rx="20" ry="20" fill="#1E40AF"/>
  <circle cx="120" cy="140" r="8" fill="white"/>
  <text x="260" y="145" font-family="Inter, sans-serif" font-size="14" font-weight="medium" text-anchor="middle" fill="white">9:41 AM</text>
  
  <!-- Welcome Screen Content -->
  <image x="180" y="200" width="160" height="160" href="https://api.dicebear.com/7.x/avataaars/svg?seed=diolog" preserveAspectRatio="xMidYMid meet"/>
  <text x="260" y="400" font-family="Inter, sans-serif" font-size="28" font-weight="bold" text-anchor="middle" fill="#1E40AF">Welcome to Diolog</text>
  <text x="260" y="440" font-family="Inter, sans-serif" font-size="16" font-weight="normal" text-anchor="middle" fill="#6B7280" width="280">Connect directly with the companies you invest in</text>
  <rect x="140" y="500" width="240" height="50" rx="25" ry="25" fill="#1E40AF"/>
  <text x="260" y="530" font-family="Inter, sans-serif" font-size="16" font-weight="medium" text-anchor="middle" fill="white">Get Started</text>
  <text x="260" y="580" font-family="Inter, sans-serif" font-size="14" font-weight="medium" text-anchor="middle" fill="#3B82F6">Already have an account? Sign In</text>
  
  <!-- Screen 2: Registration Form -->
  <rect x="460" y="120" width="320" height="640" rx="20" ry="20" fill="white" stroke="#E5E7EB" stroke-width="2"/>
  <rect x="460" y="120" width="320" height="40" rx="20" ry="20" fill="#1E40AF"/>
  <circle cx="480" cy="140" r="8" fill="white"/>
  <text x="620" y="145" font-family="Inter, sans-serif" font-size="14" font-weight="medium" text-anchor="middle" fill="white">9:41 AM</text>
  
  <!-- Registration Form Content -->
  <text x="620" y="200" font-family="Inter, sans-serif" font-size="24" font-weight="bold" text-anchor="middle" fill="#1F2937">Create Your Account</text>
  
  <!-- Form Fields -->
  <text x="480" y="250" font-family="Inter, sans-serif" font-size="14" font-weight="medium" fill="#4B5563">Full Name</text>
  <rect x="480" y="260" width="280" height="40" rx="6" ry="6" fill="white" stroke="#D1D5DB" stroke-width="1"/>
  <text x="495" y="285" font-family="Inter, sans-serif" font-size="14" fill="#9CA3AF">John Smith</text>
  
  <text x="480" y="320" font-family="Inter, sans-serif" font-size="14" font-weight="medium" fill="#4B5563">Email Address</text>
  <rect x="480" y="330" width="280" height="40" rx="6" ry="6" fill="white" stroke="#D1D5DB" stroke-width="1"/>
  <text x="495" y="355" font-family="Inter, sans-serif" font-size="14" fill="#9CA3AF">john.smith@example.com</text>
  
  <text x="480" y="390" font-family="Inter, sans-serif" font-size="14" font-weight="medium" fill="#4B5563">Password</text>
  <rect x="480" y="400" width="280" height="40" rx="6" ry="6" fill="white" stroke="#D1D5DB" stroke-width="1"/>
  <text x="495" y="425" font-family="Inter, sans-serif" font-size="14" fill="#9CA3AF">••••••••••</text>
  
  <text x="480" y="460" font-family="Inter, sans-serif" font-size="14" font-weight="medium" fill="#4B5563">Confirm Password</text>
  <rect x="480" y="470" width="280" height="40" rx="6" ry="6" fill="white" stroke="#D1D5DB" stroke-width="1"/>
  <text x="495" y="495" font-family="Inter, sans-serif" font-size="14" fill="#9CA3AF">••••••••••</text>
  
  <!-- Terms and Privacy -->
  <rect x="480" y="530" width="20" height="20" rx="4" ry="4" fill="white" stroke="#3B82F6" stroke-width="2"/>
  <text x="510" y="545" font-family="Inter, sans-serif" font-size="12" fill="#4B5563">I agree to the </text>
  <text x="585" y="545" font-family="Inter, sans-serif" font-size="12" fill="#3B82F6">Terms of Service</text>
  <text x="510" y="565" font-family="Inter, sans-serif" font-size="12" fill="#4B5563">and </text>
  <text x="535" y="565" font-family="Inter, sans-serif" font-size="12" fill="#3B82F6">Privacy Policy</text>
  
  <rect x="500" y="590" width="240" height="50" rx="25" ry="25" fill="#1E40AF"/>
  <text x="620" y="620" font-family="Inter, sans-serif" font-size="16" font-weight="medium" text-anchor="middle" fill="white">Create Account</text>
  
  <!-- Screen 3: Investment Interests -->
  <rect x="820" y="120" width="320" height="640" rx="20" ry="20" fill="white" stroke="#E5E7EB" stroke-width="2"/>
  <rect x="820" y="120" width="320" height="40" rx="20" ry="20" fill="#1E40AF"/>
  <circle cx="840" cy="140" r="8" fill="white"/>
  <text x="980" y="145" font-family="Inter, sans-serif" font-size="14" font-weight="medium" text-anchor="middle" fill="white">9:41 AM</text>
  
  <!-- Investment Interests Content -->
  <text x="980" y="200" font-family="Inter, sans-serif" font-size="24" font-weight="bold" text-anchor="middle" fill="#1F2937">Your Investment Interests</text>
  <text x="980" y="230" font-family="Inter, sans-serif" font-size="14" text-anchor="middle" fill="#6B7280">Select the sectors you're interested in</text>
  
  <!-- Interest Categories -->
  <rect x="840" y="260" width="130" height="40" rx="20" ry="20" fill="#EFF6FF" stroke="#3B82F6" stroke-width="1"/>
  <text x="905" y="285" font-family="Inter, sans-serif" font-size="14" font-weight="medium" text-anchor="middle" fill="#3B82F6">Technology</text>
  
  <rect x="980" y="260" width="140" height="40" rx="20" ry="20" fill="white" stroke="#D1D5DB" stroke-width="1"/>
  <text x="1050" y="285" font-family="Inter, sans-serif" font-size="14" font-weight="medium" text-anchor="middle" fill="#6B7280">Healthcare</text>
  
  <rect x="840" y="310" width="100" height="40" rx="20" ry="20" fill="#EFF6FF" stroke="#3B82F6" stroke-width="1"/>
  <text x="890" y="335" font-family="Inter, sans-serif" font-size="14" font-weight="medium" text-anchor="middle" fill="#3B82F6">Finance</text>
  
  <rect x="950" y="310" width="120" height="40" rx="20" ry="20" fill="white" stroke="#D1D5DB" stroke-width="1"/>
  <text x="1010" y="335" font-family="Inter, sans-serif" font-size="14" font-weight="medium" text-anchor="middle" fill="#6B7280">Energy</text>
  
  <rect x="840" y="360" width="160" height="40" rx="20" ry="20" fill="white" stroke="#D1D5DB" stroke-width="1"/>
  <text x="920" y="385" font-family="Inter, sans-serif" font-size="14" font-weight="medium" text-anchor="middle" fill="#6B7280">Consumer Goods</text>
  
  <rect x="840" y="410" width="140" height="40" rx="20" ry="20" fill="#EFF6FF" stroke="#3B82F6" stroke-width="1"/>
  <text x="910" y="435" font-family="Inter, sans-serif" font-size="14" font-weight="medium" text-anchor="middle" fill="#3B82F6">Real Estate</text>
  
  <rect x="840" y="460" width="120" height="40" rx="20" ry="20" fill="white" stroke="#D1D5DB" stroke-width="1"/>
  <text x="900" y="485" font-family="Inter, sans-serif" font-size="14" font-weight="medium" text-anchor="middle" fill="#6B7280">Materials</text>
  
  <rect x="970" y="460" width="150" height="40" rx="20" ry="20" fill="white" stroke="#D1D5DB" stroke-width="1"/>
  <text x="1045" y="485" font-family="Inter, sans-serif" font-size="14" font-weight="medium" text-anchor="middle" fill="#6B7280">Industrials</text>
  
  <rect x="840" y="510" width="180" height="40" rx="20" ry="20" fill="white" stroke="#D1D5DB" stroke-width="1"/>
  <text x="930" y="535" font-family="Inter, sans-serif" font-size="14" font-weight="medium" text-anchor="middle" fill="#6B7280">Telecommunications</text>
  
  <rect x="860" y="590" width="240" height="50" rx="25" ry="25" fill="#1E40AF"/>
  <text x="980" y="620" font-family="Inter, sans-serif" font-size="16" font-weight="medium" text-anchor="middle" fill="white">Continue</text>
  
  <!-- Screen 4: Company Discovery -->
  <rect x="100" y="800" width="320" height="640" rx="20" ry="20" fill="white" stroke="#E5E7EB" stroke-width="2"/>
  <rect x="100" y="800" width="320" height="40" rx="20" ry="20" fill="#1E40AF"/>
  <circle cx="120" cy="820" r="8" fill="white"/>
  <text x="260" y="825" font-family="Inter, sans-serif" font-size="14" font-weight="medium" text-anchor="middle" fill="white">9:41 AM</text>
  
  <!-- Company Discovery Content -->
  <text x="260" y="880" font-family="Inter, sans-serif" font-size="24" font-weight="bold" text-anchor="middle" fill="#1F2937">Discover Companies</text>
  <text x="260" y="910" font-family="Inter, sans-serif" font-size="14" text-anchor="middle" fill="#6B7280">Follow companies to stay updated</text>
  
  <!-- Search Bar -->
  <rect x="120" y="940" width="280" height="40" rx="20" ry="20" fill="white" stroke="#D1D5DB" stroke-width="1"/>
  <circle cx="140" cy="960" r="8" fill="#6B7280"/>
  <line x1="136" y1="964" x2="132" y2="968" stroke="#6B7280" stroke-width="2"/>
  <text x="160" y="965" font-family="Inter, sans-serif" font-size="14" fill="#9CA3AF">Search companies</text>
  
  <!-- Company Cards -->
  <rect x="120" y="1000" width="280" height="80" rx="8" ry="8" fill="white" stroke="#E5E7EB" stroke-width="1"/>
  <circle cx="150" cy="1040" r="20" fill="#3B82F6"/>
  <text x="150" y="1045" font-family="Inter, sans-serif" font-size="14" font-weight="bold" text-anchor="middle" fill="white">AC</text>
  <text x="190" y="1030" font-family="Inter, sans-serif" font-size="16" font-weight="medium" fill="#1F2937">Acme Corporation</text>
  <text x="190" y="1055" font-family="Inter, sans-serif" font-size="14" fill="#6B7280">Technology • ACM</text>
  <rect x="350" y="1030" width="30" height="30" rx="15" ry="15" fill="#1E40AF"/>
  <text x="365" y="1040" font-family="Inter, sans-serif" font-size="16" font-weight="bold" text-anchor="middle" fill="white">+</text>
  
  <rect x="120" y="1090" width="280" height="80" rx="8" ry="8" fill="white" stroke="#E5E7EB" stroke-width="1"/>
  <circle cx="150" cy="1130" r="20" fill="#F59E0B"/>
  <text x="150" y="1135" font-family="Inter, sans-serif" font-size="14" font-weight="bold" text-anchor="middle" fill="white">GH</text>
  <text x="190" y="1120" font-family="Inter, sans-serif" font-size="16" font-weight="medium" fill="#1F2937">Global Health</text>
  <text x="190" y="1145" font-family="Inter, sans-serif" font-size="14" fill="#6B7280">Healthcare • GLH</text>
  <rect x="350" y="1120" width="30" height="30" rx="15" ry="15" fill="#1E40AF"/>
  <text x="365" y="1130" font-family="Inter, sans-serif" font-size="16" font-weight="bold" text-anchor="middle" fill="white">+</text>
  
  <rect x="120" y="1180" width="280" height="80" rx="8" ry="8" fill="white" stroke="#E5E7EB" stroke-width="1"/>
  <circle cx="150" cy="1220" r="20" fill="#10B981"/>
  <text x="150" y="1225" font-family="Inter, sans-serif" font-size="14" font-weight="bold" text-anchor="middle" fill="white">FG</text>
  <text x="190" y="1210" font-family="Inter, sans-serif" font-size="16" font-weight="medium" fill="#1F2937">Future Group</text>
  <text x="190" y="1235" font-family="Inter, sans-serif" font-size="14" fill="#6B7280">Finance • FTG</text>
  <rect x="350" y="1210" width="30" height="30" rx="15" ry="15" fill="#1E40AF"/>
  <text x="365" y="1220" font-family="Inter, sans-serif" font-size="16" font-weight="bold" text-anchor="middle" fill="white">+</text>
  
  <rect x="140" y="1300" width="240" height="50" rx="25" ry="25" fill="#1E40AF"/>
  <text x="260" y="1330" font-family="Inter, sans-serif" font-size="16" font-weight="medium" text-anchor="middle" fill="white">Continue</text>
  
  <!-- Screen 5: Notification Preferences -->
  <rect x="460" y="800" width="320" height="640" rx="20" ry="20" fill="white" stroke="#E5E7EB" stroke-width="2"/>
  <rect x="460" y="800" width="320" height="40" rx="20" ry="20" fill="#1E40AF"/>
  <circle cx="480" cy="820" r="8" fill="white"/>
  <text x="620" y="825" font-family="Inter, sans-serif" font-size="14" font-weight="medium" text-anchor="middle" fill="white">9:41 AM</text>
  
  <!-- Notification Preferences Content -->
  <text x="620" y="880" font-family="Inter, sans-serif" font-size="24" font-weight="bold" text-anchor="middle" fill="#1F2937">Notification Preferences</text>
  <text x="620" y="910" font-family="Inter, sans-serif" font-size="14" text-anchor="middle" fill="#6B7280">Choose what you want to be notified about</text>
  
  <!-- Notification Options -->
  <rect x="480" y="950" width="280" height="60" rx="8" ry="8" fill="white" stroke="#E5E7EB" stroke-width="1"/>
  <text x="500" y="980" font-family="Inter, sans-serif" font-size="16" font-weight="medium" fill="#1F2937">Company Announcements</text>
  <rect x="730" y="965" width="50" height="30" rx="15" ry="15" fill="#1E40AF"/>
  <circle cx="745" cy="980" r="12" fill="white"/>
  
  <rect x="480" y="1020" width="280" height="60" rx="8" ry="8" fill="white" stroke="#E5E7EB" stroke-width="1"/>
  <text x="500" y="1050" font-family="Inter, sans-serif" font-size="16" font-weight="medium" fill="#1F2937">Question Responses</text>
  <rect x="730" y="1035" width="50" height="30" rx="15" ry="15" fill="#1E40AF"/>
  <circle cx="745" cy="1050" r="12" fill="white"/>
  
  <rect x="480" y="1090" width="280" height="60" rx="8" ry="8" fill="white" stroke="#E5E7EB" stroke-width="1"/>
  <text x="500" y="1120" font-family="Inter, sans-serif" font-size="16" font-weight="medium" fill="#1F2937">Event Reminders</text>
  <rect x="730" y="1105" width="50" height="30" rx="15" ry="15" fill="#1E40AF"/>
  <circle cx="745" cy="1120" r="12" fill="white"/>
  
  <rect x="480" y="1160" width="280" height="60" rx="8" ry="8" fill="white" stroke="#E5E7EB" stroke-width="1"/>
  <text x="500" y="1190" font-family="Inter, sans-serif" font-size="16" font-weight="medium" fill="#1F2937">New Polls</text>
  <rect x="730" y="1175" width="50" height="30" rx="15" ry="15" fill="#D1D5DB"/>
  <circle cx="760" cy="1190" r="12" fill="white"/>
  
  <rect x="480" y="1230" width="280" height="60" rx="8" ry="8" fill="white" stroke="#E5E7EB" stroke-width="1"/>
  <text x="500" y="1260" font-family="Inter, sans-serif" font-size="16" font-weight="medium" fill="#1F2937">Market Updates</text>
  <rect x="730" y="1245" width="50" height="30" rx="15" ry="15" fill="#D1D5DB"/>
  <circle cx="760" cy="1260" r="12" fill="white"/>
  
  <rect x="500" y="1320" width="240" height="50" rx="25" ry="25" fill="#1E40AF"/>
  <text x="620" y="1350" font-family="Inter, sans-serif" font-size="16" font-weight="medium" text-anchor="middle" fill="white">Continue</text>
  
  <!-- Screen 6: Welcome & App Introduction -->
  <rect x="820" y="800" width="320" height="640" rx="20" ry="20" fill="white" stroke="#E5E7EB" stroke-width="2"/>
  <rect x="820" y="800" width="320" height="40" rx="20" ry="20" fill="#1E40AF"/>
  <circle cx="840" cy="820" r="8" fill="white"/>
  <text x="980" y="825" font-family="Inter, sans-serif" font-size="14" font-weight="medium" text-anchor="middle" fill="white">9:41 AM</text>
  
  <!-- Welcome & App Introduction Content -->
  <text x="980" y="880" font-family="Inter, sans-serif" font-size="24" font-weight="bold" text-anchor="middle" fill="#1F2937">You're All Set!</text>
  <text x="980" y="910" font-family="Inter, sans-serif" font-size="14" text-anchor="middle" fill="#6B7280">Here's what you can do with Diolog</text>
  
  <!-- App Features -->
  <rect x="840" y="950" width="280" height="80" rx="8" ry="8" fill="white" stroke="#E5E7EB" stroke-width="1"/>
  <circle cx="870" cy="990" r="20" fill="#3B82F6"/>
  <text x="870" y="995" font-family="Inter, sans-serif" font-size="14" font-weight="bold" text-anchor="middle" fill="white">1</text>
  <text x="900" y="980" font-family="Inter, sans-serif" font-size="16" font-weight="medium" fill="#1F2937">Chat with Companies</text>
  <text x="900" y="1005" font-family="Inter, sans-serif" font-size="14" fill="#6B7280">Ask questions directly to IR teams</text>
  
  <rect x="840" y="1040" width="280" height="80" rx="8" ry="8" fill="white" stroke="#E5E7EB" stroke-width="1"/>
  <circle cx="870" cy="1080" r="20" fill="#F59E0B"/>
  <text x="870" y="1085" font-family="Inter, sans-serif" font-size="14" font-weight="bold" text-anchor="middle" fill="white">2</text>
  <text x="900" y="1070" font-family="Inter, sans-serif" font-size="16" font-weight="medium" fill="#1F2937">Get Announcements</text>
  <text x="900" y="1095" font-family="Inter, sans-serif" font-size="14" fill="#6B7280">Receive real-time company updates</text>
  
  <rect x="840" y="1130" width="280" height="80" rx="8" ry="8" fill="white" stroke="#E5E7EB" stroke-width="1"/>
  <circle cx="870" cy="1170" r="20" fill="#10B981"/>
  <text x="870" y="1175" font-family="Inter, sans-serif" font-size="14" font-weight="bold" text-anchor="middle" fill="white">3</text>
  <text x="900" y="1160" font-family="Inter, sans-serif" font-size="16" font-weight="medium" fill="#1F2937">Participate in Events</text>
  <text x="900" y="1185" font-family="Inter, sans-serif" font-size="14" fill="#6B7280">Join earnings calls and presentations</text>
  
  <rect x="840" y="1220" width="280" height="80" rx="8" ry="8" fill="white" stroke="#E5E7EB" stroke-width="1"/>
  <circle cx="870" cy="1260" r="20" fill="#EF4444"/>
  <text x="870" y="1265" font-family="Inter, sans-serif" font-size="14" font-weight="bold" text-anchor="middle" fill="white">4</text>
  <text x="900" y="1250" font-family="Inter, sans-serif" font-size="16" font-weight="medium" fill="#1F2937">Vote in Polls</text>
  <text x="900" y="1275" font-family="Inter, sans-serif" font-size="14" fill="#6B7280">Share your opinion on company matters</text>
  
  <rect x="860" y="1330" width="240" height="50" rx="25" ry="25" fill="#1E40AF"/>
  <text x="980" y="1360" font-family="Inter, sans-serif" font-size="16" font-weight="medium" text-anchor="middle" fill="white">Get Started</text>
  
  <!-- Navigation Dots -->
  <circle cx="580" y="1500" r="8" fill="#D1D5DB"/>
  <circle cx="600" y="1500" r="8" fill="#D1D5DB"/>
  <circle cx="620" y="1500" r="8" fill="#D1D5DB"/>
  <circle cx="640" y="1500" r="8" fill="#D1D5DB"/>
  <circle cx="660" y="1500" r="8" fill="#D1D5DB"/>
  <circle cx="680" y="1500" r="8" fill="#1E40AF"/>
</svg>