<?xml version="1.0" encoding="UTF-8"?>
<svg width="1200" height="1600" viewBox="0 0 1200 1600" xmlns="http://www.w3.org/2000/svg">
  <!-- Background -->
  <rect width="1200" height="1600" fill="#F9FAFB"/>
  
  <!-- Sidebar Navigation -->
  <rect x="0" y="0" width="240" height="1600" fill="#FFFFFF" stroke="#E5E7EB" stroke-width="1"/>
  
  <!-- Company Logo -->
  <rect x="20" y="20" width="200" height="60" rx="4" fill="#1E40AF"/>
  <text x="120" y="55" font-family="Inter, sans-serif" font-size="18" font-weight="bold" fill="#FFFFFF" text-anchor="middle">DIOLOG</text>
  
  <!-- Sidebar Menu Items -->
  <rect x="20" y="120" width="200" height="40" rx="4" fill="#F3F4F6"/>
  <text x="50" y="145" font-family="Inter, sans-serif" font-size="14" fill="#1F2937">Dashboard</text>
  
  <rect x="20" y="170" width="200" height="40" rx="4" fill="#F3F4F6"/>
  <text x="50" y="195" font-family="Inter, sans-serif" font-size="14" fill="#1F2937">Calendar/Events</text>
  
  <rect x="20" y="220" width="200" height="40" rx="4" fill="#F3F4F6"/>
  <text x="50" y="245" font-family="Inter, sans-serif" font-size="14" fill="#1F2937">Announcements</text>
  
  <rect x="20" y="270" width="200" height="40" rx="4" fill="#F3F4F6"/>
  <text x="50" y="295" font-family="Inter, sans-serif" font-size="14" fill="#1F2937">Questions Board</text>
  <circle cx="190" y="295" r="10" fill="#EF4444"/>
  <text x="190" y="299" font-family="Inter, sans-serif" font-size="12" font-weight="bold" fill="#FFFFFF" text-anchor="middle">5</text>
  
  <rect x="20" y="320" width="200" height="40" rx="4" fill="#EBF5FF"/>
  <text x="50" y="345" font-family="Inter, sans-serif" font-size="14" font-weight="bold" fill="#1E40AF">Our FAQs</text>
  
  <rect x="20" y="370" width="200" height="40" rx="4" fill="#F3F4F6"/>
  <text x="50" y="395" font-family="Inter, sans-serif" font-size="14" fill="#1F2937">My Team</text>
  
  <rect x="20" y="420" width="200" height="40" rx="4" fill="#F3F4F6"/>
  <text x="50" y="445" font-family="Inter, sans-serif" font-size="14" fill="#1F2937">Question Registry</text>
  
  <!-- Upgrade to Premium CTA -->
  <rect x="20" y="1500" width="200" height="50" rx="4" fill="#F59E0B"/>
  <text x="120" y="1530" font-family="Inter, sans-serif" font-size="14" font-weight="bold" fill="#FFFFFF" text-anchor="middle">Upgrade to Premium</text>
  
  <!-- Top Header -->
  <rect x="240" y="0" width="960" height="64" fill="#FFFFFF" stroke="#E5E7EB" stroke-width="1"/>
  
  <!-- Company Profile Dropdown -->
  <rect x="260" y="16" width="180" height="32" rx="16" fill="#F3F4F6"/>
  <circle cx="276" cy="32" r="12" fill="#1E40AF"/>
  <text x="292" y="36" font-family="Inter, sans-serif" font-size="14" fill="#1F2937">Acme Corporation</text>
  <text x="430" y="36" font-family="Inter, sans-serif" font-size="14" fill="#6B7280">▼</text>
  
  <!-- Add New FAQ Button -->
  <rect x="900" y="16" width="140" height="32" rx="16" fill="#1E40AF"/>
  <text x="970" y="36" font-family="Inter, sans-serif" font-size="14" font-weight="bold" fill="#FFFFFF" text-anchor="middle">+ Add New FAQ</text>
  
  <!-- Notification Icon -->
  <circle cx="1060" cy="32" r="16" fill="#F3F4F6"/>
  <text x="1060" y="37" font-family="Inter, sans-serif" font-size="16" fill="#1F2937" text-anchor="middle">🔔</text>
  
  <!-- User Profile Dropdown -->
  <circle cx="1100" cy="32" r="16" fill="#3B82F6"/>
  <text x="1100" y="37" font-family="Inter, sans-serif" font-size="14" font-weight="bold" fill="#FFFFFF" text-anchor="middle">JD</text>
  
  <!-- Main Content Area -->
  <rect x="240" y="64" width="960" height="1536" fill="#F9FAFB"/>
  
  <!-- Page Header -->
  <rect x="280" y="104" width="880" height="60" fill="#F9FAFB"/>
  <text x="280" y="144" font-family="Inter, sans-serif" font-size="24" font-weight="bold" fill="#1F2937">Our FAQs</text>
  
  <!-- Search and Filter -->
  <rect x="280" y="164" width="400" height="40" rx="20" fill="#FFFFFF" stroke="#E5E7EB" stroke-width="1"/>
  <text x="320" y="189" font-family="Inter, sans-serif" font-size="14" fill="#9CA3AF">Search FAQs...</text>
  <text x="300" y="189" font-family="Inter, sans-serif" font-size="14" fill="#9CA3AF">🔍</text>
  
  <rect x="700" y="164" width="120" height="40" rx="4" fill="#FFFFFF" stroke="#E5E7EB" stroke-width="1"/>
  <text x="730" y="189" font-family="Inter, sans-serif" font-size="14" fill="#1F2937">Filter</text>
  <text x="780" y="189" font-family="Inter, sans-serif" font-size="14" fill="#6B7280">▼</text>
  
  <!-- FAQ Categories Tabs -->
  <rect x="280" y="224" width="880" height="50" fill="#FFFFFF" stroke="#E5E7EB" stroke-width="1"/>
  
  <rect x="290" y="234" width="60" height="30" rx="15" fill="#EBF5FF" stroke="#3B82F6" stroke-width="1"/>
  <text x="320" y="254" font-family="Inter, sans-serif" font-size="14" font-weight="bold" fill="#1E40AF" text-anchor="middle">All</text>
  
  <rect x="360" y="234" width="160" height="30" rx="15" fill="#FFFFFF" stroke="#E5E7EB" stroke-width="1"/>
  <text x="440" y="254" font-family="Inter, sans-serif" font-size="14" fill="#1F2937" text-anchor="middle">Financial Information</text>
  
  <rect x="530" y="234" width="150" height="30" rx="15" fill="#FFFFFF" stroke="#E5E7EB" stroke-width="1"/>
  <text x="605" y="254" font-family="Inter, sans-serif" font-size="14" fill="#1F2937" text-anchor="middle">Company Strategy</text>
  
  <rect x="690" y="234" width="180" height="30" rx="15" fill="#FFFFFF" stroke="#E5E7EB" stroke-width="1"/>
  <text x="780" y="254" font-family="Inter, sans-serif" font-size="14" fill="#1F2937" text-anchor="middle">Shareholder Information</text>
  
  <rect x="880" y="234" width="120" height="30" rx="15" fill="#FFFFFF" stroke="#E5E7EB" stroke-width="1"/>
  <text x="940" y="254" font-family="Inter, sans-serif" font-size="14" fill="#1F2937" text-anchor="middle">+ Add Category</text>
  
  <!-- Visibility Filter -->
  <rect x="280" y="294" width="240" height="40" rx="20" fill="#FFFFFF" stroke="#E5E7EB" stroke-width="1"/>
  
  <rect x="285" y="299" width="70" height="30" rx="15" fill="#EBF5FF" stroke="#3B82F6" stroke-width="1"/>
  <text x="320" y="319" font-family="Inter, sans-serif" font-size="14" font-weight="bold" fill="#1E40AF" text-anchor="middle">All</text>
  
  <rect x="360" y="299" width="70" height="30" rx="15" fill="#FFFFFF"/>
  <text x="395" y="319" font-family="Inter, sans-serif" font-size="14" fill="#1F2937" text-anchor="middle">Public</text>
  
  <rect x="435" y="299" width="80" height="30" rx="15" fill="#FFFFFF"/>
  <text x="475" y="319" font-family="Inter, sans-serif" font-size="14" fill="#1F2937" text-anchor="middle">Internal</text>
  
  <!-- FAQs List -->
  <!-- FAQ Card 1 (Collapsed) -->
  <rect x="280" y="354" width="880" height="100" rx="8" fill="#FFFFFF" stroke="#E5E7EB" stroke-width="1"/>
  <text x="320" y="384" font-family="Inter, sans-serif" font-size="16" font-weight="bold" fill="#1F2937">What is the company's dividend policy?</text>
  <text x="320" y="414" font-family="Inter, sans-serif" font-size="14" fill="#6B7280">Our dividend policy aims to balance shareholder returns with reinvestment for growth. We target a payout ratio of...</text>
  
  <rect x="320" y="434" width="120" height="24" rx="12" fill="#EBF5FF"/>
  <text x="380" y="450" font-family="Inter, sans-serif" font-size="12" fill="#1E40AF" text-anchor="middle">Financial</text>
  
  <rect x="450" y="434" width="80" height="24" rx="12" fill="#E6FFEC"/>
  <text x="490" y="450" font-family="Inter, sans-serif" font-size="12" fill="#10B981" text-anchor="middle">Public</text>
  
  <text x="1100" y="384" font-family="Inter, sans-serif" font-size="20" fill="#6B7280">⋮</text>
  <text x="1140" y="404" font-family="Inter, sans-serif" font-size="20" fill="#6B7280">▼</text>
  
  <!-- FAQ Card 2 (Expanded) -->
  <rect x="280" y="474" width="880" height="250" rx="8" fill="#FFFFFF" stroke="#E5E7EB" stroke-width="1"/>
  <text x="320" y="504" font-family="Inter, sans-serif" font-size="16" font-weight="bold" fill="#1F2937">What is the company's ESG strategy?</text>
  
  <text x="320" y="534" font-family="Inter, sans-serif" font-size="14" fill="#1F2937">Our ESG strategy is built on three pillars:</text>
  
  <text x="340" y="564" font-family="Inter, sans-serif" font-size="14" fill="#1F2937">1. Environmental: We are committed to reducing our carbon footprint by 30% by 2025 and achieving carbon neutrality by 2030. We are investing in renewable energy sources and implementing energy-efficient practices across all our operations.</text>
  
  <text x="340" y="614" font-family="Inter, sans-serif" font-size="14" fill="#1F2937">2. Social: We prioritize diversity and inclusion in our workforce, with targets for gender and ethnic diversity at all levels. We also engage with local communities through various outreach programs.</text>
  
  <text x="340" y="664" font-family="Inter, sans-serif" font-size="14" fill="#1F2937">3. Governance: We maintain the highest standards of corporate governance, with independent board oversight, transparent reporting, and ethical business practices.</text>
  
  <rect x="320" y="684" width="80" height="24" rx="12" fill="#EBF5FF"/>
  <text x="360" y="700" font-family="Inter, sans-serif" font-size="12" fill="#1E40AF" text-anchor="middle">ESG</text>
  
  <rect x="410" y="684" width="80" height="24" rx="12" fill="#E6FFEC"/>
  <text x="450" y="700" font-family="Inter, sans-serif" font-size="12" fill="#10B981" text-anchor="middle">Public</text>
  
  <text x="1100" y="504" font-family="Inter, sans-serif" font-size="20" fill="#6B7280">⋮</text>
  <text x="1140" y="504" font-family="Inter, sans-serif" font-size="20" fill="#6B7280">▲</text>
  
  <!-- FAQ Card 3 (Collapsed) -->
  <rect x="280" y="744" width="880" height="100" rx="8" fill="#FFFFFF" stroke="#E5E7EB" stroke-width="1"/>
  <text x="320" y="774" font-family="Inter, sans-serif" font-size="16" font-weight="bold" fill="#1F2937">What are the company's growth targets for the next 5 years?</text>
  <text x="320" y="804" font-family="Inter, sans-serif" font-size="14" fill="#6B7280">Our 5-year growth strategy targets annual revenue growth of 15-20%, with expansion into new markets in Asia and...</text>
  
  <rect x="320" y="824" width="140" height="24" rx="12" fill="#EBF5FF"/>
  <text x="390" y="840" font-family="Inter, sans-serif" font-size="12" fill="#1E40AF" text-anchor="middle">Company Strategy</text>
  
  <rect x="470" y="824" width="80" height="24" rx="12" fill="#E6FFEC"/>
  <text x="510" y="840" font-family="Inter, sans-serif" font-size="12" fill="#10B981" text-anchor="middle">Public</text>
  
  <text x="1100" y="774" font-family="Inter, sans-serif" font-size="20" fill="#6B7280">⋮</text>
  <text x="1140" y="794" font-family="Inter, sans-serif" font-size="20" fill="#6B7280">▼</text>
  
  <!-- FAQ Card 4 (Collapsed) -->
  <rect x="280" y="864" width="880" height="100" rx="8" fill="#FFFFFF" stroke="#E5E7EB" stroke-width="1"/>
  <text x="320" y="894" font-family="Inter, sans-serif" font-size="16" font-weight="bold" fill="#1F2937">How can I access the company's annual reports?</text>
  <text x="320" y="924" font-family="Inter, sans-serif" font-size="14" fill="#6B7280">All our annual reports are available in the Investor Relations section of our website. You can also request...</text>
  
  <rect x="320" y="944" width="180" height="24" rx="12" fill="#EBF5FF"/>
  <text x="410" y="960" font-family="Inter, sans-serif" font-size="12" fill="#1E40AF" text-anchor="middle">Shareholder Information</text>
  
  <rect x="510" y="944" width="80" height="24" rx="12" fill="#E6FFEC"/>
  <text x="550" y="960" font-family="Inter, sans-serif" font-size="12" fill="#10B981" text-anchor="middle">Public</text>
  
  <text x="1100" y="894" font-family="Inter, sans-serif" font-size="20" fill="#6B7280">⋮</text>
  <text x="1140" y="914" font-family="Inter, sans-serif" font-size="20" fill="#6B7280">▼</text>
  
  <!-- FAQ Card 5 (Collapsed) -->
  <rect x="280" y="984" width="880" height="100" rx="8" fill="#FFFFFF" stroke="#E5E7EB" stroke-width="1"/>
  <text x="320" y="1014" font-family="Inter, sans-serif" font-size="16" font-weight="bold" fill="#1F2937">What is the company's approach to R&D investment?</text>
  <text x="320" y="1044" font-family="Inter, sans-serif" font-size="14" fill="#6B7280">R&D is a core focus area for our company. We currently invest approximately 12% of our annual revenue in...</text>
  
  <rect x="320" y="1064" width="140" height="24" rx="12" fill="#EBF5FF"/>
  <text x="390" y="1080" font-family="Inter, sans-serif" font-size="12" fill="#1E40AF" text-anchor="middle">Company Strategy</text>
  
  <rect x="470" y="1064" width="90" height="24" rx="12" fill="#FFECE6"/>
  <text x="515" y="1080" font-family="Inter, sans-serif" font-size="12" fill="#F43F5E" text-anchor="middle">Internal</text>
  
  <text x="1100" y="1014" font-family="Inter, sans-serif" font-size="20" fill="#6B7280">⋮</text>
  <text x="1140" y="1034" font-family="Inter, sans-serif" font-size="20" fill="#6B7280">▼</text>
  
  <!-- Add New FAQ Modal (shown as if open) -->
  <rect x="0" y="0" width="1200" height="1600" fill="#000000" opacity="0.5" style="display:none;"/>
  <rect x="300" y="200" width="600" height="600" rx="8" fill="#FFFFFF" stroke="#E5E7EB" stroke-width="1" style="display:none;"/>
  
  <text x="340" y="240" font-family="Inter, sans-serif" font-size="20" font-weight="bold" fill="#1F2937" style="display:none;">Add New FAQ</text>
  <text x="880" y="240" font-family="Inter, sans-serif" font-size="20" fill="#6B7280" style="display:none;">×</text>
  
  <text x="340" y="280" font-family="Inter, sans-serif" font-size="16" font-weight="bold" fill="#1F2937" style="display:none;">Question *</text>
  <rect x="340" y="300" width="520" height="80" rx="4" fill="#FFFFFF" stroke="#E5E7EB" stroke-width="1" style="display:none;"/>
  
  <text x="340" y="400" font-family="Inter, sans-serif" font-size="16" font-weight="bold" fill="#1F2937" style="display:none;">Answer *</text>
  <rect x="340" y="420" width="520" height="200" rx="4" fill="#FFFFFF" stroke="#E5E7EB" stroke-width="1" style="display:none;"/>
  
  <text x="340" y="640" font-family="Inter, sans-serif" font-size="16" font-weight="bold" fill="#1F2937" style="display:none;">Category</text>
  <rect x="340" y="660" width="240" height="40" rx="4" fill="#FFFFFF" stroke="#E5E7EB" stroke-width="1" style="display:none;"/>
  
  <text x="340" y="720" font-family="Inter, sans-serif" font-size="16" font-weight="bold" fill="#1F2937" style="display:none;">Visibility</text>
  
  <circle cx="360" cy="750" r="10" fill="#FFFFFF" stroke="#3B82F6" stroke-width="2" style="display:none;"/>
  <circle cx="360" cy="750" r="6" fill="#3B82F6" style="display:none;"/>
  <text x="380" y="754" font-family="Inter, sans-serif" font-size="14" fill="#1F2937" style="display:none;">Public (visible to investors)</text>
  
  <circle cx="360" cy="790" r="10" fill="#FFFFFF" stroke="#E5E7EB" stroke-width="2" style="display:none;"/>
  <text x="380" y="794" font-family="Inter, sans-serif" font-size="14" fill="#1F2937" style="display:none;">Internal (visible to team only)</text>
  
  <rect x="640" y="740" width="100" height="40" rx="4" fill="#1E40AF" style="display:none;"/>
  <text x="690" y="765" font-family="Inter, sans-serif" font-size="14" font-weight="bold" fill="#FFFFFF" text-anchor="middle" style="display:none;">Save</text>
  
  <rect x="530" y="740" width="100" height="40" rx="4" fill="#F3F4F6" stroke="#E5E7EB" stroke-width="1" style="display:none;"/>
  <text x="580" y="765" font-family="Inter, sans-serif" font-size="14" fill="#1F2937" text-anchor="middle" style="display:none;">Cancel</text>
</svg>