<?xml version="1.0" encoding="UTF-8"?>
<svg width="1280" height="800" viewBox="0 0 1280 800" fill="none" xmlns="http://www.w3.org/2000/svg">
  <!-- Background -->
  <rect width="1280" height="800" fill="#F9FAFB"/>
  
  <!-- Sidebar Navigation -->
  <rect x="0" y="0" width="240" height="800" fill="#FFFFFF" stroke="#E5E7EB" stroke-width="1"/>
  
  <!-- Sidebar Logo -->
  <rect x="24" y="24" width="192" height="40" rx="4" fill="#1E40AF" opacity="0.9"/>
  <text x="70" y="50" font-family="Inter, sans-serif" font-size="20" font-weight="bold" fill="white">DIOLOG</text>
  
  <!-- Sidebar Menu Items -->
  <text x="56" y="112" font-family="Inter, sans-serif" font-size="14" fill="#1F2937">Dashboard</text>
  <circle cx="32" cy="108" r="8" fill="#6B7280" opacity="0.8"/>
  
  <rect x="16" y="144" width="208" height="40" rx="4" fill="#3B82F6" opacity="0.1"/>
  <text x="56" y="168" font-family="Inter, sans-serif" font-size="14" fill="#1E40AF">Calendar/Events</text>
  <circle cx="32" cy="164" r="8" fill="#1E40AF" opacity="0.8"/>
  
  <text x="56" y="216" font-family="Inter, sans-serif" font-size="14" fill="#1F2937">Announcements</text>
  <circle cx="32" cy="212" r="8" fill="#6B7280" opacity="0.8"/>
  
  <text x="56" y="264" font-family="Inter, sans-serif" font-size="14" fill="#1F2937">Questions Board</text>
  <circle cx="32" cy="260" r="8" fill="#6B7280" opacity="0.8"/>
  <circle cx="180" cy="260" r="10" fill="#EF4444"/>
  <text x="177" y="264" font-family="Inter, sans-serif" font-size="12" font-weight="bold" fill="white">5</text>
  
  <text x="56" y="312" font-family="Inter, sans-serif" font-size="14" fill="#1F2937">Our FAQs</text>
  <circle cx="32" cy="308" r="8" fill="#6B7280" opacity="0.8"/>
  
  <text x="56" y="360" font-family="Inter, sans-serif" font-size="14" fill="#1F2937">My Team</text>
  <circle cx="32" cy="356" r="8" fill="#6B7280" opacity="0.8"/>
  
  <text x="56" y="408" font-family="Inter, sans-serif" font-size="14" fill="#1F2937">Question Registry</text>
  <circle cx="32" cy="404" r="8" fill="#6B7280" opacity="0.8"/>
  
  <text x="56" y="456" font-family="Inter, sans-serif" font-size="14" fill="#1F2937">Analytics</text>
  <circle cx="32" cy="452" r="8" fill="#6B7280" opacity="0.8"/>
  
  <text x="56" y="504" font-family="Inter, sans-serif" font-size="14" fill="#1F2937">Settings</text>
  <circle cx="32" cy="500" r="8" fill="#6B7280" opacity="0.8"/>
  
  <text x="56" y="552" font-family="Inter, sans-serif" font-size="14" fill="#1F2937">Give Feedback</text>
  <circle cx="32" cy="548" r="8" fill="#6B7280" opacity="0.8"/>
  
  <text x="56" y="600" font-family="Inter, sans-serif" font-size="14" fill="#1F2937">Contact Us</text>
  <circle cx="32" cy="596" r="8" fill="#6B7280" opacity="0.8"/>
  
  <!-- Upgrade to Premium CTA -->
  <rect x="24" y="648" width="192" height="48" rx="8" fill="#F59E0B" opacity="0.9"/>
  <text x="64" y="678" font-family="Inter, sans-serif" font-size="14" font-weight="bold" fill="white">Upgrade to Premium</text>
  
  <!-- Top Header -->
  <rect x="240" y="0" width="1040" height="64" fill="#FFFFFF" stroke="#E5E7EB" stroke-width="1"/>
  
  <!-- Company Profile Dropdown -->
  <rect x="264" y="16" width="200" height="32" rx="16" fill="#F9FAFB" stroke="#E5E7EB" stroke-width="1"/>
  <circle cx="280" cy="32" r="12" fill="#3B82F6"/>
  <text x="300" y="36" font-family="Inter, sans-serif" font-size="14" fill="#1F2937">Acme Corporation</text>
  <path d="M448 32 L456 40 L464 32" stroke="#6B7280" stroke-width="2" fill="none"/>
  
  <!-- Quick Action Button -->
  <rect x="900" y="16" width="140" height="32" rx="16" fill="#1E40AF"/>
  <text x="920" y="36" font-family="Inter, sans-serif" font-size="14" font-weight="bold" fill="white">Create Event</text>
  
  <!-- User Profile & Notifications -->
  <circle cx="1060" cy="32" r="16" fill="#F9FAFB" stroke="#E5E7EB" stroke-width="1"/>
  <path d="M1056 32 L1060 36 L1064 32" stroke="#6B7280" stroke-width="2" fill="none"/>
  
  <circle cx="1100" cy="32" r="16" fill="#F9FAFB" stroke="#E5E7EB" stroke-width="1"/>
  <path d="M1100 26 L1100 32 M1096 36 L1104 36" stroke="#6B7280" stroke-width="2"/>
  
  <circle cx="1140" cy="32" r="16" fill="#F9FAFB" stroke="#E5E7EB" stroke-width="1"/>
  <circle cx="1140" cy="32" r="8" fill="#6B7280" opacity="0.2"/>
  <text x="1138" y="36" font-family="Inter, sans-serif" font-size="12" font-weight="bold" fill="#1F2937">J</text>
  
  <!-- Main Content Area -->
  <rect x="264" y="88" width="992" height="48" rx="8" fill="#FFFFFF" stroke="#E5E7EB" stroke-width="1"/>
  <text x="288" y="118" font-family="Inter, sans-serif" font-size="18" font-weight="bold" fill="#1F2937">Calendar</text>
  
  <!-- Calendar View Tabs -->
  <rect x="800" y="96" width="80" height="32" rx="16 0 0 16" fill="#3B82F6" opacity="0.1"/>
  <text x="820" y="118" font-family="Inter, sans-serif" font-size="14" fill="#1E40AF">Month</text>
  
  <rect x="880" y="96" width="80" height="32" rx="0" fill="#FFFFFF" stroke="#E5E7EB" stroke-width="1"/>
  <text x="900" y="118" font-family="Inter, sans-serif" font-size="14" fill="#6B7280">Week</text>
  
  <rect x="960" y="96" width="80" height="32" rx="0 16 16 0" fill="#FFFFFF" stroke="#E5E7EB" stroke-width="1"/>
  <text x="980" y="118" font-family="Inter, sans-serif" font-size="14" fill="#6B7280">Day</text>
  
  <rect x="1060" y="96" width="80" height="32" rx="16" fill="#FFFFFF" stroke="#E5E7EB" stroke-width="1"/>
  <text x="1080" y="118" font-family="Inter, sans-serif" font-size="14" fill="#6B7280">List</text>
  
  <!-- Calendar Month View -->
  <rect x="264" y="152" width="992" height="480" rx="8" fill="#FFFFFF" stroke="#E5E7EB" stroke-width="1"/>
  
  <!-- Calendar Header -->
  <rect x="264" y="152" width="992" height="48" rx="8 8 0 0" fill="#F9FAFB" stroke="#E5E7EB" stroke-width="1"/>
  
  <!-- Month Navigation -->
  <text x="288" y="182" font-family="Inter, sans-serif" font-size="16" font-weight="bold" fill="#1F2937">November 2023</text>
  
  <circle cx="400" cy="176" r="16" fill="#F9FAFB" stroke="#E5E7EB" stroke-width="1"/>
  <path d="M396 176 L388 176" stroke="#6B7280" stroke-width="2"/>
  <path d="M396 172 L392 176 L396 180" stroke="#6B7280" stroke-width="2" fill="none"/>
  
  <circle cx="440" cy="176" r="16" fill="#F9FAFB" stroke="#E5E7EB" stroke-width="1"/>
  <path d="M444 176 L452 176" stroke="#6B7280" stroke-width="2"/>
  <path d="M444 172 L448 176 L444 180" stroke="#6B7280" stroke-width="2" fill="none"/>
  
  <rect x="1060" y="160" width="80" height="32" rx="16" fill="#FFFFFF" stroke="#E5E7EB" stroke-width="1"/>
  <text x="1080" y="182" font-family="Inter, sans-serif" font-size="14" fill="#6B7280">Today</text>
  
  <!-- Day Headers -->
  <text x="300" y="230" font-family="Inter, sans-serif" font-size="14" font-weight="bold" fill="#6B7280">Sun</text>
  <text x="442" y="230" font-family="Inter, sans-serif" font-size="14" font-weight="bold" fill="#6B7280">Mon</text>
  <text x="584" y="230" font-family="Inter, sans-serif" font-size="14" font-weight="bold" fill="#6B7280">Tue</text>
  <text x="726" y="230" font-family="Inter, sans-serif" font-size="14" font-weight="bold" fill="#6B7280">Wed</text>
  <text x="868" y="230" font-family="Inter, sans-serif" font-size="14" font-weight="bold" fill="#6B7280">Thu</text>
  <text x="1010" y="230" font-family="Inter, sans-serif" font-size="14" font-weight="bold" fill="#6B7280">Fri</text>
  <text x="1152" y="230" font-family="Inter, sans-serif" font-size="14" font-weight="bold" fill="#6B7280">Sat</text>
  
  <!-- Calendar Grid -->
  <line x1="264" y1="240" x2="1256" y2="240" stroke="#E5E7EB" stroke-width="1"/>
  <line x1="406" y1="200" x2="406" y2="632" stroke="#E5E7EB" stroke-width="1"/>
  <line x1="548" y1="200" x2="548" y2="632" stroke="#E5E7EB" stroke-width="1"/>
  <line x1="690" y1="200" x2="690" y2="632" stroke="#E5E7EB" stroke-width="1"/>
  <line x1="832" y1="200" x2="832" y2="632" stroke="#E5E7EB" stroke-width="1"/>
  <line x1="974" y1="200" x2="974" y2="632" stroke="#E5E7EB" stroke-width="1"/>
  <line x1="1116" y1="200" x2="1116" y2="632" stroke="#E5E7EB" stroke-width="1"/>
  
  <line x1="264" y1="310" x2="1256" y2="310" stroke="#E5E7EB" stroke-width="1"/>
  <line x1="264" y1="380" x2="1256" y2="380" stroke="#E5E7EB" stroke-width="1"/>
  <line x1="264" y1="450" x2="1256" y2="450" stroke="#E5E7EB" stroke-width="1"/>
  <line x1="264" y1="520" x2="1256" y2="520" stroke="#E5E7EB" stroke-width="1"/>
  <line x1="264" y1="590" x2="1256" y2="590" stroke="#E5E7EB" stroke-width="1"/>
  
  <!-- Calendar Days -->
  <!-- Week 1 -->
  <text x="300" y="270" font-family="Inter, sans-serif" font-size="14" fill="#6B7280" opacity="0.5">29</text>
  <text x="442" y="270" font-family="Inter, sans-serif" font-size="14" fill="#6B7280" opacity="0.5">30</text>
  <text x="584" y="270" font-family="Inter, sans-serif" font-size="14" fill="#6B7280" opacity="0.5">31</text>
  <text x="726" y="270" font-family="Inter, sans-serif" font-size="14" fill="#1F2937">1</text>
  <text x="868" y="270" font-family="Inter, sans-serif" font-size="14" fill="#1F2937">2</text>
  <text x="1010" y="270" font-family="Inter, sans-serif" font-size="14" fill="#1F2937">3</text>
  <text x="1152" y="270" font-family="Inter, sans-serif" font-size="14" fill="#1F2937">4</text>
  
  <!-- Week 2 -->
  <text x="300" y="340" font-family="Inter, sans-serif" font-size="14" fill="#1F2937">5</text>
  <circle cx="300" cy="340" r="16" fill="#3B82F6" opacity="0.1"/>
  <text x="442" y="340" font-family="Inter, sans-serif" font-size="14" fill="#1F2937">6</text>
  <text x="584" y="340" font-family="Inter, sans-serif" font-size="14" fill="#1F2937">7</text>
  <text x="726" y="340" font-family="Inter, sans-serif" font-size="14" fill="#1F2937">8</text>
  <text x="868" y="340" font-family="Inter, sans-serif" font-size="14" fill="#1F2937">9</text>
  <text x="1010" y="340" font-family="Inter, sans-serif" font-size="14" fill="#1F2937">10</text>
  <text x="1152" y="340" font-family="Inter, sans-serif" font-size="14" fill="#1F2937">11</text>
  
  <!-- Week 3 -->
  <text x="300" y="410" font-family="Inter, sans-serif" font-size="14" fill="#1F2937">12</text>
  <text x="442" y="410" font-family="Inter, sans-serif" font-size="14" fill="#1F2937">13</text>
  <text x="584" y="410" font-family="Inter, sans-serif" font-size="14" fill="#1F2937">14</text>
  <text x="726" y="410" font-family="Inter, sans-serif" font-size="14" fill="#1F2937">15</text>
  <text x="868" y="410" font-family="Inter, sans-serif" font-size="14" fill="#1F2937">16</text>
  <text x="1010" y="410" font-family="Inter, sans-serif" font-size="14" fill="#1F2937">17</text>
  <text x="1152" y="410" font-family="Inter, sans-serif" font-size="14" fill="#1F2937">18</text>
  
  <!-- Week 4 -->
  <text x="300" y="480" font-family="Inter, sans-serif" font-size="14" fill="#1F2937">19</text>
  <text x="442" y="480" font-family="Inter, sans-serif" font-size="14" fill="#1F2937">20</text>
  <text x="584" y="480" font-family="Inter, sans-serif" font-size="14" fill="#1F2937">21</text>
  <text x="726" y="480" font-family="Inter, sans-serif" font-size="14" fill="#1F2937">22</text>
  <text x="868" y="480" font-family="Inter, sans-serif" font-size="14" fill="#1F2937">23</text>
  <text x="1010" y="480" font-family="Inter, sans-serif" font-size="14" fill="#1F2937">24</text>
  <text x="1152" y="480" font-family="Inter, sans-serif" font-size="14" fill="#1F2937">25</text>
  
  <!-- Week 5 -->
  <text x="300" y="550" font-family="Inter, sans-serif" font-size="14" fill="#1F2937">26</text>
  <text x="442" y="550" font-family="Inter, sans-serif" font-size="14" fill="#1F2937">27</text>
  <text x="584" y="550" font-family="Inter, sans-serif" font-size="14" fill="#1F2937">28</text>
  <text x="726" y="550" font-family="Inter, sans-serif" font-size="14" fill="#1F2937">29</text>
  <text x="868" y="550" font-family="Inter, sans-serif" font-size="14" fill="#1F2937">30</text>
  <circle cx="868" cy="550" r="16" fill="#EF4444" opacity="0.1"/>
  <text x="1010" y="550" font-family="Inter, sans-serif" font-size="14" fill="#6B7280" opacity="0.5">1</text>
  <text x="1152" y="550" font-family="Inter, sans-serif" font-size="14" fill="#6B7280" opacity="0.5">2</text>
  
  <!-- Week 6 -->
  <text x="300" y="620" font-family="Inter, sans-serif" font-size="14" fill="#6B7280" opacity="0.5">3</text>
  <text x="442" y="620" font-family="Inter, sans-serif" font-size="14" fill="#6B7280" opacity="0.5">4</text>
  <text x="584" y="620" font-family="Inter, sans-serif" font-size="14" fill="#6B7280" opacity="0.5">5</text>
  <text x="726" y="620" font-family="Inter, sans-serif" font-size="14" fill="#6B7280" opacity="0.5">6</text>
  <text x="868" y="620" font-family="Inter, sans-serif" font-size="14" fill="#6B7280" opacity="0.5">7</text>
  <text x="1010" y="620" font-family="Inter, sans-serif" font-size="14" fill="#6B7280" opacity="0.5">8</text>
  <text x="1152" y="620" font-family="Inter, sans-serif" font-size="14" fill="#6B7280" opacity="0.5">9</text>
  
  <!-- Events -->
  <!-- Q3 Earnings Call (Nov 5) -->
  <rect x="270" y="280" width="120" height="24" rx="4" fill="#F59E0B" opacity="0.2"/>
  <text x="280" y="296" font-family="Inter, sans-serif" font-size="12" fill="#F59E0B">Q3 Earnings Call</text>
  
  <!-- Product Demo Webinar (Nov 10) -->
  <rect x="980" y="280" width="140" height="24" rx="4" fill="#3B82F6" opacity="0.2"/>
  <text x="990" y="296" font-family="Inter, sans-serif" font-size="12" fill="#3B82F6">Product Demo Webinar</text>
  
  <!-- Investor Roadshow (Nov 15-17) -->
  <rect x="700" y="350" width="260" height="24" rx="4" fill="#10B981" opacity="0.2"/>
  <text x="710" y="366" font-family="Inter, sans-serif" font-size="12" fill="#10B981">Investor Roadshow</text>
  
  <!-- Annual General Meeting (Nov 30) -->
  <rect x="840" y="490" width="120" height="24" rx="4" fill="#EF4444" opacity="0.2"/>
  <text x="850" y="506" font-family="Inter, sans-serif" font-size="12" fill="#EF4444">AGM</text>
  
  <!-- Event List -->
  <rect x="264" y="648" width="992" height="132" rx="8" fill="#FFFFFF" stroke="#E5E7EB" stroke-width="1"/>
  <text x="288" y="678" font-family="Inter, sans-serif" font-size="16" font-weight="bold" fill="#1F2937">Upcoming Events</text>
  
  <rect x="288" y="690" width="944" height="1" fill="#E5E7EB"/>
  
  <!-- Event 1 -->
  <rect x="288" y="700" width="8" height="24" rx="4" fill="#F59E0B"/>
  <text x="308" y="716" font-family="Inter, sans-serif" font-size="14" font-weight="bold" fill="#1F2937">Q3 Earnings Call</text>
  <text x="460" y="716" font-family="Inter, sans-serif" font-size="14" fill="#6B7280">Nov 5, 2023 • 10:00 AM • Virtual</text>
  <rect x="1100" y="700" width="80" height="24" rx="12" fill="#FFFFFF" stroke="#E5E7EB" stroke-width="1"/>
  <text x="1120" y="716" font-family="Inter, sans-serif" font-size="12" fill="#6B7280">Edit</text>
  <rect x="1190" y="700" width="24" height="24" rx="12" fill="#FFFFFF" stroke="#E5E7EB" stroke-width="1"/>
  <text x="1198" y="716" font-family="Inter, sans-serif" font-size="12" fill="#6B7280">×</text>
  
  <rect x="288" y="730" width="944" height="1" fill="#E5E7EB"/>
  
  <!-- Event 2 -->
  <rect x="288" y="740" width="8" height="24" rx="4" fill="#3B82F6"/>
  <text x="308" y="756" font-family="Inter, sans-serif" font-size="14" font-weight="bold" fill="#1F2937">Product Demo Webinar</text>
  <text x="460" y="756" font-family="Inter, sans-serif" font-size="14" fill="#6B7280">Nov 10, 2023 • 2:00 PM • Virtual</text>
  <rect x="1100" y="740" width="80" height="24" rx="12" fill="#FFFFFF" stroke="#E5E7EB" stroke-width="1"/>
  <text x="1120" y="756" font-family="Inter, sans-serif" font-size="12" fill="#6B7280">Edit</text>
  <rect x="1190" y="740" width="24" height="24" rx="12" fill="#FFFFFF" stroke="#E5E7EB" stroke-width="1"/>
  <text x="1198" y="756" font-family="Inter, sans-serif" font-size="12" fill="#6B7280">×</text>
</svg>