<?xml version="1.0" encoding="UTF-8"?>
<svg width="1280" height="800" viewBox="0 0 1280 800" fill="none" xmlns="http://www.w3.org/2000/svg">
  <!-- Background -->
  <rect width="1280" height="800" fill="#F9FAFB"/>
  
  <!-- Sidebar Navigation -->
  <rect x="0" y="0" width="240" height="800" fill="#FFFFFF" stroke="#E5E7EB" stroke-width="1"/>
  <rect x="0" y="0" width="240" height="64" fill="#1E40AF"/>
  <text x="20" y="40" font-family="Inter, sans-serif" font-size="24" font-weight="bold" fill="white">Diolog</text>
  
  <!-- Sidebar Menu Items -->
  <rect x="0" y="240" width="240" height="40" fill="#EFF6FF"/>
  <text x="56" y="265" font-family="Inter, sans-serif" font-size="14" fill="#1E40AF" font-weight="500">Question Registry</text>
  <circle cx="28" cy="260" r="16" fill="#3B82F6" opacity="0.2"/>
  <text x="24" y="265" font-family="Inter, sans-serif" font-size="14" fill="#1E40AF" font-weight="bold">QR</text>
  
  <!-- Dashboard Menu Item -->
  <text x="56" y="145" font-family="Inter, sans-serif" font-size="14" fill="#6B7280">Dashboard</text>
  <circle cx="28" cy="140" r="16" fill="#6B7280" opacity="0.2"/>
  <text x="24" y="145" font-family="Inter, sans-serif" font-size="14" fill="#6B7280">DB</text>
  
  <!-- Calendar Menu Item -->
  <text x="56" y="185" font-family="Inter, sans-serif" font-size="14" fill="#6B7280">Calendar/Events</text>
  <circle cx="28" cy="180" r="16" fill="#6B7280" opacity="0.2"/>
  <text x="24" y="185" font-family="Inter, sans-serif" font-size="14" fill="#6B7280">CE</text>
  
  <!-- Announcements Menu Item -->
  <text x="56" y="225" font-family="Inter, sans-serif" font-size="14" fill="#6B7280">Announcements</text>
  <circle cx="28" cy="220" r="16" fill="#6B7280" opacity="0.2"/>
  <text x="24" y="225" font-family="Inter, sans-serif" font-size="14" fill="#6B7280">AN</text>
  
  <!-- Questions Board Menu Item -->
  <text x="56" y="305" font-family="Inter, sans-serif" font-size="14" fill="#6B7280">Questions Board</text>
  <circle cx="28" cy="300" r="16" fill="#EF4444" opacity="0.2"/>
  <circle cx="28" cy="300" r="16" stroke="#EF4444" stroke-width="1" fill="none"/>
  <text x="24" y="305" font-family="Inter, sans-serif" font-size="14" fill="#6B7280">QB</text>
  <circle cx="36" cy="290" r="8" fill="#EF4444"/>
  <text x="36" y="294" font-family="Inter, sans-serif" font-size="10" fill="white" text-anchor="middle">5</text>
  
  <!-- FAQs Menu Item -->
  <text x="56" y="345" font-family="Inter, sans-serif" font-size="14" fill="#6B7280">Our FAQs</text>
  <circle cx="28" cy="340" r="16" fill="#6B7280" opacity="0.2"/>
  <text x="24" y="345" font-family="Inter, sans-serif" font-size="14" fill="#6B7280">FQ</text>
  
  <!-- Team Menu Item -->
  <text x="56" y="385" font-family="Inter, sans-serif" font-size="14" fill="#6B7280">My Team</text>
  <circle cx="28" cy="380" r="16" fill="#6B7280" opacity="0.2"/>
  <text x="24" y="385" font-family="Inter, sans-serif" font-size="14" fill="#6B7280">TM</text>
  
  <!-- Upgrade to Premium -->
  <rect x="20" y="720" width="200" height="40" rx="4" fill="#F59E0B"/>
  <text x="120" y="745" font-family="Inter, sans-serif" font-size="14" font-weight="500" fill="white" text-anchor="middle">Upgrade to Premium</text>
  
  <!-- Top Header -->
  <rect x="240" y="0" width="1040" height="64" fill="white" stroke="#E5E7EB" stroke-width="1"/>
  
  <!-- Company Profile Dropdown -->
  <rect x="260" y="16" width="180" height="32" rx="16" fill="#F3F4F6"/>
  <circle cx="276" cy="32" r="12" fill="#3B82F6"/>
  <text x="276" y="36" font-family="Inter, sans-serif" font-size="10" fill="white" text-anchor="middle">AC</text>
  <text x="296" y="36" font-family="Inter, sans-serif" font-size="14" fill="#1F2937">Acme Corporation</text>
  <path d="M430 32 L425 27 L435 27 Z" fill="#6B7280"/>
  
  <!-- User Profile Dropdown -->
  <circle cx="1240" cy="32" r="16" fill="#3B82F6"/>
  <text x="1240" y="36" font-family="Inter, sans-serif" font-size="12" fill="white" text-anchor="middle">JD</text>
  
  <!-- Notification Icon -->
  <circle cx="1190" cy="32" r="16" fill="#F3F4F6"/>
  <text x="1190" y="36" font-family="Inter, sans-serif" font-size="14" fill="#6B7280" text-anchor="middle">🔔</text>
  
  <!-- Main Content Area -->
  <rect x="240" y="64" width="1040" height="736" fill="#F9FAFB"/>
  
  <!-- Page Header -->
  <text x="280" y="120" font-family="Inter, sans-serif" font-size="24" font-weight="bold" fill="#1F2937">Question Registry</text>
  
  <!-- Search Bar -->
  <rect x="280" y="140" width="400" height="40" rx="4" fill="white" stroke="#E5E7EB" stroke-width="1"/>
  <text x="310" y="165" font-family="Inter, sans-serif" font-size="14" fill="#9CA3AF">Search questions or responses...</text>
  <text x="290" y="165" font-family="Inter, sans-serif" font-size="14" fill="#6B7280">🔍</text>
  
  <!-- Add New Question Button -->
  <rect x="960" y="140" width="160" height="40" rx="4" fill="#1E40AF"/>
  <text x="1040" y="165" font-family="Inter, sans-serif" font-size="14" font-weight="500" fill="white" text-anchor="middle">Add New Question</text>
  
  <!-- Import CSV Button -->
  <rect x="1130" y="140" width="130" height="40" rx="4" fill="white" stroke="#1E40AF" stroke-width="1"/>
  <text x="1195" y="165" font-family="Inter, sans-serif" font-size="14" font-weight="500" fill="#1E40AF" text-anchor="middle">Import CSV</text>
  
  <!-- Filter and Sort Controls -->
  <rect x="280" y="200" width="180" height="40" rx="4" fill="white" stroke="#E5E7EB" stroke-width="1"/>
  <text x="300" y="225" font-family="Inter, sans-serif" font-size="14" fill="#6B7280">Filter by Category</text>
  <path d="M440 225 L435 220 L445 220 Z" fill="#6B7280"/>
  
  <rect x="470" y="200" width="140" height="40" rx="4" fill="white" stroke="#E5E7EB" stroke-width="1"/>
  <text x="490" y="225" font-family="Inter, sans-serif" font-size="14" fill="#6B7280">Starred Only</text>
  <rect x="580" y="210" width="20" height="20" rx="4" fill="white" stroke="#E5E7EB" stroke-width="1"/>
  
  <rect x="620" y="200" width="180" height="40" rx="4" fill="white" stroke="#E5E7EB" stroke-width="1"/>
  <text x="640" y="225" font-family="Inter, sans-serif" font-size="14" fill="#6B7280">Sort by: Date Added</text>
  <path d="M780 225 L775 220 L785 220 Z" fill="#6B7280"/>
  
  <!-- Question Registry List -->
  <rect x="280" y="260" width="980" height="500" fill="white" stroke="#E5E7EB" stroke-width="1" rx="8"/>
  
  <!-- Question Entry 1 -->
  <rect x="300" y="280" width="940" height="100" fill="white" stroke="#E5E7EB" stroke-width="1" rx="4"/>
  <text x="320" y="310" font-family="Inter, sans-serif" font-size="16" font-weight="500" fill="#1F2937">What is your dividend policy?</text>
  <text x="320" y="340" font-family="Inter, sans-serif" font-size="14" fill="#6B7280">Our dividend policy aims to balance shareholder returns with reinvestment for growth. We target a payout ratio of 40-60% of annual net profit, subject to board approval and...</text>
  
  <!-- Category Tags -->
  <rect x="320" y="360" width="80" height="24" rx="12" fill="#DBEAFE"/>
  <text x="360" y="377" font-family="Inter, sans-serif" font-size="12" fill="#1E40AF" text-anchor="middle">Financial</text>
  
  <rect x="410" y="360" width="100" height="24" rx="12" fill="#FEF3C7"/>
  <text x="460" y="377" font-family="Inter, sans-serif" font-size="12" fill="#D97706" text-anchor="middle">Governance</text>
  
  <!-- Star Icon -->
  <text x="530" y="377" font-family="Inter, sans-serif" font-size="16" fill="#F59E0B">★</text>
  
  <!-- Date Added -->
  <text x="560" y="377" font-family="Inter, sans-serif" font-size="12" fill="#6B7280">Added: 2023-10-15</text>
  
  <!-- Actions Menu -->
  <text x="1200" y="330" font-family="Inter, sans-serif" font-size="20" fill="#6B7280">⋮</text>
  
  <!-- Question Entry 2 -->
  <rect x="300" y="390" width="940" height="100" fill="white" stroke="#E5E7EB" stroke-width="1" rx="4"/>
  <text x="320" y="420" font-family="Inter, sans-serif" font-size="16" font-weight="500" fill="#1F2937">How are you addressing ESG concerns?</text>
  <text x="320" y="450" font-family="Inter, sans-serif" font-size="14" fill="#6B7280">We have implemented a comprehensive ESG strategy focusing on reducing our carbon footprint, enhancing workplace diversity, and strengthening governance practices. Key initiatives include...</text>
  
  <!-- Category Tags -->
  <rect x="320" y="470" width="60" height="24" rx="12" fill="#D1FAE5"/>
  <text x="350" y="487" font-family="Inter, sans-serif" font-size="12" fill="#047857" text-anchor="middle">ESG</text>
  
  <rect x="390" y="470" width="100" height="24" rx="12" fill="#FEF3C7"/>
  <text x="440" y="487" font-family="Inter, sans-serif" font-size="12" fill="#D97706" text-anchor="middle">Governance</text>
  
  <!-- Date Added -->
  <text x="560" y="487" font-family="Inter, sans-serif" font-size="12" fill="#6B7280">Added: 2023-10-10</text>
  
  <!-- Actions Menu -->
  <text x="1200" y="440" font-family="Inter, sans-serif" font-size="20" fill="#6B7280">⋮</text>
  
  <!-- Question Entry 3 -->
  <rect x="300" y="500" width="940" height="100" fill="white" stroke="#E5E7EB" stroke-width="1" rx="4"/>
  <text x="320" y="530" font-family="Inter, sans-serif" font-size="16" font-weight="500" fill="#1F2937">What are your growth projections for the next fiscal year?</text>
  <text x="320" y="560" font-family="Inter, sans-serif" font-size="14" fill="#6B7280">Based on current market conditions and our strategic initiatives, we project revenue growth of 15-20% for the next fiscal year. This growth will be driven by expansion into new markets and...</text>
  
  <!-- Category Tags -->
  <rect x="320" y="580" width="80" height="24" rx="12" fill="#DBEAFE"/>
  <text x="360" y="597" font-family="Inter, sans-serif" font-size="12" fill="#1E40AF" text-anchor="middle">Financial</text>
  
  <rect x="410" y="580" width="90" height="24" rx="12" fill="#E0E7FF"/>
  <text x="455" y="597" font-family="Inter, sans-serif" font-size="12" fill="#4338CA" text-anchor="middle">Strategy</text>
  
  <!-- Star Icon -->
  <text x="530" y="597" font-family="Inter, sans-serif" font-size="16" fill="#F59E0B">★</text>
  
  <!-- Date Added -->
  <text x="560" y="597" font-family="Inter, sans-serif" font-size="12" fill="#6B7280">Added: 2023-10-05</text>
  
  <!-- Actions Menu -->
  <text x="1200" y="550" font-family="Inter, sans-serif" font-size="20" fill="#6B7280">⋮</text>
  
  <!-- Question Entry 4 -->
  <rect x="300" y="610" width="940" height="100" fill="white" stroke="#E5E7EB" stroke-width="1" rx="4"/>
  <text x="320" y="640" font-family="Inter, sans-serif" font-size="16" font-weight="500" fill="#1F2937">Can you explain your recent acquisition strategy?</text>
  <text x="320" y="670" font-family="Inter, sans-serif" font-size="14" fill="#6B7280">Our acquisition strategy focuses on identifying complementary businesses that enhance our product portfolio, expand our market reach, or provide technological advantages. Recent acquisitions have been aimed at...</text>
  
  <!-- Category Tags -->
  <rect x="320" y="690" width="90" height="24" rx="12" fill="#E0E7FF"/>
  <text x="365" y="707" font-family="Inter, sans-serif" font-size="12" fill="#4338CA" text-anchor="middle">Strategy</text>
  
  <rect x="420" y="690" width="110" height="24" rx="12" fill="#FCE7F3"/>
  <text x="475" y="707" font-family="Inter, sans-serif" font-size="12" fill="#9D174D" text-anchor="middle">Corporate</text>
  
  <!-- Date Added -->
  <text x="560" y="707" font-family="Inter, sans-serif" font-size="12" fill="#6B7280">Added: 2023-09-28</text>
  
  <!-- Actions Menu -->
  <text x="1200" y="660" font-family="Inter, sans-serif" font-size="20" fill="#6B7280">⋮</text>
  
  <!-- Pagination -->
  <rect x="600" y="780" width="320" height="40" fill="transparent"/>
  <rect x="640" y="780" width="40" height="40" rx="4" fill="#1E40AF"/>
  <text x="660" y="805" font-family="Inter, sans-serif" font-size="14" font-weight="500" fill="white" text-anchor="middle">1</text>
  
  <rect x="690" y="780" width="40" height="40" rx="4" fill="white" stroke="#E5E7EB" stroke-width="1"/>
  <text x="710" y="805" font-family="Inter, sans-serif" font-size="14" fill="#6B7280" text-anchor="middle">2</text>
  
  <rect x="740" y="780" width="40" height="40" rx="4" fill="white" stroke="#E5E7EB" stroke-width="1"/>
  <text x="760" y="805" font-family="Inter, sans-serif" font-size="14" fill="#6B7280" text-anchor="middle">3</text>
  
  <rect x="790" y="780" width="40" height="40" rx="4" fill="white" stroke="#E5E7EB" stroke-width="1"/>
  <text x="810" y="805" font-family="Inter, sans-serif" font-size="14" fill="#6B7280" text-anchor="middle">4</text>
  
  <rect x="840" y="780" width="40" height="40" rx="4" fill="white" stroke="#E5E7EB" stroke-width="1"/>
  <text x="860" y="805" font-family="Inter, sans-serif" font-size="14" fill="#6B7280" text-anchor="middle">5</text>
</svg>